{"glyphs":{"0":{"ha":664,"x_min":186,"x_max":876,"o":"m 876 536 q 721 205 876 381 q 371 -8 532 -8 q 238 50 290 -8 q 186 199 186 108 q 410 570 186 381 q 718 732 603 732 q 833 678 790 732 q 876 536 876 625 m 827 611 q 720 722 827 722 q 517 619 632 722 q 330 384 408 522 q 249 129 249 239 q 370 1 249 1 q 669 210 519 1 q 784 418 741 308 q 827 611 827 528 z "},"1":{"ha":664,"x_min":313,"x_max":847,"o":"m 847 704 q 693 460 847 698 q 523 179 570 269 q 452 -4 475 88 q 410 1 427 1 q 336 -7 390 1 q 618 412 382 128 q 810 661 762 587 q 456 317 633 452 q 318 229 341 229 q 313 233 313 229 q 321 241 313 238 q 821 684 493 319 l 829 693 q 844 707 842 707 q 847 704 847 707 z "},"2":{"ha":664,"x_min":113,"x_max":878,"o":"m 878 576 q 800 410 878 483 q 686 326 745 357 q 453 225 627 294 q 154 39 236 138 q 286 86 214 86 q 436 57 342 86 q 558 32 516 32 q 665 79 616 32 q 732 197 714 125 q 739 205 734 205 q 742 203 741 205 q 696 100 742 164 q 485 -18 611 -18 q 346 9 438 -18 q 205 43 235 43 q 127 -14 135 43 q 118 -29 126 -29 q 113 -24 113 -29 q 167 64 113 8 q 262 142 214 112 q 449 237 313 174 q 716 421 619 317 q 812 628 812 526 q 781 696 812 671 q 696 721 749 721 q 437 598 576 721 q 298 371 298 476 q 390 294 298 294 q 553 366 463 294 q 676 521 643 437 q 682 528 678 528 q 686 524 686 528 q 628 425 686 494 q 511 326 577 365 q 392 288 444 288 q 308 319 340 288 q 277 401 277 350 q 444 639 277 528 q 699 729 581 729 q 828 687 778 729 q 878 576 878 644 z "},"3":{"ha":664,"x_min":139,"x_max":838,"o":"m 838 608 q 558 399 838 448 q 722 232 722 361 q 610 60 722 134 q 351 -14 498 -14 q 199 24 258 -14 q 139 119 139 61 q 198 222 139 180 q 342 265 258 265 q 406 257 406 265 q 401 253 406 253 l 396 253 q 354 257 371 257 q 229 215 280 257 q 178 111 178 172 q 218 29 178 61 q 322 -3 258 -3 q 550 85 446 -3 q 654 279 654 174 q 547 395 654 367 q 452 386 489 386 q 416 395 416 386 q 467 408 416 408 q 547 401 505 408 q 711 501 650 436 q 772 643 772 566 q 663 729 772 729 q 473 664 568 729 q 378 532 378 598 q 456 471 378 471 q 562 508 503 471 q 654 597 621 546 q 663 604 658 604 q 665 602 665 604 q 640 566 665 594 q 591 519 614 537 q 453 463 519 463 q 388 486 413 463 q 363 546 363 509 q 459 676 363 614 q 664 737 555 737 q 790 702 743 737 q 838 608 838 667 z "},"4":{"ha":664,"x_min":66,"x_max":1086,"o":"m 1086 791 q 1080 786 1086 786 q 1074 787 1078 786 q 1013 799 1042 799 q 559 513 836 799 q 360 318 424 372 q 211 220 296 264 q 421 240 291 240 q 501 237 469 240 q 663 465 538 294 q 796 668 769 612 q 804 676 800 676 q 807 673 807 675 q 806 669 807 672 l 799 656 q 701 479 791 640 q 572 233 615 323 q 650 231 614 231 q 765 262 721 231 q 810 342 810 293 q 800 380 810 359 q 799 387 799 383 q 803 392 799 392 q 818 342 818 392 q 558 205 818 205 q 486 -3 499 76 q 436 5 461 5 q 368 -3 405 5 q 481 205 404 95 q 408 211 466 206 q 290 220 328 220 q 207 214 253 220 q 78 163 126 163 q 66 170 66 163 q 197 220 66 193 q 353 329 291 275 q 553 524 412 379 q 1013 812 834 812 q 1062 806 1038 812 q 1086 791 1086 799 z "},"5":{"ha":664,"x_min":144,"x_max":886,"o":"m 886 746 q 847 670 886 703 q 758 637 808 637 q 677 653 720 637 q 582 676 612 676 q 525 629 543 676 q 425 441 486 526 q 539 468 481 468 q 692 416 631 468 q 753 286 753 364 q 625 80 753 172 q 336 -12 497 -12 q 198 26 252 -12 q 144 125 144 64 q 214 242 144 195 q 385 289 283 289 q 443 281 443 289 q 439 278 442 278 q 415 279 431 278 q 390 281 399 281 q 241 234 300 281 q 183 114 183 186 q 221 28 183 60 q 325 -3 259 -3 q 566 101 449 -3 q 684 314 684 205 q 640 417 684 378 q 524 456 597 456 q 416 433 475 456 q 318 342 345 342 q 310 349 310 342 q 410 433 310 376 q 529 708 529 593 q 528 726 529 721 q 526 733 526 729 q 534 742 526 742 q 543 720 543 742 q 534 664 543 699 q 636 730 573 730 q 766 694 661 730 q 823 682 804 682 q 860 697 844 682 q 876 733 876 713 q 873 746 876 739 q 871 755 871 753 q 878 764 871 764 q 886 746 886 764 z "},"6":{"ha":664,"x_min":221,"x_max":899,"o":"m 899 793 q 885 786 899 786 l 872 786 q 574 614 751 786 q 309 240 396 441 q 467 417 376 350 q 637 485 557 485 q 748 443 705 485 q 790 335 790 401 q 658 101 790 215 q 387 -14 526 -14 q 266 35 311 -14 q 221 167 221 84 q 322 424 221 290 q 606 679 423 558 q 763 764 679 728 q 886 800 847 800 q 899 793 899 800 m 732 385 q 631 476 732 476 q 401 350 523 476 q 279 111 279 223 q 306 26 279 58 q 376 -5 332 -5 q 607 132 481 -5 q 732 385 732 269 z "},"7":{"ha":664,"x_min":264,"x_max":889,"o":"m 889 762 q 856 676 889 731 q 802 603 829 632 q 663 461 772 568 q 379 -3 390 195 q 317 4 348 4 q 264 -3 288 4 q 386 248 288 129 q 704 533 484 366 q 860 701 823 623 q 713 629 811 629 q 579 660 662 629 q 472 690 496 690 q 432 679 452 690 l 428 671 q 351 566 375 566 q 343 574 343 566 q 422 679 343 608 q 437 732 437 710 q 433 754 437 741 l 433 757 q 441 765 433 765 q 450 751 450 765 q 435 689 450 726 q 545 733 489 733 q 681 699 577 733 q 777 679 739 679 q 871 746 871 679 q 869 758 871 751 l 869 762 q 879 774 869 774 q 889 762 889 774 z "},"8":{"ha":664,"x_min":174,"x_max":900,"o":"m 900 631 q 612 427 900 511 q 698 330 676 366 q 720 248 720 293 q 616 66 720 146 q 383 -14 513 -14 q 232 29 290 -14 q 174 140 174 71 q 254 283 174 222 q 529 410 334 344 q 461 534 461 476 q 549 679 461 614 q 743 745 637 745 q 855 712 810 745 q 900 631 900 679 m 854 652 q 823 712 854 688 q 743 736 791 736 q 592 686 658 736 q 526 571 526 636 q 554 494 526 534 q 608 432 565 479 q 788 530 721 471 q 854 652 854 590 m 650 204 q 613 314 650 261 q 533 404 602 329 q 227 117 227 292 q 382 -5 227 -5 q 570 57 491 -5 q 650 204 650 119 z "},"9":{"ha":664,"x_min":151,"x_max":850,"o":"m 850 555 q 746 307 850 440 q 464 60 642 173 q 297 -26 385 9 q 163 -61 208 -61 q 151 -54 151 -61 q 168 -45 151 -45 l 178 -45 q 483 119 300 -45 q 754 472 666 283 q 591 308 688 373 q 412 243 494 243 q 308 282 347 243 q 269 389 269 322 q 408 618 269 509 q 555 704 475 671 q 690 737 634 737 q 805 687 761 737 q 850 555 850 637 m 791 614 q 692 729 791 729 q 457 590 587 729 q 326 340 326 451 q 419 253 326 253 q 565 303 480 253 q 711 427 650 353 q 791 614 791 522 z "}," ":{"ha":245,"x_min":0,"x_max":0,"o":""},"Ð":{"ha":1177,"x_min":87,"x_max":1742,"o":"m 1742 697 q 1733 624 1742 663 q 1718 586 1725 586 q 1714 590 1714 586 q 1715 599 1714 595 q 1731 696 1731 640 q 1679 833 1731 781 q 1541 885 1627 885 q 1223 728 1374 885 q 1282 500 1282 619 q 1111 123 1282 277 q 694 -32 941 -32 q 486 -11 618 -32 q 267 -32 372 -32 q 87 4 87 -32 q 131 35 87 22 q 233 49 175 49 q 514 3 304 49 q 725 109 647 37 q 929 379 804 180 l 818 379 l 822 392 l 937 392 q 1198 730 1072 610 q 878 897 1100 897 q 457 717 648 897 q 303 516 361 626 q 245 314 245 406 q 292 197 245 241 q 415 153 338 153 q 684 292 545 153 q 823 561 823 431 q 796 639 823 609 q 725 669 769 669 q 675 652 675 669 q 682 647 675 647 l 689 647 q 699 648 692 648 q 732 618 732 648 q 715 579 732 595 q 675 562 698 562 q 633 607 633 562 q 661 660 633 638 q 726 682 688 682 q 807 649 776 682 q 838 564 838 616 q 695 283 838 427 q 415 140 552 140 q 260 203 321 140 q 199 364 199 266 q 407 742 199 574 q 878 909 615 909 q 1214 745 1101 909 q 1550 897 1381 897 q 1689 842 1636 897 q 1742 697 1742 787 m 1244 550 q 1208 713 1244 634 q 1017 392 1127 621 l 1147 392 l 1143 379 l 1010 379 q 830 135 938 222 q 536 -3 722 47 q 720 -21 623 -21 q 1140 229 979 -21 q 1244 550 1244 391 m 463 -7 q 183 20 275 20 q 102 4 102 20 q 279 -20 102 -20 q 463 -7 381 -20 z "},"ð":{"ha":403,"x_min":74,"x_max":576,"o":"m 576 640 l 479 606 q 524 418 524 519 q 378 93 524 235 q 178 -16 267 -16 q 103 17 133 -16 q 74 98 74 50 q 210 301 74 206 q 368 368 305 368 q 429 306 429 368 q 425 272 429 297 q 471 490 471 392 q 456 597 471 547 l 350 558 l 347 568 l 452 607 q 343 710 419 698 q 334 715 334 711 q 339 718 334 718 q 473 615 406 718 l 574 652 l 576 640 m 418 307 q 367 359 418 359 q 218 242 307 359 q 129 45 129 125 q 176 -4 129 -4 q 329 110 241 -4 q 418 307 418 224 z "},"Š":{"ha":982,"x_min":183,"x_max":1645,"o":"m 1381 886 q 1315 792 1381 854 q 1156 675 1250 731 q 1120 534 1143 636 q 1050 308 1082 375 q 945 172 1018 241 q 471 -28 733 -28 q 338 -3 395 -28 q 306 -111 306 -65 q 345 -218 306 -170 q 349 -228 349 -222 q 342 -233 349 -233 q 308 -191 326 -233 q 290 -113 290 -149 q 325 4 290 -60 q 183 256 183 77 q 251 484 183 370 q 441 688 319 597 q 751 803 598 803 q 884 756 835 803 q 933 629 933 709 q 921 541 933 587 q 1097 653 1021 607 q 1220 836 1146 760 q 1349 913 1294 913 q 1381 886 1381 913 m 1368 885 q 1349 901 1368 901 q 1247 839 1303 901 q 1161 692 1192 776 q 1309 802 1251 747 q 1368 885 1368 857 m 897 510 l 852 479 q 484 186 597 303 q 545 171 512 171 q 743 271 640 171 q 897 510 847 370 m 1089 635 q 916 521 1010 585 q 759 269 871 377 q 543 160 646 160 q 475 176 512 160 q 345 9 398 97 q 471 -16 400 -16 q 718 57 598 -16 q 922 257 837 129 q 985 368 962 317 q 1060 561 1008 419 q 1089 635 1072 596 m 921 632 q 876 747 921 703 q 757 790 831 790 q 404 600 574 790 q 233 207 233 410 q 332 17 233 73 q 464 183 378 93 q 419 275 419 222 q 445 345 419 316 q 507 374 471 374 q 553 332 553 374 q 536 294 553 310 q 496 278 519 278 q 463 310 463 278 q 469 332 463 320 q 472 342 472 340 q 468 346 472 346 q 444 321 456 346 q 432 273 432 297 q 473 193 432 229 q 904 529 610 337 q 921 632 921 589 m 1645 1159 q 1624 1149 1645 1158 q 1378 989 1459 1078 q 1392 1147 1388 1087 q 1395 1160 1393 1160 q 1398 1155 1396 1160 q 1413 1062 1402 1095 q 1539 1127 1459 1092 q 1642 1162 1619 1162 q 1645 1159 1645 1161 z "},"š":{"ha":271,"x_min":20,"x_max":632,"o":"m 632 688 q 612 679 632 688 q 366 519 446 607 q 380 676 376 616 q 382 690 380 690 q 385 684 383 690 q 400 591 389 624 q 526 656 446 621 q 629 691 606 691 q 632 688 632 690 m 355 476 q 271 368 355 449 q 267 332 267 347 q 302 207 267 292 q 321 135 321 164 q 261 29 321 74 q 121 -16 202 -16 q 47 11 75 -16 q 20 81 20 37 q 56 180 20 132 q 131 228 92 228 q 143 225 138 228 l 197 292 q 262 372 222 321 q 298 454 274 420 q 345 488 321 488 q 355 476 355 488 m 261 208 q 260 249 261 229 q 258 306 258 269 q 261 357 258 336 q 151 221 223 309 q 164 195 164 210 q 98 140 164 155 q 53 112 72 134 q 33 64 33 89 q 53 18 33 37 q 102 0 73 0 q 210 66 159 0 q 261 208 261 132 z "},"Ý":{"ha":1293,"x_min":204,"x_max":1688,"o":"m 1688 1121 q 1520 1027 1622 1069 q 1430 993 1441 993 q 1426 994 1427 993 q 1434 1000 1426 996 q 1660 1164 1592 1076 l 1688 1121 m 1678 754 q 1672 749 1677 752 q 1456 525 1555 666 q 1242 135 1360 387 q 966 -212 1140 -82 q 607 -342 791 -342 q 456 -299 515 -342 q 397 -191 397 -257 q 422 -122 397 -151 q 481 -94 446 -94 q 525 -136 525 -94 q 510 -175 525 -159 q 473 -192 494 -192 q 437 -158 437 -192 q 440 -143 437 -150 q 441 -135 441 -140 q 439 -131 441 -131 q 420 -150 429 -131 q 411 -191 411 -170 q 465 -291 411 -251 q 603 -330 519 -330 q 818 -269 715 -330 q 984 -125 920 -208 q 1177 191 1047 -44 q 1283 370 1221 271 q 1060 121 1133 189 q 836 -7 923 -7 q 751 32 784 -7 q 718 134 718 71 q 755 264 718 197 q 908 479 791 330 q 1059 790 1059 670 q 867 949 1059 949 q 439 754 653 949 q 291 564 351 674 q 232 370 232 454 q 279 240 232 288 q 406 192 326 192 q 675 325 547 192 q 829 621 829 485 q 802 698 829 669 q 730 728 775 728 q 522 605 631 728 q 412 372 412 483 q 481 301 412 301 l 484 301 q 490 297 490 301 q 473 292 490 292 q 412 323 436 292 q 389 404 389 354 q 500 630 389 520 q 729 739 612 739 q 811 707 781 739 q 842 621 842 675 q 717 351 842 499 q 407 179 571 179 q 260 241 315 179 q 204 404 204 302 q 416 777 204 606 q 644 910 522 861 q 867 960 766 960 q 1036 900 974 960 q 1097 734 1097 840 q 1059 572 1097 651 q 909 349 1021 493 q 787 179 813 223 q 761 92 761 134 q 842 7 761 7 q 1022 99 917 7 q 1299 410 1127 192 q 1655 754 1476 634 l 1664 760 q 1671 762 1670 762 q 1678 754 1678 762 z "},"Þ":{"ha":1039,"x_min":158,"x_max":1655,"o":"m 1655 711 q 1649 637 1655 671 q 1633 603 1642 603 q 1629 608 1629 604 q 1632 619 1629 608 q 1643 704 1643 664 q 1592 842 1643 790 q 1455 893 1541 893 q 1135 725 1283 893 q 1255 541 1255 654 q 1185 391 1255 454 q 1018 328 1115 328 q 965 334 991 328 q 939 347 939 341 q 945 353 939 353 l 946 353 q 1014 339 977 339 q 1140 403 1088 339 q 1193 557 1193 467 q 1122 710 1193 649 q 1032 576 1069 642 q 916 342 998 515 q 624 39 819 140 q 368 -28 494 -28 q 218 14 279 -28 q 158 118 158 56 q 179 177 158 153 q 228 201 199 201 q 269 155 269 201 q 221 102 269 102 q 187 138 186 102 q 184 153 188 153 q 174 117 174 153 q 230 21 174 58 q 371 -17 286 -17 q 669 121 538 -17 q 745 215 710 163 q 903 460 779 264 q 1107 722 992 601 q 981 755 1055 751 q 986 717 986 733 q 885 497 986 608 q 684 386 783 386 q 608 416 637 386 q 578 493 578 446 q 696 680 578 596 q 961 764 814 764 l 970 764 q 863 861 939 861 q 811 850 838 861 q 804 848 808 848 q 800 852 800 848 q 822 865 800 859 q 867 871 844 871 q 979 764 944 871 q 1118 733 1060 760 q 1458 905 1291 905 q 1599 850 1544 905 q 1655 711 1655 795 m 977 722 q 972 755 977 734 q 723 664 841 755 q 604 472 604 573 q 682 395 604 395 q 877 506 777 395 q 977 722 977 616 z "},"þ":{"ha":363,"x_min":-249,"x_max":488,"o":"m 488 685 l 187 212 q 293 338 260 309 q 358 368 326 368 q 419 337 395 368 q 443 260 443 306 q 306 58 443 149 q 131 -16 194 -16 q 87 25 87 -16 q 94 58 87 37 l -165 -375 q -204 -370 -189 -370 q -249 -378 -227 -370 l 407 686 q 446 681 425 681 q 488 685 463 681 m 393 314 q 354 358 393 358 q 187 199 304 358 q 97 29 97 75 q 129 -5 97 -5 q 293 116 192 -5 q 393 314 393 238 z "},"½":{"ha":903,"x_min":202,"x_max":989,"o":"m 945 777 q 912 709 945 737 q 849 678 885 686 q 755 570 817 642 q 277 -56 454 211 q 237 -47 259 -47 q 202 -50 218 -47 q 490 281 323 94 q 750 572 719 536 q 845 685 785 615 q 887 738 866 711 q 937 783 926 783 q 945 777 945 783 m 682 785 q 589 639 682 781 q 442 361 466 450 q 412 366 423 366 q 364 359 394 366 q 539 612 393 440 q 638 736 600 685 q 463 568 544 637 q 357 500 381 500 q 352 504 353 500 q 370 517 352 508 q 673 783 472 568 q 680 789 676 789 q 682 785 682 788 m 989 344 q 901 212 989 270 q 727 132 856 182 q 555 34 616 90 q 624 56 585 56 q 716 38 660 56 q 788 21 768 21 q 894 117 867 21 q 899 124 896 124 q 903 120 903 124 q 874 58 903 98 q 745 -15 822 -15 q 621 16 715 -15 q 576 24 596 24 q 528 -8 532 24 q 522 -19 528 -19 q 516 -14 516 -19 q 549 39 516 5 q 723 144 593 85 q 884 251 824 189 q 943 373 943 313 q 874 427 943 427 q 717 354 802 427 q 633 220 633 282 q 687 177 633 177 q 785 218 732 177 q 861 310 838 258 q 866 316 862 316 q 870 311 870 316 q 834 252 870 292 q 688 168 759 168 q 616 238 616 168 q 698 373 616 310 q 876 435 781 435 q 958 410 926 435 q 989 344 989 384 z "},"¼":{"ha":927,"x_min":234,"x_max":1104,"o":"m 696 785 q 603 639 696 781 q 456 361 479 450 q 425 366 437 366 q 378 359 408 366 q 553 612 407 440 q 652 736 614 685 q 476 568 557 637 q 371 500 395 500 q 366 504 366 500 q 383 517 366 508 q 686 783 486 568 q 693 789 690 789 q 696 785 696 788 m 977 777 q 944 709 977 737 q 881 678 917 686 q 787 570 849 642 q 309 -56 486 211 q 269 -47 291 -47 q 234 -50 250 -47 q 522 281 355 94 q 782 572 751 536 q 877 685 817 615 q 919 738 898 711 q 969 783 958 783 q 977 777 977 783 m 1104 474 q 1098 469 1104 469 q 1084 473 1097 469 q 1058 475 1067 475 q 781 306 949 475 q 583 138 654 176 q 697 148 630 148 q 744 145 724 148 q 842 281 759 167 q 923 401 907 370 q 929 408 925 407 q 933 404 933 408 q 932 400 933 402 l 927 392 l 916 371 l 897 338 q 869 286 888 321 q 791 142 825 208 l 830 142 q 932 206 932 142 q 926 228 932 215 q 924 233 924 229 q 929 237 924 237 q 940 206 940 237 q 781 123 940 123 q 739 -1 745 42 q 707 3 718 3 q 662 -1 693 3 q 729 123 681 50 q 688 127 718 124 q 616 131 643 131 q 566 128 598 131 q 487 96 515 96 q 479 102 479 96 q 559 135 479 116 q 776 314 648 186 q 1057 488 949 488 q 1104 474 1104 488 z "},"¹":{"ha":441,"x_min":366,"x_max":696,"o":"m 696 785 q 603 639 696 781 q 456 361 479 450 q 425 366 437 366 q 378 359 408 366 q 553 612 407 440 q 652 736 614 685 q 476 568 557 637 q 371 500 395 500 q 366 504 366 500 q 383 517 366 508 q 686 783 486 568 q 693 789 690 789 q 696 785 696 788 z "},"¾":{"ha":915,"x_min":268,"x_max":1149,"o":"m 1023 777 q 991 709 1023 737 q 928 678 964 686 q 833 570 896 642 q 356 -56 532 211 q 316 -47 338 -47 q 281 -50 296 -47 q 569 281 401 94 q 829 572 798 536 q 924 685 864 615 q 966 738 945 711 q 1016 783 1004 783 q 1023 777 1023 783 m 703 729 q 537 603 703 633 q 633 504 633 581 q 564 401 633 446 q 401 357 494 357 q 306 379 344 357 q 268 437 268 402 q 306 500 268 475 q 397 526 343 526 q 437 519 437 526 q 432 515 437 515 l 420 517 l 407 517 q 329 493 360 517 q 297 433 297 469 q 321 385 297 404 q 385 367 346 367 q 522 419 458 367 q 585 532 585 471 q 522 600 585 581 q 464 595 496 595 l 456 595 q 440 602 440 595 q 472 611 440 611 q 522 607 495 611 q 656 749 656 654 q 593 799 656 799 q 478 760 536 799 q 420 684 420 722 q 467 648 420 648 q 586 724 529 648 q 593 728 588 728 q 595 725 595 727 q 550 674 595 709 q 464 639 505 639 q 407 692 407 639 q 463 772 407 736 q 591 807 519 807 q 672 786 642 807 q 703 729 703 764 m 1149 474 q 1143 469 1149 469 q 1129 473 1142 469 q 1103 475 1112 475 q 826 306 994 475 q 628 138 699 176 q 742 148 675 148 q 789 145 769 148 q 886 281 804 167 q 968 401 952 370 q 974 408 970 407 q 978 404 978 408 q 977 400 978 402 l 972 392 l 961 371 l 941 338 q 913 286 932 321 q 836 142 869 208 l 875 142 q 977 206 977 142 q 970 228 977 215 q 969 233 969 229 q 974 237 969 237 q 985 206 985 237 q 826 123 985 123 q 783 -1 789 42 q 751 3 762 3 q 707 -1 738 3 q 774 123 726 50 q 733 127 762 124 q 661 131 688 131 q 611 128 643 131 q 532 96 560 96 q 524 102 524 96 q 604 135 524 116 q 821 314 692 186 q 1101 488 994 488 q 1149 474 1149 488 z "},"³":{"ha":441,"x_min":261,"x_max":696,"o":"m 696 729 q 530 603 696 633 q 627 504 627 581 q 557 401 627 446 q 395 357 487 357 q 299 379 337 357 q 261 437 261 402 q 299 500 261 475 q 390 526 336 526 q 431 519 431 526 q 425 515 431 515 l 414 517 l 400 517 q 322 493 353 517 q 290 433 290 469 q 315 385 290 404 q 378 367 339 367 q 515 419 452 367 q 578 532 578 471 q 515 600 578 581 q 457 595 490 595 l 449 595 q 433 602 433 595 q 465 611 433 611 q 515 607 488 611 q 650 749 650 654 q 586 799 650 799 q 471 760 529 799 q 414 684 414 722 q 460 648 414 648 q 579 724 522 648 q 586 728 581 728 q 589 725 589 727 q 543 674 589 709 q 457 639 498 639 q 400 692 400 639 q 456 772 400 736 q 585 807 513 807 q 665 786 635 807 q 696 729 696 764 z "},"²":{"ha":441,"x_min":252,"x_max":725,"o":"m 725 710 q 636 578 725 636 q 463 498 591 549 q 290 400 351 456 q 359 422 320 422 q 452 404 395 422 q 524 387 503 387 q 629 484 602 387 q 635 490 631 490 q 639 486 639 490 q 610 424 639 464 q 481 351 557 351 q 357 382 451 351 q 311 390 332 390 q 264 358 268 390 q 257 347 264 347 q 252 353 252 347 q 285 406 252 372 q 458 510 329 451 q 619 617 559 555 q 679 739 679 680 q 610 793 679 793 q 453 721 537 793 q 368 586 368 648 q 422 543 368 543 q 520 584 467 543 q 596 676 573 625 q 602 682 597 682 q 606 677 606 682 q 570 618 606 659 q 424 534 494 534 q 351 604 351 534 q 434 739 351 676 q 611 802 516 802 q 693 776 661 802 q 725 710 725 750 z "},"¦":{"ha":694,"x_min":555,"x_max":582,"o":"m 582 482 l 555 482 l 555 926 l 582 926 l 582 482 m 582 -232 l 555 -232 l 555 212 l 582 212 l 582 -232 z "},"­":{"ha":726,"x_min":245,"x_max":884,"o":"m 882 358 q 840 346 880 346 l 268 346 q 248 358 245 346 q 289 371 250 371 l 859 371 q 882 358 884 371 z "},"!":{"ha":399,"x_min":110,"x_max":612,"o":"m 612 749 q 457 503 612 718 q 232 158 287 269 q 222 150 228 150 q 216 157 216 150 q 225 171 216 159 q 450 629 294 273 q 516 754 490 720 q 574 789 543 789 q 612 749 612 789 m 224 79 q 196 21 224 49 q 139 -7 168 -7 q 110 24 110 -7 q 139 79 110 52 q 197 107 168 107 q 224 79 224 107 z "},"\"":{"ha":664,"x_min":574,"x_max":831,"o":"m 831 861 q 821 819 831 841 q 754 686 812 799 q 700 566 715 609 l 689 566 q 739 779 699 599 q 804 893 762 893 q 831 861 831 893 m 717 860 q 686 775 717 833 q 586 566 608 627 l 574 566 q 624 779 595 638 q 690 893 647 893 q 717 860 717 893 z "},"#":{"ha":664,"x_min":177,"x_max":892,"o":"m 888 444 q 848 432 884 432 l 689 432 l 616 278 l 750 278 q 777 264 781 278 q 737 252 772 252 l 606 252 q 509 45 546 122 q 482 18 494 14 q 482 47 471 22 q 576 252 505 97 l 395 252 q 297 45 359 174 q 271 18 283 14 q 271 47 260 22 q 366 252 294 97 l 200 252 q 182 267 177 252 q 211 278 186 278 l 378 278 l 450 432 l 311 432 q 293 447 288 432 q 322 458 297 458 l 463 458 q 557 661 498 534 q 582 685 570 688 q 583 656 595 681 q 490 458 555 595 l 672 458 q 768 661 709 534 q 793 685 781 688 q 794 656 806 681 q 701 458 766 595 l 861 458 q 888 444 892 458 m 661 432 l 478 432 q 407 278 454 380 l 589 278 l 661 432 z "},"$":{"ha":664,"x_min":189,"x_max":836,"o":"m 836 521 q 789 435 836 470 q 672 400 742 400 q 582 465 582 400 q 609 524 582 492 q 659 557 637 557 q 664 553 664 557 q 661 550 663 550 q 593 467 593 519 q 654 412 593 412 q 745 456 699 412 q 790 542 790 499 q 688 615 790 615 q 547 566 610 615 q 484 457 484 516 q 534 377 484 422 q 611 317 572 347 q 689 186 689 255 q 601 34 689 98 q 393 -31 513 -31 q 363 -29 378 -31 l 227 -283 q 214 -294 220 -294 q 207 -286 207 -294 q 212 -271 207 -281 l 349 -26 q 189 114 189 0 q 258 228 189 174 q 404 281 326 281 q 414 278 413 281 q 399 271 414 274 q 292 212 335 258 q 249 109 249 165 q 287 12 249 47 q 393 -22 326 -22 q 552 26 485 -22 q 619 143 619 75 q 600 202 619 180 q 496 289 581 224 q 411 419 411 353 q 494 562 411 498 q 681 625 576 625 q 710 624 696 625 l 814 821 q 828 836 822 836 q 835 828 835 836 q 829 811 835 825 l 725 621 q 836 521 836 598 z "},"%":{"ha":743,"x_min":326,"x_max":852,"o":"m 832 699 q 825 686 832 694 q 425 66 686 537 q 374 74 399 74 q 335 71 371 74 q 765 629 544 361 l 785 653 q 643 553 739 606 q 543 463 583 519 q 397 355 469 355 q 346 376 366 355 q 326 431 326 397 q 400 563 326 492 q 539 633 474 633 q 590 578 590 633 q 561 496 590 543 q 684 597 606 553 q 818 696 768 646 q 828 703 825 703 q 832 699 831 701 m 572 587 q 543 624 572 624 q 433 541 497 624 q 368 399 368 457 q 397 366 368 366 q 509 446 446 366 q 572 587 572 526 m 852 326 q 785 182 852 259 q 660 104 718 104 q 609 125 629 104 q 589 178 589 145 q 662 311 589 240 q 802 382 736 382 q 852 326 852 382 m 835 336 q 806 372 835 372 q 695 289 760 372 q 631 149 631 206 q 660 114 631 114 q 771 194 708 114 q 835 336 835 275 z "},"&":{"ha":1235,"x_min":275,"x_max":1385,"o":"m 1385 310 q 1308 107 1385 191 q 1122 24 1232 24 q 1019 46 1079 24 q 785 -24 913 -24 q 593 25 678 -24 q 469 155 508 73 q 327 254 378 186 q 275 411 275 321 q 417 679 275 570 q 765 787 559 787 q 997 751 880 787 q 1102 851 1048 811 q 1183 892 1156 892 q 1207 869 1207 892 q 1071 724 1207 829 q 1300 547 1215 659 q 1385 310 1385 435 m 1194 869 q 1183 880 1194 880 q 1110 840 1162 880 q 1011 747 1058 800 l 1017 745 l 1031 741 l 1048 732 l 1057 729 q 1152 809 1110 766 q 1194 869 1194 852 m 1046 721 q 1003 736 1023 729 q 951 663 976 703 q 1046 721 987 680 m 1352 338 q 1276 555 1352 457 q 1060 715 1200 654 q 942 642 1013 681 q 892 507 911 582 q 958 514 930 514 q 1034 503 998 514 q 1067 602 1059 555 q 1079 621 1069 621 q 1088 610 1088 621 q 1050 497 1088 579 q 1173 306 1173 444 q 1032 54 1173 158 q 1105 40 1068 40 q 1279 128 1206 40 q 1352 338 1352 216 m 1029 493 q 958 503 992 503 q 889 493 926 503 q 869 323 869 421 q 871 282 869 300 q 1029 493 974 376 m 1149 323 q 1044 488 1149 437 q 872 267 979 359 q 936 118 881 180 q 1029 250 1027 174 q 1043 269 1029 269 q 1059 253 1059 269 q 1024 179 1059 224 q 946 110 989 135 q 986 77 956 100 l 993 72 q 1106 193 1064 125 q 1149 323 1149 261 m 989 742 q 798 772 892 772 q 461 654 607 772 q 315 380 315 535 q 461 174 315 234 q 446 257 446 216 q 652 536 446 420 q 929 652 706 567 q 989 742 951 690 m 917 628 q 844 591 892 616 q 507 204 507 421 q 513 158 507 184 q 568 154 554 154 q 667 168 613 154 q 646 245 646 208 q 707 397 646 326 q 864 498 768 467 q 917 628 880 551 m 860 484 q 729 380 779 448 q 679 240 679 313 q 692 176 679 210 q 843 258 775 203 q 835 332 835 300 q 860 484 835 399 m 922 111 q 846 245 865 175 q 699 164 776 193 q 840 92 739 92 q 922 111 880 92 m 982 64 q 932 103 947 85 q 831 79 879 79 q 675 157 734 79 q 570 140 616 140 q 517 144 549 140 q 614 34 544 76 q 771 -8 684 -8 q 982 64 875 -8 z "},"'":{"ha":446,"x_min":522,"x_max":665,"o":"m 665 860 q 635 775 665 833 q 534 566 557 627 l 522 566 q 572 779 543 638 q 639 893 595 893 q 665 860 665 893 z "},"(":{"ha":610,"x_min":382,"x_max":1186,"o":"m 1186 978 q 1161 968 1186 972 q 661 661 884 923 q 437 118 437 398 q 521 -96 437 -14 q 525 -103 525 -100 q 521 -107 524 -107 q 478 -66 513 -107 q 382 212 382 43 q 508 590 382 401 q 823 878 633 779 q 1010 949 894 914 q 1177 983 1126 983 q 1186 978 1186 983 z "},")":{"ha":610,"x_min":-135,"x_max":642,"o":"m 642 690 q 608 439 642 545 q 494 231 574 334 q 291 39 403 113 q 14 -83 178 -35 q -127 -118 -103 -118 q -135 -113 -135 -118 q -118 -104 -135 -107 q 367 211 149 -55 q 586 753 586 477 q 504 966 586 891 q 498 975 498 970 q 504 979 498 979 q 530 958 509 979 q 642 690 642 849 z "},"*":{"ha":386,"x_min":356,"x_max":684,"o":"m 682 713 q 635 676 676 682 q 582 686 626 675 q 525 688 562 690 q 555 646 534 669 q 599 597 574 629 q 596 553 609 572 q 567 553 583 534 q 542 624 558 562 q 519 684 532 657 q 493 627 504 654 q 468 551 486 597 q 422 524 450 524 q 410 551 401 524 q 471 629 413 562 q 514 688 501 665 q 453 673 481 684 q 386 653 427 664 q 364 657 372 652 q 358 672 356 663 q 400 705 366 703 q 457 697 416 707 q 513 693 485 691 q 485 729 500 711 q 441 781 465 748 q 444 825 430 804 q 473 829 456 842 q 500 755 486 818 q 519 696 506 730 q 545 758 528 714 q 574 833 562 814 q 615 861 591 861 q 632 833 638 861 q 574 755 627 812 q 526 694 535 715 q 611 718 539 696 q 654 729 632 725 q 675 726 667 732 q 682 713 684 721 z "},"+":{"ha":726,"x_min":245,"x_max":884,"o":"m 882 358 q 840 346 880 346 l 575 346 l 461 102 q 439 73 448 73 q 435 74 437 73 q 436 107 422 79 l 549 346 l 268 346 q 248 358 245 346 q 289 371 250 371 l 559 371 l 672 612 q 699 643 688 647 q 699 610 712 638 q 586 371 661 530 l 859 371 q 882 358 884 371 z "},",":{"ha":310,"x_min":61,"x_max":210,"o":"m 210 82 q 160 -18 210 36 q 109 -59 140 -39 q 65 -79 78 -79 q 61 -75 61 -79 q 66 -69 61 -71 q 118 -40 95 -59 q 140 -8 140 -22 q 134 -4 140 -4 q 103 25 103 -4 q 131 81 103 52 q 182 111 158 111 q 210 82 210 111 z "},"-":{"ha":497,"x_min":186,"x_max":497,"o":"m 497 184 q 441 159 497 176 q 357 142 386 142 q 300 149 330 142 q 248 157 264 157 q 193 143 219 157 q 189 142 192 142 q 186 144 186 142 q 238 171 186 153 q 315 189 291 189 q 374 179 330 189 q 428 171 411 171 q 488 184 460 171 q 494 187 492 187 q 497 184 497 187 z "},".":{"ha":310,"x_min":122,"x_max":236,"o":"m 236 79 q 208 21 236 49 q 151 -7 180 -7 q 122 24 122 -7 q 151 79 122 52 q 210 107 180 107 q 236 79 236 107 z "},"/":{"ha":734,"x_min":236,"x_max":986,"o":"m 986 1008 l 257 -140 l 236 -140 l 965 1008 l 986 1008 z "},":":{"ha":310,"x_min":122,"x_max":358,"o":"m 358 278 q 331 220 358 248 q 273 192 303 192 q 244 222 244 192 q 273 278 244 250 q 332 306 302 306 q 358 278 358 306 m 236 79 q 208 21 236 49 q 151 -7 180 -7 q 122 24 122 -7 q 151 79 122 52 q 210 107 180 107 q 236 79 236 107 z "},";":{"ha":310,"x_min":62,"x_max":345,"o":"m 345 283 q 317 225 345 253 q 260 197 289 197 q 231 227 231 197 q 259 283 231 256 q 318 311 288 311 q 345 283 345 311 m 211 82 q 161 -18 211 36 q 111 -59 142 -39 q 66 -79 79 -79 q 62 -75 62 -79 q 68 -69 62 -71 q 119 -40 96 -59 q 142 -8 142 -22 q 135 -4 142 -4 q 104 25 104 -4 q 132 81 104 52 q 183 111 159 111 q 211 82 211 111 z "},"<":{"ha":726,"x_min":249,"x_max":956,"o":"m 956 616 l 945 587 l 281 340 l 778 87 l 757 71 l 249 329 l 260 358 l 956 616 z "},"=":{"ha":726,"x_min":188,"x_max":909,"o":"m 907 414 q 865 401 904 401 l 293 401 q 272 414 270 401 q 314 427 275 427 l 884 427 q 907 414 909 427 m 825 289 q 783 277 823 277 l 211 277 q 191 289 188 277 q 232 301 193 301 l 802 301 q 825 289 827 301 z "},">":{"ha":726,"x_min":157,"x_max":864,"o":"m 864 361 l 852 332 l 157 74 l 168 103 l 832 350 l 335 603 l 355 619 l 864 361 z "},"?":{"ha":606,"x_min":210,"x_max":850,"o":"m 850 616 q 721 429 850 510 q 493 330 674 399 q 307 183 307 259 q 343 149 307 149 q 458 228 404 149 q 464 232 460 232 q 467 228 467 231 q 428 180 467 216 q 343 139 382 139 q 297 182 297 139 q 340 257 297 218 q 378 286 361 275 q 494 353 404 302 q 781 665 781 512 q 647 791 781 777 q 653 741 653 766 q 557 512 653 621 q 355 403 461 403 q 281 432 311 403 q 252 504 252 460 q 371 707 252 614 q 635 799 491 799 q 519 882 600 882 q 467 872 492 882 q 460 869 461 869 q 456 873 456 871 q 478 885 456 879 q 519 892 500 892 q 644 799 606 892 q 792 741 735 792 q 850 616 850 690 m 644 741 q 637 791 644 766 q 382 679 501 791 q 272 486 272 576 q 354 412 272 412 q 548 522 451 412 q 644 741 644 632 m 323 79 q 296 21 323 49 q 239 -7 268 -7 q 210 24 210 -7 q 239 79 210 52 q 297 107 268 107 q 323 79 323 107 z "},"@":{"ha":945,"x_min":228,"x_max":1137,"o":"m 1128 357 q 1039 218 1103 278 q 987 96 1034 151 q 629 -37 873 -37 q 361 35 472 -37 q 228 289 228 124 q 395 598 228 474 q 782 718 557 718 q 1041 624 938 718 q 1137 421 1137 536 q 1128 357 1137 388 m 1101 433 q 1017 624 1101 543 q 779 711 925 711 q 416 591 565 711 q 265 288 265 469 q 387 48 265 138 q 631 -29 492 -29 q 979 100 867 -29 q 1029 208 1020 147 q 821 123 930 123 q 797 124 811 123 q 697 221 697 137 q 720 300 697 258 q 615 172 651 205 q 546 139 579 139 q 485 170 509 139 q 461 248 461 201 q 644 478 461 377 q 775 522 726 522 q 817 482 817 522 q 811 452 817 470 l 846 517 q 882 513 867 513 q 929 517 900 513 l 810 318 q 747 180 747 214 q 808 131 747 136 q 924 158 863 125 q 1031 249 985 191 q 994 351 1028 311 q 985 364 983 363 q 999 357 988 368 q 1039 260 1032 323 q 1101 433 1101 345 m 807 479 q 777 513 807 513 q 613 390 714 513 q 511 193 511 268 q 550 149 511 149 q 713 304 597 149 q 807 479 807 431 z "},"A":{"ha":1261,"x_min":121,"x_max":1938,"o":"m 1211 689 q 1186 653 1211 682 q 1055 574 1117 574 q 991 601 1016 574 q 966 673 966 629 q 1011 796 966 711 q 1032 861 1032 836 q 995 919 1032 895 q 903 943 957 943 q 615 824 747 943 q 482 566 482 705 q 527 450 482 495 q 642 406 571 406 q 796 461 718 406 q 905 596 873 517 q 911 603 907 603 q 917 596 917 603 q 893 546 917 582 q 844 485 869 509 q 639 395 753 395 q 515 442 562 395 q 468 568 468 490 q 606 833 468 711 q 905 956 744 956 q 1017 920 977 956 q 1057 823 1057 885 q 1025 714 1057 777 q 996 636 996 656 q 1055 586 996 586 q 1196 686 1123 586 q 1206 694 1202 694 q 1211 689 1211 694 m 1938 812 q 1923 800 1938 800 q 1878 808 1917 800 q 1757 823 1805 823 q 1564 694 1648 790 q 1373 385 1480 599 q 953 -4 1209 56 q 1046 -12 1006 -12 q 1255 68 1171 -12 q 1392 232 1337 145 q 1401 241 1398 241 q 1406 239 1405 241 q 1328 134 1406 229 q 1196 11 1255 45 q 1050 -22 1136 -22 q 929 -8 1000 -22 q 829 -22 886 -22 q 790 -8 790 -22 q 843 8 790 8 q 929 1 880 8 q 1088 84 1034 26 q 1296 396 1142 142 l 1035 396 q 778 147 869 221 q 378 -25 566 -25 q 196 25 271 -25 q 121 147 121 75 q 143 211 121 184 q 199 237 166 237 q 243 195 243 237 q 228 156 243 172 q 192 140 212 140 q 160 171 160 140 l 161 184 q 163 192 163 187 q 157 199 163 199 q 143 182 150 199 q 136 147 136 165 q 206 35 136 81 q 378 -11 276 -11 q 699 132 524 -11 q 787 216 739 164 q 942 375 884 318 l 962 396 l 831 396 l 839 408 q 972 407 904 408 q 1358 730 1171 628 q 1753 833 1545 832 q 1843 843 1801 843 q 1938 812 1938 843 m 1723 821 q 1394 719 1546 812 q 1046 407 1243 626 l 1303 407 q 1512 678 1390 558 q 1723 821 1633 798 z "},"B":{"ha":1291,"x_min":158,"x_max":1687,"o":"m 1687 705 q 1678 628 1687 670 q 1659 586 1668 586 q 1653 593 1653 586 q 1654 599 1653 595 q 1672 701 1672 646 q 1622 839 1672 787 q 1487 890 1571 890 q 1257 817 1375 890 q 1352 652 1352 746 q 1146 472 1352 500 q 1315 256 1315 413 q 1216 52 1315 139 q 983 -36 1116 -36 q 882 -3 920 -36 q 844 86 844 30 q 924 258 844 173 q 1084 343 1004 343 q 1158 315 1129 343 q 1186 243 1186 287 q 1170 177 1186 216 q 1143 138 1154 138 q 1136 143 1136 138 q 1139 151 1136 146 q 1174 244 1174 203 q 1149 307 1174 283 q 1083 330 1124 330 q 933 250 1006 330 q 860 85 860 169 q 890 10 860 40 q 966 -20 921 -20 q 1157 81 1070 -20 q 1243 302 1243 182 q 1135 468 1243 415 l 1095 463 q 1063 461 1079 461 q 1011 478 1011 461 q 1054 490 1011 490 q 1135 478 1084 490 q 1246 554 1205 500 q 1287 679 1287 608 q 1235 802 1287 747 q 956 415 1086 688 q 808 172 875 248 q 623 40 743 100 q 370 -29 481 -29 q 218 13 279 -29 q 158 117 158 54 q 179 176 158 151 q 228 201 199 201 q 269 155 269 201 q 255 116 269 132 q 221 100 241 100 q 187 136 186 100 q 184 151 188 151 q 174 115 174 151 q 229 22 174 59 q 368 -16 284 -16 q 637 94 517 -16 q 728 194 690 142 q 905 457 767 245 q 1067 663 972 558 q 1225 811 1161 767 q 914 901 1118 901 q 416 694 628 901 q 243 375 243 525 q 292 254 243 299 q 424 210 340 210 q 706 340 560 210 q 851 595 851 471 q 750 693 851 693 q 533 581 649 693 q 418 370 418 469 q 434 328 418 345 q 472 310 450 310 q 484 304 484 308 q 471 298 484 298 q 416 328 438 298 q 393 400 393 357 q 509 605 393 505 q 747 705 625 705 q 864 597 864 705 q 715 332 864 466 q 422 197 567 197 q 272 254 328 197 q 215 406 215 311 q 432 756 215 597 q 911 914 648 914 q 1246 825 1108 914 q 1486 903 1370 903 q 1632 848 1577 903 q 1687 705 1687 794 z "},"C":{"ha":1107,"x_min":243,"x_max":1300,"o":"m 1300 753 q 1239 661 1300 709 q 1295 510 1295 579 q 1284 493 1295 493 q 1276 515 1276 493 q 1229 653 1276 583 q 961 527 1131 580 q 661 473 792 473 q 629 475 643 473 q 521 183 521 323 q 580 32 521 87 q 742 -24 640 -24 q 1086 161 935 -24 q 1178 374 1178 273 q 1146 458 1178 427 q 1061 489 1114 489 q 879 400 977 489 q 782 233 782 311 q 786 227 782 227 q 791 229 789 227 q 825 245 810 245 q 860 208 860 245 q 811 158 860 158 q 766 212 766 158 q 865 405 766 309 q 1064 500 963 500 q 1194 357 1194 500 q 1053 87 1194 209 q 739 -35 911 -35 q 537 46 619 -35 q 456 245 456 127 q 536 482 456 361 q 243 714 243 536 q 352 891 243 820 q 624 962 461 962 q 1083 811 851 962 q 1165 819 1123 819 q 1300 753 1300 819 m 1289 753 q 1181 808 1289 808 q 1100 799 1147 808 q 1234 669 1181 743 q 1289 753 1289 717 m 1223 663 q 1083 796 1171 738 q 836 677 956 762 q 637 485 715 593 q 951 537 779 485 q 1223 663 1123 589 m 1064 808 q 625 928 858 928 q 374 860 481 928 q 267 701 267 792 q 542 492 267 539 q 1064 808 713 730 z "},"D":{"ha":1177,"x_min":87,"x_max":1742,"o":"m 1742 697 q 1733 624 1742 663 q 1718 586 1725 586 q 1714 590 1714 586 q 1715 599 1714 595 q 1731 696 1731 640 q 1679 833 1731 781 q 1541 885 1627 885 q 1223 729 1377 885 q 1282 500 1282 621 q 1111 123 1282 277 q 694 -32 941 -32 q 486 -11 618 -32 q 267 -32 372 -32 q 87 4 87 -32 q 131 35 87 22 q 233 49 175 49 q 514 3 304 49 q 737 120 656 40 q 981 460 817 198 q 1198 730 1080 618 q 878 897 1099 897 q 457 717 648 897 q 303 516 361 626 q 245 314 245 406 q 292 197 245 241 q 415 153 338 153 q 684 292 545 153 q 823 561 823 432 q 796 640 823 610 q 725 669 769 669 q 675 653 675 669 q 682 648 675 648 q 689 650 686 648 l 699 650 q 732 619 732 650 q 715 580 732 597 q 675 564 698 564 q 633 608 633 564 q 661 661 633 639 q 726 682 688 682 q 807 649 776 682 q 838 564 838 616 q 695 283 838 427 q 415 140 552 140 q 260 203 321 140 q 199 364 199 266 q 407 742 199 575 q 878 909 615 909 q 1214 745 1101 909 q 1550 897 1379 897 q 1689 842 1636 897 q 1742 697 1742 787 m 1244 550 q 1208 713 1244 637 q 1044 450 1117 608 q 846 149 949 241 q 536 -3 741 54 q 720 -21 623 -21 q 1140 231 979 -21 q 1244 550 1244 393 m 463 -7 q 183 20 275 20 q 102 4 102 20 q 279 -20 102 -20 q 463 -7 381 -20 z "},"E":{"ha":1168,"x_min":215,"x_max":1440,"o":"m 1440 760 q 1357 714 1440 714 q 1044 775 1291 714 q 929 610 929 709 q 962 543 929 562 q 1035 547 1010 547 q 1105 530 1105 547 q 1068 519 1105 519 q 965 533 1021 519 q 790 475 890 522 q 536 160 536 353 q 675 -3 536 32 q 650 93 650 39 q 786 339 650 227 q 1084 452 922 452 q 1203 415 1159 452 q 1247 317 1247 378 q 1102 78 1247 184 q 775 -28 957 -28 q 707 -24 739 -28 q 900 -111 772 -111 q 1029 -87 979 -111 l 1038 -86 q 1042 -92 1042 -87 q 991 -112 1042 -101 q 900 -122 941 -122 q 684 -20 758 -122 q 521 59 580 3 q 463 187 463 114 q 544 371 463 286 q 761 501 625 457 q 949 541 843 528 q 873 642 873 572 q 983 790 873 730 q 724 828 826 828 q 381 728 523 828 q 240 485 240 627 q 277 376 240 421 q 367 330 315 330 q 403 342 403 330 q 390 346 403 348 q 354 379 354 346 q 370 412 354 398 q 408 425 386 425 q 452 383 452 425 q 427 336 452 355 q 367 317 402 317 q 259 373 304 317 q 215 510 215 430 q 319 730 215 630 q 668 850 444 850 q 1000 799 793 850 q 1218 844 1094 844 q 1375 820 1310 844 q 1440 760 1440 795 m 1426 761 q 1370 808 1426 787 q 1242 828 1314 828 q 1060 785 1142 828 q 1362 726 1240 726 q 1426 761 1426 726 m 1235 322 q 1196 403 1235 371 q 1099 435 1158 435 q 814 314 953 435 q 675 66 675 193 q 697 -8 675 30 q 770 -16 736 -16 q 1082 95 930 -16 q 1235 322 1235 206 z "},"F":{"ha":917,"x_min":81,"x_max":1723,"o":"m 1723 791 q 1656 735 1723 758 q 1496 711 1590 711 q 1197 749 1374 711 q 1039 625 1111 708 q 882 386 966 542 q 951 375 924 379 q 1060 463 989 463 q 1108 425 1108 463 q 1076 377 1108 395 q 991 358 1044 358 l 978 358 q 961 322 976 355 q 912 255 944 283 q 852 228 880 228 q 843 232 843 228 q 850 237 843 235 q 945 363 897 252 q 888 371 925 365 l 875 374 q 847 323 865 357 q 752 174 789 219 q 654 86 716 130 q 315 -29 490 -29 q 146 14 212 -29 q 81 125 81 57 q 101 183 81 159 q 149 207 121 207 q 193 161 193 207 q 179 125 193 140 q 146 110 165 110 q 113 142 113 110 q 109 158 115 158 q 96 122 96 158 q 155 25 96 65 q 298 -16 214 -16 q 536 63 431 -16 q 768 336 642 142 q 800 385 779 352 l 787 385 q 682 326 711 385 q 675 317 679 317 q 669 322 669 317 q 708 373 669 349 q 789 397 746 397 l 808 397 q 1181 753 986 666 q 1072 779 1128 764 q 790 827 890 827 q 751 825 770 827 q 781 699 781 769 q 665 420 781 551 q 418 289 549 289 q 328 324 362 289 q 293 415 293 359 q 426 674 293 543 q 724 840 559 806 q 566 917 672 917 q 250 747 391 917 q 237 736 239 736 q 232 741 233 736 q 289 806 232 753 q 561 928 420 928 q 742 843 686 928 q 909 861 814 861 q 1021 852 970 861 q 1265 796 1072 842 q 1549 854 1417 854 q 1675 837 1627 854 q 1723 791 1723 820 m 1710 790 q 1665 826 1710 811 q 1558 842 1621 842 q 1287 790 1411 842 l 1378 770 q 1588 743 1492 743 q 1673 758 1636 743 q 1710 790 1710 772 m 1096 424 q 1063 453 1096 453 q 987 383 1019 453 l 982 371 l 999 371 q 1068 386 1041 371 q 1096 424 1096 401 m 755 730 q 733 822 755 776 q 441 673 577 802 q 304 416 304 544 q 335 336 304 369 q 410 302 365 302 q 642 444 528 302 q 755 730 755 585 z "},"G":{"ha":1019,"x_min":74,"x_max":1265,"o":"m 1265 628 q 1213 549 1265 611 q 1107 441 1160 487 q 1036 314 1059 364 q 981 154 1014 263 q 879 -57 939 21 q 708 -196 818 -135 q 386 -283 551 -283 q 160 -208 246 -283 q 74 -8 74 -132 q 139 192 74 97 q 317 345 204 286 q 526 403 430 403 q 541 401 534 403 q 550 461 541 418 q 521 460 538 460 q 347 508 412 460 q 282 636 282 556 q 439 882 282 774 q 799 989 595 989 q 1063 908 960 989 q 1168 935 1134 935 q 1234 880 1234 935 q 1157 755 1234 830 q 1162 693 1162 718 q 1120 536 1162 620 q 1101 511 1107 511 q 1097 515 1098 511 q 1100 522 1098 519 q 1150 696 1150 605 q 1147 747 1150 724 q 895 573 1034 648 q 629 471 755 499 q 596 397 608 435 q 775 203 775 367 l 775 189 q 1107 457 910 226 q 1197 579 1151 526 q 1260 632 1243 632 q 1265 628 1264 632 m 1221 879 q 1169 924 1221 924 q 1075 897 1130 924 q 1154 768 1133 847 q 1221 879 1221 833 m 1145 760 q 1064 893 1127 840 q 823 718 943 833 q 636 484 703 603 q 896 587 757 512 q 1145 760 1034 662 m 1050 904 q 802 975 960 975 q 453 870 611 975 q 294 637 294 764 q 357 516 294 559 q 530 472 419 472 l 554 472 q 1050 904 633 732 m 764 186 q 724 319 768 267 q 595 386 679 372 q 585 317 585 351 q 624 220 585 256 q 726 183 663 183 q 764 186 746 183 m 1083 414 q 772 176 901 211 q 685 7 759 83 q 536 -69 612 -69 q 470 -45 496 -69 q 443 16 443 -20 q 468 83 443 53 q 525 113 494 113 q 572 69 572 113 q 557 34 572 50 q 522 18 541 18 q 486 50 486 18 q 489 65 486 55 q 490 75 490 71 q 486 79 490 79 q 466 57 476 79 q 456 16 456 35 q 479 -37 456 -16 q 536 -58 502 -58 q 679 17 606 -58 q 761 174 751 92 q 726 171 746 171 q 589 230 640 171 q 539 389 539 288 q 240 247 368 378 q 113 -49 113 115 q 185 -208 113 -147 q 376 -269 258 -269 q 667 -156 536 -269 q 971 245 798 -43 q 1083 414 1024 335 z "},"H":{"ha":1198,"x_min":121,"x_max":1896,"o":"m 1896 729 q 1765 547 1896 621 q 1687 515 1708 515 q 1682 521 1682 515 q 1702 532 1682 524 q 1826 617 1777 562 q 1874 730 1874 672 q 1836 819 1874 785 q 1739 852 1799 852 q 1392 629 1545 852 q 1231 332 1365 591 q 888 -11 1085 53 q 981 -18 947 -18 q 1190 62 1104 -18 q 1325 224 1265 132 q 1336 233 1333 233 q 1339 231 1339 233 q 1275 142 1339 224 q 1137 8 1200 45 q 983 -28 1074 -28 q 861 -18 927 -28 q 770 -32 811 -32 q 734 -17 734 -32 q 790 0 734 0 q 868 -8 821 0 q 1004 89 958 31 q 1154 350 1055 151 l 1165 372 l 901 372 q 791 197 838 254 q 665 86 744 140 q 332 -32 492 -32 q 179 8 238 -32 q 121 111 121 47 q 141 169 121 144 q 189 193 161 193 q 233 149 233 193 q 220 111 233 127 q 186 96 206 96 q 154 127 154 96 q 150 144 156 144 q 138 109 138 144 q 190 17 138 53 q 323 -18 242 -18 q 574 67 467 -18 q 818 372 682 152 l 610 372 l 615 386 l 827 386 q 854 429 835 399 q 1122 751 997 660 q 1193 794 1149 771 q 1247 817 1237 817 q 1251 811 1251 815 q 1238 802 1251 807 q 1088 685 1154 768 q 908 386 1023 602 l 1173 386 q 1448 738 1299 612 q 1739 864 1597 864 q 1852 826 1809 864 q 1896 729 1896 789 m 1017 713 q 977 656 1017 699 q 863 591 917 591 q 798 619 824 591 q 772 686 772 646 q 800 779 772 724 q 835 875 835 848 q 802 930 835 909 q 717 951 770 951 q 433 830 566 951 q 300 570 300 708 q 343 453 300 498 q 456 408 387 408 q 681 532 589 408 q 685 536 682 536 q 690 530 690 536 q 647 478 690 516 q 453 397 557 397 q 334 445 380 397 q 288 568 288 492 q 424 839 288 715 q 721 962 559 962 q 863 838 863 962 q 833 735 863 795 q 804 656 804 675 q 860 604 804 604 q 937 636 894 604 q 1004 711 981 668 q 1011 718 1008 718 q 1017 713 1017 718 z "},"I":{"ha":886,"x_min":96,"x_max":1413,"o":"m 1413 897 q 1357 861 1413 886 q 1229 817 1301 836 q 895 386 1060 696 l 884 366 q 903 364 892 364 q 1055 415 985 364 q 1140 538 1125 466 q 1147 549 1143 549 q 1152 543 1152 549 q 1107 449 1152 502 q 900 353 1027 353 q 876 354 888 353 l 857 317 q 770 176 808 222 q 673 89 734 132 q 325 -32 503 -32 q 160 10 225 -32 q 96 118 96 52 q 116 178 96 153 q 164 203 136 203 q 208 157 208 203 q 194 119 208 134 q 158 103 179 103 q 126 134 126 103 l 126 147 q 122 154 126 153 q 110 119 110 154 q 167 21 110 61 q 309 -18 224 -18 q 676 186 513 -18 q 806 372 724 246 q 690 534 690 422 q 843 736 690 670 q 1086 798 920 770 l 1161 810 l 1225 823 q 1320 877 1261 850 q 1401 904 1379 904 q 1413 897 1413 904 m 1208 811 q 1162 800 1193 808 q 1089 782 1137 793 q 826 666 924 743 q 728 501 728 590 q 811 380 728 416 q 1208 811 991 667 z "},"J":{"ha":782,"x_min":-92,"x_max":1304,"o":"m 1304 940 q 1250 905 1304 930 q 1126 861 1194 880 q 929 650 1010 764 q 751 325 849 535 l 768 325 q 961 410 883 325 q 1015 521 1000 452 q 1023 532 1018 532 q 1029 525 1029 532 q 946 381 1029 449 q 770 314 863 314 q 746 315 755 314 q 705 232 742 307 q 563 -16 621 59 q 412 -149 505 -90 q 111 -241 265 -241 q -35 -201 22 -241 q -92 -100 -92 -161 q -72 -42 -92 -66 q -25 -18 -53 -18 q 20 -64 20 -18 q -29 -118 20 -118 q -66 -74 -64 -118 q -68 -69 -66 -71 q -79 -102 -79 -69 q -25 -192 -79 -155 q 110 -228 28 -228 q 410 -86 283 -228 q 505 47 459 -31 q 653 310 578 178 l 664 329 q 555 403 595 350 q 514 525 514 456 q 615 729 514 647 q 735 796 675 777 q 954 835 796 815 q 1120 867 1023 843 q 1295 947 1246 947 q 1304 940 1304 947 m 1107 856 q 982 827 1061 844 q 788 770 854 798 q 667 696 722 743 q 550 486 550 596 q 669 339 550 379 q 1107 856 873 707 z "},"K":{"ha":1223,"x_min":121,"x_max":1910,"o":"m 1910 751 q 1754 557 1910 631 q 1697 536 1710 536 q 1691 541 1691 536 q 1697 547 1691 546 q 1834 628 1780 570 q 1889 750 1889 686 q 1850 838 1889 804 q 1750 872 1812 872 q 1595 826 1670 872 q 1414 665 1520 781 q 1063 449 1229 465 q 1125 323 1125 413 q 1092 154 1125 282 q 1076 69 1076 96 q 1106 -11 1076 20 q 1185 -41 1137 -41 q 1260 -16 1227 -41 q 1271 -8 1268 -8 q 1275 -12 1275 -8 q 1242 -40 1275 -25 q 1181 -54 1208 -54 q 1066 2 1114 -54 q 1018 136 1018 59 q 1057 298 1018 186 q 1076 386 1076 355 q 1050 449 1076 424 q 1008 446 1025 446 q 958 458 958 446 q 986 468 958 468 q 1047 456 1014 468 q 1173 507 1116 468 q 1335 653 1228 545 q 1556 832 1459 778 q 1753 886 1654 886 q 1865 848 1821 886 q 1910 751 1910 810 m 1018 713 q 978 656 1018 698 q 863 591 917 591 q 798 619 824 591 q 772 686 772 646 q 802 779 772 722 q 836 875 836 848 q 803 930 836 909 q 717 951 770 951 q 433 830 566 951 q 300 570 300 708 q 343 453 300 498 q 456 408 387 408 q 581 443 517 408 q 682 533 644 478 q 686 536 685 536 q 692 530 692 536 q 648 478 692 517 q 454 397 559 397 q 334 445 380 397 q 288 568 288 492 q 424 839 288 715 q 722 962 560 962 q 864 838 864 962 q 819 705 864 794 q 804 656 804 675 q 860 604 804 604 q 945 642 901 604 q 1007 714 982 672 q 1013 718 1010 718 q 1018 713 1018 718 m 1253 811 q 1239 802 1253 807 q 1086 680 1152 765 q 893 354 1021 595 q 777 180 833 241 q 627 61 720 118 q 334 -33 471 -33 q 180 6 239 -33 q 121 109 121 45 q 141 168 121 144 q 192 192 161 192 q 236 147 236 192 q 222 110 236 125 q 187 94 208 94 q 154 131 154 94 q 149 144 154 144 q 138 107 138 144 q 191 16 138 51 q 329 -20 243 -20 q 600 89 477 -20 q 703 198 663 144 q 854 429 743 252 q 1124 751 998 659 q 1193 793 1148 770 q 1247 817 1238 817 q 1253 811 1253 817 z "},"L":{"ha":1054,"x_min":121,"x_max":1440,"o":"m 1440 857 q 1322 672 1440 809 q 1092 453 1204 535 q 917 182 1007 267 q 673 57 827 96 q 997 -27 943 -15 q 1099 -39 1050 -39 q 1226 12 1169 -39 q 1234 16 1232 16 q 1238 12 1237 14 q 1202 -24 1238 1 q 1008 -69 1135 -69 q 829 -52 916 -69 q 567 22 743 -34 q 334 0 454 0 q 121 65 121 0 q 283 126 121 126 q 660 61 410 126 q 792 148 734 90 q 939 338 850 205 q 561 161 736 161 q 371 232 441 161 q 300 422 300 302 q 474 771 300 606 q 842 936 648 936 q 984 890 931 936 q 1038 765 1038 844 q 907 477 1038 626 q 656 329 777 329 q 569 361 604 329 q 533 441 533 394 q 556 505 533 478 q 610 532 578 532 q 652 490 652 532 q 635 451 652 468 q 599 433 619 433 q 567 464 566 433 q 562 484 568 484 q 547 441 547 484 q 579 370 547 399 q 660 342 612 342 q 898 488 772 342 q 1025 764 1025 634 q 977 879 1025 833 q 854 924 929 924 q 510 744 675 924 q 346 370 346 564 q 405 226 346 278 q 566 174 463 174 q 741 217 654 174 q 956 368 828 260 q 1110 616 1062 547 q 1221 750 1156 682 q 1413 882 1346 882 q 1440 857 1440 882 m 1429 857 q 1413 872 1429 872 q 1275 770 1362 872 q 1101 473 1197 678 q 1323 691 1217 568 q 1429 857 1429 815 m 545 29 q 221 104 307 104 q 132 65 132 104 q 340 12 132 12 q 545 29 453 12 z "},"M":{"ha":1358,"x_min":121,"x_max":2089,"o":"m 1763 861 q 1744 848 1763 858 q 1605 727 1665 806 q 1467 484 1544 648 q 1266 140 1354 245 q 1047 -9 1177 36 q 1140 -18 1107 -18 q 1307 26 1244 -18 q 1485 225 1370 71 q 1496 235 1492 235 q 1499 231 1499 234 q 1435 143 1499 224 q 1296 8 1357 44 q 1145 -28 1234 -28 q 1025 -16 1089 -28 q 932 -31 979 -31 q 896 -17 896 -31 q 946 0 896 0 q 1019 -7 974 0 l 1028 -7 q 1150 75 1100 19 q 1270 264 1200 131 q 1494 645 1411 533 q 1686 828 1574 752 q 1758 865 1742 865 q 1763 861 1763 865 m 2089 677 q 2083 626 2089 651 q 2071 602 2077 602 q 2066 606 2066 602 q 2068 611 2067 608 q 2078 675 2078 635 q 2006 828 2078 765 q 1830 890 1934 890 q 1487 726 1663 890 q 1368 601 1418 662 q 1179 357 1320 543 q 839 14 972 82 q 762 -17 779 -17 q 758 -12 758 -17 q 772 -1 759 -12 q 878 132 839 48 q 1010 494 915 208 q 1194 844 1090 739 q 1198 851 1198 848 q 1158 822 1190 854 q 921 461 1057 722 q 773 219 837 301 q 623 74 710 136 q 334 -29 479 -29 q 180 11 239 -29 q 121 113 121 50 q 141 172 121 148 q 192 196 161 196 q 236 153 236 196 q 222 114 236 130 q 187 98 208 98 q 154 135 154 98 q 149 149 154 149 q 138 111 138 149 q 193 20 138 56 q 335 -16 248 -16 q 682 168 512 -16 q 798 312 751 242 q 987 618 846 382 q 1122 799 1047 718 q 1229 880 1197 880 q 1234 876 1234 880 q 1231 871 1233 873 q 1117 610 1168 802 q 974 200 1041 328 q 803 11 907 75 q 800 8 800 10 q 803 7 801 7 q 879 50 819 7 q 1014 174 952 102 q 1238 468 1076 245 q 1420 698 1352 625 q 1569 827 1487 771 q 1828 913 1697 913 q 2015 846 1942 913 q 2089 677 2089 780 m 1014 715 q 975 657 1014 701 q 863 591 917 591 q 800 619 825 591 q 774 686 774 646 q 802 779 774 725 q 836 875 836 847 q 804 930 836 909 q 718 951 771 951 q 434 829 567 951 q 301 570 301 707 q 345 453 301 498 q 457 408 389 408 q 581 443 518 408 q 682 533 644 478 q 686 536 685 536 q 692 530 692 536 q 648 478 692 517 q 454 397 559 397 q 335 445 381 397 q 289 568 289 492 q 425 839 289 715 q 722 962 561 962 q 826 929 789 962 q 864 838 864 896 q 821 705 864 794 q 806 656 806 674 q 861 604 806 604 q 936 636 895 604 q 1002 714 977 668 q 1008 721 1005 721 q 1014 715 1014 721 z "},"N":{"ha":1210,"x_min":121,"x_max":2100,"o":"m 2100 668 q 2087 611 2100 611 q 2082 615 2082 611 q 2085 639 2082 623 q 2087 664 2087 655 q 2021 818 2087 758 q 1851 878 1954 878 q 1440 612 1647 878 q 1187 214 1375 530 q 1076 51 1133 122 q 1000 -21 1019 -21 q 990 -11 990 -21 q 1021 17 990 2 q 1080 155 1080 45 q 1078 225 1080 176 q 1071 433 1071 346 q 1099 673 1071 579 q 1193 839 1127 767 q 1196 844 1194 841 q 1103 758 1175 847 q 1035 661 1065 711 q 878 382 1004 611 q 625 79 769 186 q 323 -28 480 -28 q 178 12 235 -28 q 121 113 121 51 q 141 172 121 148 q 192 196 161 196 q 236 153 236 196 q 222 114 236 130 q 187 98 208 98 q 154 135 154 98 q 149 149 154 149 q 138 111 138 149 q 191 20 138 56 q 326 -16 244 -16 q 618 103 484 -16 q 926 514 753 222 q 1153 827 1068 752 q 1227 878 1211 878 q 1231 875 1230 877 q 1222 863 1231 873 q 1168 740 1179 805 q 1153 464 1157 675 q 1089 94 1147 205 q 1088 92 1088 94 l 1089 90 q 1295 431 1101 90 q 1567 790 1436 680 q 1850 901 1698 901 q 2029 835 1959 901 q 2100 668 2100 769 m 1014 715 q 975 657 1014 701 q 863 591 917 591 q 800 619 825 591 q 774 686 774 646 q 802 779 774 725 q 836 875 836 847 q 804 930 836 909 q 718 951 771 951 q 434 829 567 951 q 301 570 301 707 q 345 453 301 498 q 457 408 389 408 q 581 443 518 408 q 682 533 644 478 q 686 536 685 536 q 692 530 692 536 q 648 478 692 517 q 454 397 559 397 q 335 445 381 397 q 289 568 289 492 q 425 839 289 715 q 722 962 561 962 q 826 929 789 962 q 864 838 864 896 q 821 705 864 794 q 806 656 806 674 q 861 604 806 604 q 936 636 895 604 q 1002 714 977 668 q 1008 721 1005 721 q 1014 715 1014 721 z "},"O":{"ha":1101,"x_min":339,"x_max":1260,"o":"m 1260 542 q 1202 331 1260 438 q 1040 136 1143 223 q 828 3 941 52 q 619 -46 714 -46 q 417 39 494 -46 q 339 260 339 123 q 416 514 339 385 q 625 737 494 644 q 836 847 719 805 q 1047 889 953 889 q 1197 844 1141 889 q 1253 722 1253 798 q 1242 648 1253 691 q 1260 542 1260 595 m 1242 721 q 1194 831 1242 789 q 1067 873 1145 873 q 751 770 911 873 q 501 514 599 670 q 399 195 399 353 q 458 31 399 94 q 611 -32 517 -32 q 993 163 801 -32 q 1206 572 1185 359 q 1123 476 1183 532 q 1043 421 1064 421 q 1038 427 1038 421 q 1048 436 1038 430 q 1207 597 1158 497 q 1158 732 1207 682 q 1023 782 1108 782 q 700 614 866 782 q 534 286 534 446 q 564 183 534 222 q 643 143 594 143 q 690 157 666 143 q 714 183 714 170 q 711 187 713 187 q 705 184 711 187 q 679 176 697 176 q 647 214 647 176 q 663 252 647 237 q 700 268 678 268 q 743 220 743 268 q 712 157 743 184 q 640 131 682 131 q 543 179 582 131 q 504 298 504 227 q 676 628 504 464 q 1022 793 849 793 q 1154 758 1096 793 q 1234 667 1213 723 q 1242 721 1242 694 z "},"P":{"ha":1068,"x_min":158,"x_max":1687,"o":"m 1687 705 q 1678 628 1687 670 q 1659 586 1668 586 q 1653 593 1653 586 q 1654 599 1653 595 q 1672 701 1672 646 q 1622 839 1672 787 q 1487 890 1571 890 q 1255 817 1375 890 q 1357 632 1357 735 q 1287 481 1357 545 q 1124 416 1217 416 q 1045 431 1087 416 q 1003 458 1003 446 q 1008 463 1004 463 q 1019 458 1012 463 q 1104 435 1061 435 q 1237 501 1181 435 q 1292 660 1292 568 q 1235 802 1292 739 q 956 415 1088 692 q 809 174 876 248 q 623 40 743 100 q 370 -29 481 -29 q 218 13 279 -29 q 158 117 158 54 q 179 176 158 151 q 228 201 199 201 q 269 155 269 201 q 255 116 269 132 q 221 100 241 100 q 187 136 186 100 q 184 151 188 151 q 174 115 174 151 q 229 22 174 59 q 368 -16 284 -16 q 637 94 517 -16 q 728 193 690 142 q 905 456 768 247 q 1067 663 974 559 q 1225 811 1160 766 q 914 901 1119 901 q 416 694 628 901 q 243 375 243 525 q 292 254 243 299 q 424 210 340 210 q 706 340 560 210 q 851 595 851 471 q 750 693 851 693 q 533 580 649 693 q 418 368 418 467 q 434 326 418 344 q 472 309 450 309 q 484 302 484 309 q 471 297 484 297 q 416 327 438 297 q 393 399 393 356 q 509 605 393 505 q 747 705 625 705 q 864 597 864 705 q 715 332 864 466 q 422 197 567 197 q 272 254 328 197 q 215 406 215 311 q 432 756 215 597 q 911 914 648 914 q 1246 825 1110 914 q 1486 903 1370 903 q 1632 848 1577 903 q 1687 705 1687 794 z "},"Q":{"ha":975,"x_min":106,"x_max":1160,"o":"m 1160 625 q 1096 399 1160 513 q 922 197 1033 285 q 603 39 794 96 q 888 -43 825 -28 q 989 -58 947 -58 q 1101 -12 1051 -58 q 1107 -9 1103 -11 q 1111 -16 1111 -12 q 1078 -47 1111 -26 q 909 -85 1019 -85 q 742 -72 807 -85 q 511 5 654 -54 l 494 12 q 300 -8 405 -8 q 106 54 106 -8 q 256 107 106 107 q 586 45 385 107 q 950 296 804 114 q 1096 679 1096 479 q 1042 842 1096 783 q 890 900 987 900 q 502 713 691 900 q 313 329 313 527 q 361 198 313 245 q 493 150 409 150 q 803 317 667 150 q 917 587 917 456 q 889 677 917 642 q 817 713 861 713 q 770 700 795 713 q 745 675 745 686 q 749 672 745 672 q 760 677 749 672 q 778 682 766 682 q 811 646 811 682 q 796 608 811 624 q 760 591 781 591 q 717 637 717 591 q 746 700 717 674 q 815 725 774 725 q 911 675 873 725 q 949 549 949 626 q 808 265 949 393 q 496 138 668 138 q 324 202 387 138 q 261 375 261 266 q 496 772 261 603 q 892 914 692 914 q 1085 834 1011 914 q 1160 625 1160 754 m 475 20 q 197 86 270 86 q 118 54 118 86 q 301 4 118 4 q 475 20 408 4 z "},"R":{"ha":1284,"x_min":158,"x_max":1687,"o":"m 1687 705 q 1678 628 1687 670 q 1659 586 1668 586 q 1653 593 1653 586 q 1654 599 1653 595 q 1672 701 1672 646 q 1622 839 1672 787 q 1487 890 1571 890 q 1255 817 1373 890 q 1356 643 1356 736 q 1292 508 1356 564 q 1125 439 1229 452 q 1196 321 1196 398 q 1160 164 1196 269 q 1136 56 1136 95 q 1165 -13 1136 15 q 1236 -41 1194 -41 q 1318 -12 1280 -41 q 1331 -7 1327 -7 q 1336 -12 1336 -7 q 1298 -39 1336 -24 q 1232 -54 1260 -54 q 1123 -2 1167 -54 q 1079 126 1079 50 q 1128 322 1079 182 q 1140 383 1140 358 q 1114 437 1140 415 q 1064 433 1070 433 q 997 450 997 433 q 1031 461 997 461 q 1111 446 1071 461 q 1243 520 1192 458 q 1295 667 1295 583 q 1243 794 1295 733 l 1236 803 q 956 415 1088 692 q 809 174 876 248 q 623 40 743 100 q 370 -29 481 -29 q 218 13 279 -29 q 158 117 158 54 q 179 176 158 151 q 228 201 199 201 q 269 155 269 201 q 255 116 269 132 q 221 100 241 100 q 187 136 186 100 q 184 151 188 151 q 174 115 174 151 q 229 22 174 59 q 368 -16 284 -16 q 637 94 517 -16 q 728 193 690 142 q 905 456 768 247 q 1067 663 974 559 q 1225 811 1160 766 q 914 901 1119 901 q 416 694 628 901 q 243 375 243 525 q 292 254 243 299 q 424 210 340 210 q 706 340 560 210 q 851 595 851 471 q 750 693 851 693 q 533 580 649 693 q 418 368 418 467 q 434 326 418 344 q 472 309 450 309 q 484 302 484 309 q 471 297 484 297 q 416 327 438 297 q 393 399 393 356 q 509 605 393 505 q 747 705 625 705 q 864 597 864 705 q 715 332 864 466 q 422 197 567 197 q 272 254 328 197 q 215 406 215 311 q 432 756 215 597 q 911 914 648 914 q 1246 825 1110 914 q 1486 903 1370 903 q 1632 848 1577 903 q 1687 705 1687 794 z "},"S":{"ha":982,"x_min":183,"x_max":1381,"o":"m 1381 886 q 1315 792 1381 854 q 1156 675 1250 731 q 1120 534 1143 636 q 1050 308 1082 375 q 945 172 1018 241 q 471 -28 733 -28 q 338 -3 395 -28 q 306 -111 306 -65 q 345 -218 306 -170 q 349 -228 349 -222 q 342 -233 349 -233 q 308 -191 326 -233 q 290 -113 290 -149 q 325 4 290 -60 q 183 256 183 77 q 251 484 183 370 q 441 688 319 597 q 751 803 598 803 q 884 756 835 803 q 933 629 933 709 q 921 541 933 587 q 1097 653 1021 607 q 1220 836 1146 760 q 1349 913 1294 913 q 1381 886 1381 913 m 1368 885 q 1349 901 1368 901 q 1247 839 1303 901 q 1161 692 1192 776 q 1309 802 1251 747 q 1368 885 1368 857 m 897 510 l 852 479 q 484 186 597 303 q 545 171 512 171 q 743 271 640 171 q 897 510 847 370 m 1089 635 q 916 521 1010 585 q 759 269 871 377 q 543 160 646 160 q 475 176 512 160 q 345 9 398 97 q 471 -16 400 -16 q 718 57 598 -16 q 922 257 837 129 q 985 368 962 317 q 1060 561 1008 419 q 1089 635 1072 596 m 921 632 q 876 747 921 703 q 757 790 831 790 q 404 600 574 790 q 233 207 233 410 q 332 17 233 73 q 464 183 378 93 q 419 275 419 222 q 445 345 419 316 q 507 374 471 374 q 553 332 553 374 q 536 294 553 310 q 496 278 519 278 q 463 310 463 278 q 469 332 463 320 q 472 342 472 340 q 468 346 472 346 q 444 321 456 346 q 432 273 432 297 q 473 193 432 229 q 904 529 610 337 q 921 632 921 589 z "},"T":{"ha":815,"x_min":106,"x_max":1716,"o":"m 1716 832 q 1643 770 1716 795 q 1464 745 1570 745 q 1200 774 1358 745 q 1047 645 1116 730 q 899 404 978 560 q 782 196 819 248 q 681 96 745 144 q 328 -31 511 -31 q 168 11 230 -31 q 106 118 106 52 q 125 175 106 151 q 172 199 145 199 q 216 153 216 199 q 203 115 216 131 q 170 100 189 100 q 138 131 138 100 q 132 147 138 147 q 121 114 121 147 q 177 21 121 59 q 317 -17 234 -17 q 643 147 498 -17 q 818 400 711 224 q 1183 777 993 686 q 1074 799 1147 783 q 810 836 901 836 q 753 833 800 836 q 785 697 785 774 q 671 417 785 548 q 429 286 558 286 q 342 322 376 286 q 309 414 309 357 q 367 585 309 491 q 519 749 426 679 q 724 847 612 819 q 571 920 670 920 q 402 871 488 920 q 253 739 317 823 q 240 726 243 726 q 235 730 236 726 q 290 798 235 742 q 570 930 424 930 q 742 851 683 930 q 930 875 824 875 q 1031 868 985 875 q 1267 822 1079 861 q 1568 890 1423 890 q 1716 832 1716 890 m 1706 831 q 1667 864 1706 850 q 1571 878 1629 878 q 1289 817 1426 878 q 1379 800 1306 814 q 1572 779 1488 779 q 1666 794 1627 779 q 1706 831 1706 810 m 758 730 q 733 831 758 785 q 450 674 581 806 q 319 415 319 543 q 350 333 319 366 q 424 300 380 300 q 648 441 538 300 q 758 730 758 583 z "},"U":{"ha":1251,"x_min":203,"x_max":1603,"o":"m 1603 839 q 1132 5 1132 193 q 1162 -70 1132 -41 q 1239 -100 1192 -100 q 1397 -14 1320 -100 q 1407 -7 1404 -7 q 1411 -12 1411 -7 q 1388 -40 1411 -20 q 1239 -111 1308 -111 q 1132 -61 1175 -111 q 1089 65 1089 -11 q 1223 408 1089 195 q 1202 379 1215 397 l 1169 335 q 933 66 1046 163 q 746 -31 821 -31 q 667 5 697 -31 q 637 98 637 40 q 670 221 637 160 q 818 432 703 281 q 970 650 938 589 q 1003 781 1003 711 q 955 883 1003 845 q 825 921 907 921 q 426 732 618 921 q 235 339 235 543 q 278 216 235 262 q 392 170 321 170 q 652 323 527 170 q 782 618 782 485 q 686 730 782 730 q 642 720 663 730 q 621 696 621 709 q 627 690 621 690 q 639 694 631 691 q 648 696 642 696 q 684 663 684 696 q 667 625 684 641 q 629 608 651 608 q 587 653 587 608 q 617 716 587 690 q 689 743 648 743 q 766 709 737 743 q 794 618 794 675 q 667 322 794 485 q 392 157 537 157 q 255 215 307 157 q 203 371 203 274 q 436 777 203 593 q 633 890 527 848 q 823 933 739 933 q 983 878 926 933 q 1040 724 1040 823 q 999 564 1040 640 q 793 271 958 488 q 699 135 721 176 q 676 57 676 94 q 697 2 676 24 q 749 -20 718 -20 q 1030 185 850 -20 q 1497 835 1210 390 q 1537 832 1533 832 q 1603 839 1563 832 z "},"V":{"ha":1040,"x_min":208,"x_max":2091,"o":"m 2091 965 q 2072 949 2091 949 l 2061 949 q 2000 953 2024 953 q 1588 800 1825 953 q 1394 650 1474 726 q 1107 336 1318 576 q 732 -39 858 53 q 659 -87 665 -87 q 654 -83 654 -87 q 669 -62 654 -83 q 875 306 789 93 q 961 661 961 519 q 775 890 961 890 q 606 840 702 890 q 432 710 511 790 q 295 515 347 623 q 244 314 244 408 q 290 181 244 230 q 412 132 335 132 q 705 325 563 132 q 807 571 807 463 q 783 649 807 620 q 718 677 759 677 q 672 667 695 677 q 650 646 650 656 q 654 642 650 642 l 660 642 q 681 644 679 644 q 711 611 711 644 q 695 575 711 590 q 657 559 679 559 q 615 603 615 559 q 646 664 615 638 q 718 690 676 690 q 791 658 764 690 q 819 574 819 626 q 688 282 819 441 q 411 121 553 121 q 265 183 321 121 q 208 345 208 245 q 397 717 208 533 q 779 901 587 901 q 965 822 894 901 q 1036 612 1036 742 q 958 321 1036 474 q 707 -33 880 169 q 700 -43 700 -41 l 701 -45 q 786 18 713 -45 q 903 132 842 66 q 1189 454 957 191 q 1430 700 1326 610 q 1664 864 1535 790 q 2036 985 1875 985 q 2091 965 2091 985 z "},"W":{"ha":1283,"x_min":208,"x_max":2350,"o":"m 2350 1028 q 2329 1011 2350 1011 l 2319 1011 q 2266 1014 2298 1014 q 1890 873 2110 1014 q 1680 709 1765 793 q 1385 371 1592 623 q 993 -37 1134 66 q 939 -72 946 -72 q 935 -69 935 -72 q 954 -49 935 -68 q 1132 292 1040 39 q 1262 621 1214 517 q 1364 794 1310 725 q 1377 812 1377 810 q 1367 807 1372 814 l 1360 800 l 1343 779 q 1136 510 1299 724 q 685 9 879 162 q 564 -72 581 -72 q 559 -68 560 -71 q 568 -58 559 -66 q 823 306 701 63 q 945 694 945 549 q 897 851 945 793 q 765 909 848 909 q 416 713 589 909 q 243 318 243 517 q 288 184 243 235 q 406 134 333 134 q 696 343 559 134 q 785 586 785 479 q 760 667 785 636 q 694 697 735 697 q 647 685 670 697 q 624 661 624 673 q 628 657 624 657 q 635 659 630 657 q 657 661 652 661 q 688 627 688 661 q 671 590 688 606 q 633 575 655 575 q 591 621 591 575 q 623 683 591 656 q 694 710 654 710 q 769 676 741 710 q 798 586 798 642 q 681 298 798 458 q 404 122 551 122 q 263 188 319 122 q 208 353 208 253 q 258 548 208 446 q 395 733 308 650 q 768 922 589 922 q 945 840 873 922 q 1017 636 1017 757 q 909 322 1017 507 q 650 4 802 137 q 635 -11 635 -9 q 637 -14 635 -14 q 772 104 659 -14 q 1208 633 934 272 q 1363 819 1287 737 q 1457 901 1439 901 q 1461 897 1461 901 q 1457 890 1461 895 q 1388 774 1414 833 q 1297 522 1358 707 q 1177 214 1231 320 q 1034 17 1120 105 q 1031 12 1032 14 q 1034 9 1031 10 q 1131 98 1045 9 q 1464 492 1190 160 q 1718 763 1606 663 q 1969 940 1830 862 q 2302 1047 2160 1047 q 2350 1028 2350 1047 z "},"X":{"ha":1394,"x_min":134,"x_max":1803,"o":"m 1803 800 q 1790 750 1803 777 q 1765 724 1777 724 q 1758 730 1758 724 q 1769 745 1758 733 q 1790 799 1790 765 q 1758 865 1790 839 q 1678 892 1727 892 q 1282 689 1525 892 q 1069 493 1182 606 l 1060 484 l 1054 471 l 1047 452 q 953 125 953 187 q 1082 -16 953 -16 q 1338 125 1201 -16 q 1475 376 1475 267 q 1444 456 1475 427 q 1362 486 1413 486 q 1237 445 1306 486 q 1112 339 1167 404 q 1097 326 1102 326 q 1093 330 1094 328 q 1126 371 1093 338 q 1367 498 1257 498 q 1458 459 1421 498 q 1496 363 1496 420 q 1354 103 1496 233 q 1072 -28 1213 -28 q 940 27 993 -28 q 888 165 888 83 q 945 385 888 260 q 889 329 930 372 q 576 51 711 137 q 322 -36 442 -36 q 187 3 240 -36 q 134 103 134 42 q 152 160 134 137 q 197 183 170 183 q 243 139 243 183 q 229 102 243 118 q 197 86 216 86 q 165 118 168 86 q 158 134 164 134 q 149 104 149 134 q 194 15 149 50 q 311 -21 240 -21 q 889 347 515 -21 q 954 411 907 366 q 1024 581 989 496 q 1064 760 1064 689 q 1024 867 1064 828 q 916 907 984 907 q 566 758 750 907 q 353 401 353 587 q 400 291 353 333 q 525 249 448 249 q 840 419 688 249 q 949 644 949 541 q 921 713 949 686 q 850 739 894 739 q 641 626 753 739 q 529 414 529 513 q 546 366 529 386 q 587 347 564 347 q 596 345 596 347 q 586 339 596 339 q 526 367 549 339 q 503 441 503 395 q 616 649 503 548 q 848 750 729 750 q 930 721 899 750 q 961 644 961 691 q 808 368 961 511 q 528 236 667 236 q 381 289 436 236 q 326 431 326 342 q 547 779 326 623 q 913 917 742 917 q 1062 862 1005 917 q 1120 718 1120 808 q 1069 510 1120 635 q 1221 660 1076 516 q 1457 846 1339 778 q 1661 914 1575 914 q 1763 882 1723 914 q 1803 800 1803 850 z "},"Y":{"ha":1293,"x_min":204,"x_max":1678,"o":"m 1678 754 q 1672 749 1677 752 q 1456 525 1555 666 q 1242 135 1360 387 q 966 -212 1140 -82 q 607 -342 791 -342 q 456 -299 515 -342 q 397 -191 397 -257 q 422 -122 397 -151 q 481 -94 446 -94 q 525 -136 525 -94 q 510 -175 525 -159 q 473 -192 494 -192 q 437 -158 437 -192 q 440 -143 437 -150 q 441 -135 441 -140 q 439 -131 441 -131 q 420 -150 429 -131 q 411 -191 411 -170 q 465 -291 411 -251 q 603 -330 519 -330 q 818 -269 715 -330 q 984 -125 920 -208 q 1177 191 1047 -44 q 1283 370 1221 271 q 1060 121 1133 189 q 836 -7 923 -7 q 751 32 784 -7 q 718 134 718 71 q 755 264 718 197 q 908 479 791 330 q 1059 790 1059 670 q 867 949 1059 949 q 439 754 653 949 q 291 564 351 674 q 232 370 232 454 q 279 240 232 288 q 406 192 326 192 q 675 325 547 192 q 829 621 829 485 q 802 698 829 669 q 730 728 775 728 q 522 605 631 728 q 412 372 412 483 q 481 301 412 301 l 484 301 q 490 297 490 301 q 473 292 490 292 q 412 323 436 292 q 389 404 389 354 q 500 630 389 520 q 729 739 612 739 q 811 707 781 739 q 842 621 842 675 q 717 351 842 499 q 407 179 571 179 q 260 241 315 179 q 204 404 204 302 q 416 777 204 606 q 644 910 522 861 q 867 960 766 960 q 1036 900 974 960 q 1097 734 1097 840 q 1059 572 1097 651 q 909 349 1021 493 q 787 179 813 223 q 761 92 761 134 q 842 7 761 7 q 1022 99 917 7 q 1299 410 1127 192 q 1655 754 1476 634 l 1664 760 q 1671 762 1670 762 q 1678 754 1678 762 z "},"Z":{"ha":907,"x_min":138,"x_max":1382,"o":"m 1382 847 q 1282 722 1382 811 q 1114 625 1201 650 q 1061 528 1107 614 q 877 289 981 372 q 612 167 774 205 q 794 107 726 161 q 863 -31 863 54 q 673 -326 863 -192 q 340 -453 496 -453 q 195 -412 253 -453 q 138 -310 138 -371 q 157 -252 138 -275 q 205 -228 176 -228 q 249 -272 249 -228 q 234 -311 249 -294 q 200 -328 220 -328 q 173 -317 185 -328 q 163 -294 161 -307 l 164 -285 l 164 -282 q 161 -279 163 -279 q 150 -313 150 -279 q 203 -403 150 -367 q 335 -439 256 -439 q 636 -297 486 -439 q 789 -18 789 -153 q 597 158 789 144 q 471 132 523 132 q 450 142 450 132 q 487 160 450 152 q 571 168 523 168 l 593 168 q 771 281 692 212 q 965 494 850 350 q 1072 624 1032 578 q 940 669 981 626 q 896 807 899 713 q 774 924 892 924 q 430 745 604 924 q 256 393 256 566 q 301 269 256 316 q 421 222 346 222 q 686 364 553 222 q 819 646 819 505 q 793 725 819 695 q 725 754 768 754 q 534 632 637 754 q 432 404 432 509 q 494 330 432 339 q 503 325 503 330 q 494 319 503 319 q 428 354 456 319 q 400 435 400 388 q 507 655 400 544 q 720 766 614 766 q 802 734 772 766 q 832 644 832 702 q 695 353 832 498 q 418 208 557 208 q 277 268 330 208 q 224 425 224 327 q 406 762 224 600 q 783 936 599 936 q 950 859 901 936 q 972 812 966 832 q 986 722 975 797 q 1079 633 999 631 q 1358 869 1284 869 q 1382 847 1382 869 m 1367 843 q 1353 856 1367 856 q 1256 794 1322 856 q 1122 642 1190 733 q 1325 781 1227 674 q 1367 843 1367 826 z "},"[":{"ha":610,"x_min":203,"x_max":1040,"o":"m 1040 971 q 949 951 1040 951 q 871 956 898 951 q 571 432 797 847 q 311 -86 370 64 q 393 -85 359 -83 q 467 -94 434 -86 q 493 -107 496 -102 q 484 -111 491 -111 q 451 -107 482 -111 q 389 -103 420 -103 q 203 -110 252 -103 q 505 439 275 12 q 786 981 662 728 q 933 968 832 970 q 1013 972 968 967 q 1040 971 1040 975 z "},"\\":{"ha":734,"x_min":578,"x_max":643,"o":"m 643 -140 l 625 -140 l 578 1008 l 596 1008 l 643 -140 z "},"]":{"ha":610,"x_min":125,"x_max":962,"o":"m 962 977 q 660 428 891 854 q 379 -114 503 139 q 232 -102 334 -104 q 153 -105 198 -100 q 125 -104 125 -109 q 216 -85 125 -85 q 294 -89 267 -85 q 595 435 369 20 q 854 953 795 803 q 772 951 806 950 q 699 961 732 953 q 672 974 670 968 q 682 978 674 978 q 714 974 684 978 q 777 970 745 970 q 962 977 914 970 z "},"^":{"ha":694,"x_min":275,"x_max":852,"o":"m 848 404 q 815 435 836 404 q 730 599 772 499 q 486 472 646 543 q 283 401 326 401 q 275 408 275 401 q 294 419 279 413 q 589 576 442 482 q 794 741 739 671 q 793 699 793 720 q 846 421 793 551 q 848 404 852 404 z "},"_":{"ha":694,"x_min":64,"x_max":758,"o":"m 758 -144 l 64 -144 l 64 -115 l 758 -115 l 758 -144 z "},"`":{"ha":694,"x_min":517,"x_max":607,"o":"m 607 433 q 603 431 606 431 q 558 481 586 431 q 517 587 531 531 l 575 628 q 564 562 564 595 q 602 441 564 492 q 607 433 606 437 z "},"a":{"ha":478,"x_min":71,"x_max":603,"o":"m 603 212 q 504 81 603 198 q 378 -16 424 -16 q 327 8 347 -16 q 307 66 307 31 q 329 146 307 103 q 225 18 261 51 q 155 -16 189 -16 q 95 15 119 -16 q 71 93 71 46 q 254 323 71 223 q 385 368 335 368 q 427 328 427 368 q 421 297 427 316 l 456 363 q 492 358 476 358 q 539 363 510 358 l 419 164 q 357 26 357 60 q 383 -5 357 -5 q 470 57 410 -5 q 591 210 530 119 q 599 216 595 216 q 603 212 603 216 m 416 325 q 386 358 416 358 q 222 236 323 358 q 121 39 121 114 q 160 -5 121 -5 q 322 150 207 -5 q 416 325 416 277 z "},"b":{"ha":366,"x_min":64,"x_max":490,"o":"m 490 685 l 186 204 q 292 335 257 302 q 359 368 328 368 q 421 337 397 368 q 446 260 446 307 q 315 58 446 157 q 143 -16 218 -16 q 86 11 108 -16 q 64 81 64 38 q 129 236 64 132 l 410 686 q 449 681 428 681 q 490 685 465 681 m 396 313 q 358 358 396 358 q 189 195 309 358 q 100 31 100 73 q 135 -5 100 -5 q 296 116 196 -5 q 396 313 396 238 z "},"c":{"ha":336,"x_min":74,"x_max":463,"o":"m 463 212 q 367 98 463 203 q 189 -16 262 -16 q 108 21 142 -16 q 74 107 74 57 q 120 225 74 164 q 244 330 166 286 q 351 368 310 368 q 401 309 401 368 q 370 215 401 262 q 307 168 338 168 q 277 199 277 168 q 339 265 277 235 q 387 328 387 289 q 354 358 387 358 q 216 246 298 358 q 134 58 134 134 q 193 -5 134 -5 q 447 205 287 -5 q 460 216 456 216 q 463 212 463 216 z "},"d":{"ha":478,"x_min":71,"x_max":742,"o":"m 742 686 q 421 170 488 282 q 354 25 354 55 q 382 -5 354 -5 q 591 210 444 -5 q 599 216 595 216 q 603 212 603 216 q 596 201 602 210 l 567 161 q 378 -16 439 -16 q 327 8 347 -16 q 307 68 307 31 q 332 153 307 104 q 155 -16 213 -16 q 95 15 119 -16 q 71 93 71 46 q 210 296 71 205 q 383 368 320 368 q 425 328 425 368 q 414 285 425 309 l 656 690 q 700 684 678 684 q 742 686 705 684 m 415 322 q 382 358 415 358 q 221 236 321 358 q 121 40 121 115 q 158 -5 121 -5 q 345 183 212 -5 q 415 322 415 285 z "},"e":{"ha":342,"x_min":74,"x_max":468,"o":"m 468 212 q 456 195 468 210 l 427 158 q 186 -16 286 -16 q 106 19 138 -16 q 74 104 74 53 q 244 319 74 227 q 390 368 334 368 q 432 354 414 368 q 449 318 449 339 q 385 235 449 269 q 172 171 321 201 q 126 54 126 101 q 189 -4 126 -4 q 452 205 296 -4 q 465 216 460 216 q 468 212 468 216 m 411 338 q 387 359 411 359 q 293 310 351 359 q 178 180 234 260 q 343 251 275 205 q 411 338 411 297 z "},"f":{"ha":184,"x_min":-422,"x_max":586,"o":"m 586 699 q 500 547 586 638 q 277 368 415 456 l 393 368 l 387 358 l 269 358 l 214 250 q 39 -51 111 50 q -129 -232 -34 -153 q -372 -340 -260 -340 q -422 -326 -422 -340 q -415 -319 -422 -319 q -407 -321 -410 -319 q -361 -328 -382 -328 q -176 -245 -269 -328 q -77 -127 -119 -195 q 90 168 -41 -73 l 195 358 l 122 358 l 127 368 l 201 368 q 393 623 288 515 q 555 730 498 730 q 586 699 586 730 m 578 700 q 555 722 578 722 q 415 604 504 722 q 282 382 371 545 q 486 558 393 459 q 578 700 578 657 z "},"g":{"ha":465,"x_min":-193,"x_max":590,"o":"m 590 212 q 517 119 590 201 q 304 -43 435 28 l 271 -104 q 64 -367 178 -275 q -126 -456 -46 -456 q -174 -438 -155 -456 q -193 -395 -193 -420 q 121 -113 -193 -256 q 208 -71 189 -81 l 323 142 q 217 13 248 42 q 154 -16 186 -16 q 94 16 119 -16 q 69 92 69 47 q 222 304 69 209 q 383 368 325 368 q 424 323 424 368 q 418 294 424 311 l 456 363 q 488 358 474 358 q 539 363 505 358 q 479 261 534 357 l 311 -29 q 453 68 400 21 q 574 203 507 115 q 587 216 584 216 q 590 212 590 216 m 416 323 q 383 358 416 358 q 221 236 322 358 q 121 40 121 115 q 160 -5 121 -5 q 296 115 200 -5 q 416 323 416 268 m 201 -82 q 125 -121 189 -90 q -184 -396 -184 -274 q -169 -431 -184 -417 q -129 -446 -153 -446 q 16 -369 -54 -446 q 193 -96 87 -293 q 201 -82 193 -96 z "},"h":{"ha":435,"x_min":-8,"x_max":559,"o":"m 559 214 q 553 201 559 208 l 524 161 q 334 -16 396 -16 q 280 8 301 -16 q 260 66 260 31 q 311 191 260 114 q 392 332 392 309 q 364 358 392 358 q 253 278 323 358 q 66 -12 185 201 q 32 -8 46 -8 q -8 -12 17 -8 l 92 168 q 154 282 112 207 q 292 515 176 319 l 395 690 q 429 686 415 686 q 481 693 456 686 q 271 354 410 580 q 165 179 267 347 q 367 368 293 368 q 417 343 396 368 q 437 282 437 318 q 378 147 437 235 q 311 24 311 49 q 340 -5 311 -5 q 515 165 393 -5 l 536 195 l 549 210 q 557 216 552 216 q 559 214 559 216 z "},"i":{"ha":233,"x_min":53,"x_max":358,"o":"m 349 493 q 329 449 349 469 q 285 428 309 428 q 254 458 254 428 q 275 502 254 481 q 319 522 296 522 q 349 493 349 522 m 358 212 q 351 201 357 210 l 322 161 q 127 -16 195 -16 q 74 7 96 -16 q 53 64 53 30 q 100 183 53 103 l 205 363 q 239 358 227 358 q 290 363 257 358 l 136 110 q 103 25 103 55 q 135 -5 103 -5 q 347 210 195 -5 q 354 216 351 216 q 358 212 358 216 z "},"j":{"ha":210,"x_min":-447,"x_max":355,"o":"m 355 492 q 335 449 355 469 q 292 429 315 429 q 264 458 264 429 q 284 500 264 480 q 326 521 304 521 q 355 492 355 521 m 336 214 q 261 119 336 203 q 50 -43 184 33 l 16 -103 q -192 -367 -90 -283 q -378 -456 -300 -456 q -447 -392 -447 -456 q -342 -232 -447 -314 q -244 -164 -284 -187 q -54 -74 -182 -129 l -45 -69 l 74 142 q 201 363 123 228 q 233 358 220 358 q 283 363 252 358 q 119 85 229 275 l 57 -29 q 200 68 144 20 q 319 203 255 117 q 334 216 328 216 q 336 214 336 216 m -50 -82 q -296 -216 -243 -180 q -437 -395 -437 -314 q -421 -431 -437 -416 q -380 -446 -405 -446 q -239 -366 -309 -446 q -58 -96 -180 -300 q -50 -82 -58 -96 z "},"k":{"ha":418,"x_min":-14,"x_max":545,"o":"m 486 693 q 469 665 481 684 q 416 581 452 637 q 364 493 399 551 l 248 304 q 149 134 189 210 q 75 1 103 48 l 66 -12 q 31 -8 48 -8 q -14 -12 16 -8 q 21 47 2 14 l 100 184 q 153 277 117 215 l 401 693 q 443 688 429 688 q 486 693 456 688 m 545 212 q 538 201 544 210 l 509 161 q 315 -16 380 -16 q 264 4 286 -16 q 241 49 241 24 q 279 146 241 71 l 280 149 q 293 186 293 174 q 271 214 293 201 q 228 203 245 203 q 204 216 204 203 q 227 228 204 228 q 267 221 248 228 q 375 322 300 236 q 457 368 415 368 q 509 319 509 368 q 483 255 509 287 q 431 222 456 222 q 401 249 401 222 q 446 301 401 273 q 464 334 464 313 q 443 350 464 350 q 370 298 414 350 q 278 218 313 234 q 349 143 349 186 q 315 52 349 119 q 301 12 301 23 q 323 -5 301 -5 q 532 210 387 -5 q 541 216 536 216 q 545 212 545 216 z "},"l":{"ha":222,"x_min":57,"x_max":482,"o":"m 482 693 q 150 136 197 219 q 103 25 103 52 q 129 -5 103 -5 q 338 210 186 -5 q 346 216 341 216 q 349 212 349 216 q 342 201 349 208 l 313 161 q 123 -16 184 -16 q 76 6 94 -16 q 57 62 57 28 q 74 135 57 100 q 192 336 92 170 q 399 690 315 541 q 435 685 419 685 q 482 693 460 685 z "},"m":{"ha":755,"x_min":85,"x_max":880,"o":"m 880 212 q 873 201 880 210 l 844 161 q 656 -16 717 -16 q 604 8 624 -16 q 583 69 583 32 q 609 151 583 107 q 659 224 614 159 q 715 330 715 305 q 688 358 715 358 q 380 -9 598 358 q 343 -7 367 -7 q 296 -9 315 -7 l 392 143 q 486 328 486 294 q 461 358 486 358 q 339 251 424 358 q 171 -9 254 144 q 131 -7 155 -7 q 85 -9 104 -7 l 182 143 q 282 338 282 300 q 267 358 282 358 q 129 212 233 358 q 118 203 122 203 q 115 207 115 203 q 178 292 115 213 q 272 368 239 368 q 309 348 294 368 q 325 298 325 327 q 285 189 325 259 q 467 368 407 368 q 513 345 495 368 q 532 288 532 322 q 496 189 532 249 q 689 368 625 368 q 738 343 718 368 q 758 282 758 318 q 725 184 758 240 q 667 97 724 183 q 633 22 633 48 q 661 -5 633 -5 q 836 165 714 -5 l 857 195 l 869 210 q 876 216 873 216 q 880 212 880 216 z "},"n":{"ha":543,"x_min":86,"x_max":669,"o":"m 669 212 q 571 81 669 198 q 444 -16 490 -16 q 393 8 414 -16 q 372 66 372 32 q 385 123 372 97 q 450 227 397 149 q 505 330 505 308 q 476 358 505 358 q 171 -9 377 358 q 131 -7 138 -7 q 86 -9 107 -7 l 192 158 q 282 338 282 302 q 265 358 282 358 q 129 212 231 358 q 119 203 123 203 q 115 207 116 203 q 118 212 116 210 l 131 229 q 271 368 235 368 q 310 347 294 368 q 326 297 326 326 q 275 176 326 254 q 398 328 355 287 q 478 368 441 368 q 528 344 508 368 q 549 283 549 319 q 486 144 549 238 q 422 22 422 49 q 450 -5 422 -5 q 659 210 511 -5 q 665 216 662 216 q 669 212 669 216 z "},"o":{"ha":403,"x_min":74,"x_max":528,"o":"m 528 214 q 488 163 528 203 q 378 103 428 103 q 340 111 357 103 q 172 -16 251 -16 q 103 18 132 -16 q 74 98 74 52 q 211 300 74 203 q 370 368 307 368 q 428 306 428 368 q 346 118 428 228 q 376 110 359 110 q 448 138 407 110 q 514 207 488 167 q 525 216 522 216 q 528 214 528 216 m 418 304 q 368 359 418 359 q 218 241 307 359 q 129 43 129 123 q 174 -4 129 -4 q 334 117 247 -4 q 314 161 314 138 q 340 230 314 195 q 392 265 367 265 q 407 252 403 265 q 418 304 418 275 z "},"p":{"ha":368,"x_min":-243,"x_max":449,"o":"m 449 260 q 311 58 449 149 q 136 -16 199 -16 q 93 25 93 -16 q 100 58 93 37 l -160 -375 q -199 -370 -184 -370 q -243 -378 -221 -370 l 314 538 q 350 532 332 532 q 395 538 368 532 l 193 212 q 299 338 266 309 q 364 368 332 368 q 425 337 400 368 q 449 260 449 306 m 399 314 q 359 358 399 358 q 193 199 310 358 q 103 29 103 75 q 135 -5 103 -5 q 298 116 197 -5 q 399 314 399 238 z "},"q":{"ha":401,"x_min":7,"x_max":536,"o":"m 536 364 q 318 4 472 256 q 127 -314 236 -133 q 93 -370 116 -332 q 50 -364 71 -364 q 7 -370 27 -364 l 325 140 q 298 106 322 136 q 153 -16 208 -16 q 93 16 117 -16 q 69 93 69 47 q 208 294 69 202 q 383 368 319 368 q 425 328 425 368 q 415 289 425 314 l 456 363 q 488 359 468 359 q 536 364 503 359 m 415 325 q 385 358 415 358 q 222 236 323 358 q 121 39 121 114 q 160 -5 121 -5 q 321 147 208 -5 q 415 325 415 275 z "},"r":{"ha":386,"x_min":86,"x_max":513,"o":"m 513 212 q 472 163 513 207 q 375 106 420 106 q 323 165 323 106 q 332 214 323 184 q 262 140 289 176 q 170 -9 235 103 q 127 -7 134 -7 q 86 -9 125 -7 l 197 171 q 281 339 281 307 q 265 358 281 358 q 127 212 227 358 q 117 203 121 203 q 114 207 114 203 q 117 212 115 210 l 129 229 q 271 368 233 368 q 325 298 325 368 q 269 160 325 246 q 336 227 304 201 q 400 328 362 287 q 469 368 439 368 q 490 350 490 368 q 396 257 490 317 q 351 229 381 248 l 343 222 q 334 171 334 191 q 376 114 334 114 q 492 201 429 114 q 509 216 505 216 q 513 212 513 216 z "},"s":{"ha":271,"x_min":20,"x_max":355,"o":"m 355 476 q 271 368 355 449 q 267 332 267 347 q 302 207 267 292 q 321 135 321 164 q 261 29 321 74 q 121 -16 202 -16 q 47 11 75 -16 q 20 81 20 37 q 56 180 20 132 q 131 228 92 228 q 143 225 138 228 l 197 292 q 262 372 222 321 q 298 454 274 420 q 345 488 321 488 q 355 476 355 488 m 261 208 q 260 249 261 229 q 258 306 258 269 q 261 357 258 336 q 151 221 223 309 q 164 195 164 210 q 98 140 164 155 q 53 112 72 134 q 33 64 33 89 q 53 18 33 37 q 102 0 73 0 q 210 66 159 0 q 261 208 261 132 z "},"t":{"ha":229,"x_min":53,"x_max":376,"o":"m 376 368 l 371 358 l 282 358 l 131 100 q 103 25 103 53 q 135 -5 103 -5 q 343 210 197 -5 q 351 216 348 216 q 355 212 355 216 q 349 201 355 210 l 319 161 q 127 -16 192 -16 q 74 7 96 -16 q 53 65 53 31 q 89 167 53 106 l 203 358 l 134 358 l 140 368 l 208 368 l 288 500 q 326 494 308 494 q 366 500 345 494 l 288 368 l 376 368 z "},"u":{"ha":435,"x_min":53,"x_max":561,"o":"m 561 212 q 463 81 561 197 q 334 -16 381 -16 q 283 8 304 -16 q 262 66 262 33 q 289 140 262 93 l 275 122 q 184 15 213 42 q 123 -16 152 -16 q 73 8 94 -16 q 53 65 53 31 q 83 155 53 104 l 207 363 q 243 358 230 358 q 289 363 256 358 l 127 97 q 103 25 103 56 q 129 -5 103 -5 q 349 250 197 -5 l 415 363 q 450 358 436 358 q 498 363 467 358 l 390 186 q 313 24 313 60 q 340 -5 313 -5 q 517 165 395 -5 l 538 195 l 550 210 q 557 216 553 216 q 561 212 561 216 z "},"v":{"ha":379,"x_min":53,"x_max":505,"o":"m 505 214 q 463 161 505 205 q 359 100 404 100 q 310 132 330 100 q 212 17 250 49 q 135 -16 174 -16 q 77 8 100 -16 q 53 66 53 33 q 98 183 53 106 l 205 363 q 250 359 239 359 q 290 363 275 359 l 149 134 q 102 26 102 56 q 138 -5 102 -5 q 206 25 171 -5 q 306 140 241 56 q 300 176 300 161 q 338 303 300 238 q 411 368 376 368 q 428 349 428 368 q 315 139 428 298 q 359 109 330 109 q 485 200 411 109 q 503 216 498 216 q 505 214 505 216 z "},"w":{"ha":589,"x_min":53,"x_max":715,"o":"m 715 214 q 672 161 715 206 q 570 100 614 100 q 519 132 540 100 q 421 17 459 49 q 345 -16 383 -16 q 287 8 310 -16 q 264 65 264 31 q 282 134 264 94 q 122 -16 180 -16 q 73 8 93 -16 q 53 65 53 32 q 93 172 53 104 l 205 363 q 245 358 233 358 q 290 363 257 358 l 136 111 q 100 25 100 52 q 127 -5 100 -5 q 219 62 158 -5 q 339 232 279 130 l 415 363 q 461 359 452 359 q 500 363 485 359 l 358 134 q 311 28 311 57 q 346 -5 311 -5 q 514 140 415 -5 q 510 178 510 165 q 548 303 510 238 q 621 368 585 368 q 636 347 636 368 q 525 139 636 290 q 570 109 542 109 q 694 200 621 109 q 713 216 708 216 q 715 214 715 216 z "},"x":{"ha":484,"x_min":64,"x_max":608,"o":"m 608 212 q 606 207 608 212 l 597 196 q 460 32 509 77 q 368 -16 409 -16 q 297 16 328 -16 q 267 89 267 47 q 277 140 267 107 q 115 -16 184 -16 q 79 1 94 -16 q 64 41 64 18 q 89 106 64 77 q 143 136 114 136 q 179 102 179 136 q 123 47 179 62 q 93 17 93 39 q 118 -4 93 -4 q 233 87 168 -4 q 336 317 336 232 q 298 358 336 358 q 134 218 234 358 q 118 203 122 203 q 115 207 115 204 q 182 294 115 219 q 302 368 250 368 q 370 340 343 368 q 396 271 396 313 q 386 225 396 250 q 547 368 479 368 q 599 313 599 368 q 576 251 599 279 q 528 222 554 222 q 494 257 494 222 q 543 304 494 290 q 574 336 574 313 q 546 358 574 358 q 406 242 488 358 q 323 46 323 126 q 372 -5 323 -5 q 590 201 443 -5 q 604 216 601 216 q 608 212 608 216 z "},"y":{"ha":428,"x_min":-233,"x_max":553,"o":"m 553 212 q 478 119 553 202 q 262 -45 395 28 l 229 -104 q 24 -367 131 -281 q -168 -456 -87 -456 q -215 -438 -196 -456 q -233 -395 -233 -420 q 81 -113 -233 -258 q 158 -77 106 -100 l 168 -71 l 288 142 q 185 15 217 45 q 121 -16 153 -16 q 72 8 93 -16 q 52 64 52 32 q 100 184 52 102 l 204 361 q 240 358 220 358 q 289 363 258 358 l 155 146 q 98 25 98 54 q 126 -5 98 -5 q 351 254 199 -5 l 414 361 q 452 358 429 358 q 497 363 470 358 q 269 -29 413 229 q 409 63 352 14 q 536 204 466 113 q 549 216 546 216 q 553 212 553 216 m 161 -82 q 85 -121 151 -88 q -224 -396 -224 -274 q -167 -447 -224 -447 q -24 -369 -95 -447 q 153 -96 47 -291 q 161 -82 153 -96 z "},"z":{"ha":387,"x_min":-250,"x_max":533,"o":"m 533 361 q 471 302 533 338 q 236 119 401 244 q 179 77 214 104 l 199 78 q 256 56 231 80 q 289 -7 281 31 q 396 84 328 15 q 498 204 465 153 q 511 216 507 216 q 514 214 513 216 q 440 118 514 200 q 290 -18 364 33 l 290 -36 q 237 -197 290 -111 q 104 -335 183 -283 q -171 -449 -68 -449 q -250 -385 -250 -449 q -142 -228 -250 -310 q 150 -82 -85 -185 q 236 -39 196 -62 q 248 18 248 -7 q 193 69 248 69 q 170 68 178 69 l 160 60 l 135 36 q 53 -24 71 -24 q 36 -8 36 -24 q 161 74 36 35 q 450 297 351 217 l 436 288 q 367 261 398 261 q 310 290 345 261 q 257 317 278 317 q 130 212 215 317 q 119 203 123 203 q 117 207 117 203 q 179 285 117 218 q 307 366 255 366 q 397 321 328 366 q 440 306 421 306 q 461 311 450 306 l 469 322 l 492 350 q 522 370 507 370 q 533 361 533 370 m 232 -50 q 39 -142 215 -59 q -167 -268 -92 -202 q -241 -387 -241 -333 q -172 -440 -241 -440 q 51 -318 -75 -440 q 232 -50 178 -197 z "},"{":{"ha":610,"x_min":233,"x_max":985,"o":"m 985 975 q 960 965 985 967 q 794 896 848 957 q 681 648 741 835 q 383 422 616 453 q 397 421 386 422 q 492 361 492 414 q 401 154 492 309 q 315 -36 315 6 q 406 -86 315 -87 q 446 -90 446 -85 q 411 -103 446 -103 q 301 -99 321 -103 q 233 -33 233 -87 q 259 63 233 5 q 364 254 285 120 q 419 375 419 349 q 363 414 419 414 q 353 419 353 414 q 378 431 353 427 q 506 492 465 444 q 608 696 548 540 q 698 865 652 808 q 812 951 742 920 q 958 982 880 982 q 985 975 985 982 z "},"|":{"ha":694,"x_min":555,"x_max":582,"o":"m 582 -232 l 555 -232 l 555 926 l 582 926 l 582 -232 z "},"}":{"ha":610,"x_min":-36,"x_max":707,"o":"m 707 888 q 686 815 707 854 q 564 611 666 775 q 505 486 505 517 q 526 447 505 463 q 575 431 547 430 q 590 424 590 431 q 572 414 590 416 q 475 377 504 405 q 404 256 446 349 q 309 57 335 101 q 151 -89 237 -62 q -14 -103 107 -103 q -36 -94 -36 -103 q 7 -86 -36 -85 q 149 -40 99 -87 q 267 153 199 7 q 395 368 344 321 q 559 422 447 415 q 437 517 437 442 q 498 648 437 557 q 578 766 538 707 q 635 896 635 856 q 546 965 635 967 q 529 971 529 965 q 564 982 529 982 q 707 888 707 982 z "},"~":{"ha":926,"x_min":450,"x_max":1109,"o":"m 1109 970 q 937 840 1036 840 q 746 916 886 840 q 619 957 668 957 q 473 838 542 957 l 450 852 q 623 982 526 982 q 787 921 676 982 q 936 865 889 865 q 1088 983 1017 865 l 1109 970 z "},"Ä":{"ha":1261,"x_min":121,"x_max":1938,"o":"m 1211 689 q 1186 653 1211 682 q 1055 574 1117 574 q 991 601 1016 574 q 966 673 966 629 q 1011 796 966 711 q 1032 861 1032 836 q 995 919 1032 895 q 903 943 957 943 q 615 824 747 943 q 482 566 482 705 q 527 450 482 495 q 642 406 571 406 q 796 461 718 406 q 905 596 873 517 q 911 603 907 603 q 917 596 917 603 q 893 546 917 582 q 844 485 869 509 q 639 395 753 395 q 515 442 562 395 q 468 568 468 490 q 606 833 468 711 q 905 956 744 956 q 1017 920 977 956 q 1057 823 1057 885 q 1025 714 1057 777 q 996 636 996 656 q 1055 586 996 586 q 1196 686 1123 586 q 1206 694 1202 694 q 1211 689 1211 694 m 1938 812 q 1923 800 1938 800 q 1878 808 1917 800 q 1757 823 1805 823 q 1564 694 1648 790 q 1373 385 1480 599 q 953 -4 1209 56 q 1046 -12 1006 -12 q 1255 68 1171 -12 q 1392 232 1337 145 q 1401 241 1398 241 q 1406 239 1405 241 q 1328 134 1406 229 q 1196 11 1255 45 q 1050 -22 1136 -22 q 929 -8 1000 -22 q 829 -22 886 -22 q 790 -8 790 -22 q 843 8 790 8 q 929 1 880 8 q 1088 84 1034 26 q 1296 396 1142 142 l 1035 396 q 778 147 869 221 q 378 -25 566 -25 q 196 25 271 -25 q 121 147 121 75 q 143 211 121 184 q 199 237 166 237 q 243 195 243 237 q 228 156 243 172 q 192 140 212 140 q 160 171 160 140 l 161 184 q 163 192 163 187 q 157 199 163 199 q 143 182 150 199 q 136 147 136 165 q 206 35 136 81 q 378 -11 276 -11 q 699 132 524 -11 q 787 216 739 164 q 942 375 884 318 l 962 396 l 831 396 l 839 408 q 972 407 904 408 q 1358 730 1171 628 q 1753 833 1545 832 q 1843 843 1801 843 q 1938 812 1938 843 m 1723 821 q 1394 719 1546 812 q 1046 407 1243 626 l 1303 407 q 1512 678 1390 558 q 1723 821 1633 798 m 1838 1061 q 1820 1016 1838 1036 q 1778 996 1801 996 q 1745 1027 1745 996 q 1765 1069 1745 1050 q 1809 1089 1785 1089 q 1838 1061 1838 1089 m 1723 1061 q 1704 1016 1723 1036 q 1663 996 1686 996 q 1630 1028 1630 996 q 1650 1070 1630 1051 q 1693 1089 1670 1089 q 1723 1061 1723 1089 z "},"Å":{"ha":1261,"x_min":121,"x_max":1938,"o":"m 1211 689 q 1186 653 1211 682 q 1055 574 1117 574 q 991 601 1016 574 q 966 673 966 629 q 1011 796 966 711 q 1032 861 1032 836 q 995 919 1032 895 q 903 943 957 943 q 615 824 747 943 q 482 566 482 705 q 527 450 482 495 q 642 406 571 406 q 796 461 718 406 q 905 596 873 517 q 911 603 907 603 q 917 596 917 603 q 893 546 917 582 q 844 485 869 509 q 639 395 753 395 q 515 442 562 395 q 468 568 468 490 q 606 833 468 711 q 905 956 744 956 q 1017 920 977 956 q 1057 823 1057 885 q 1025 714 1057 777 q 996 636 996 656 q 1055 586 996 586 q 1196 686 1123 586 q 1206 694 1202 694 q 1211 689 1211 694 m 1938 812 q 1923 800 1938 800 q 1878 808 1917 800 q 1757 823 1805 823 q 1564 694 1648 790 q 1373 385 1480 599 q 953 -4 1209 56 q 1046 -12 1006 -12 q 1255 68 1171 -12 q 1392 232 1337 145 q 1401 241 1398 241 q 1406 239 1405 241 q 1328 134 1406 229 q 1196 11 1255 45 q 1050 -22 1136 -22 q 929 -8 1000 -22 q 829 -22 886 -22 q 790 -8 790 -22 q 843 8 790 8 q 929 1 880 8 q 1088 84 1034 26 q 1296 396 1142 142 l 1035 396 q 778 147 869 221 q 378 -25 566 -25 q 196 25 271 -25 q 121 147 121 75 q 143 211 121 184 q 199 237 166 237 q 243 195 243 237 q 228 156 243 172 q 192 140 212 140 q 160 171 160 140 l 161 184 q 163 192 163 187 q 157 199 163 199 q 143 182 150 199 q 136 147 136 165 q 206 35 136 81 q 378 -11 276 -11 q 699 132 524 -11 q 787 216 739 164 q 942 375 884 318 l 962 396 l 831 396 l 839 408 q 972 407 904 408 q 1358 730 1171 628 q 1753 833 1545 832 q 1843 843 1801 843 q 1938 812 1938 843 m 1723 821 q 1394 719 1546 812 q 1046 407 1243 626 l 1303 407 q 1512 678 1390 558 q 1723 821 1633 798 m 1855 1047 q 1821 969 1855 1006 q 1748 932 1787 932 q 1710 970 1710 932 q 1745 1048 1710 1011 q 1820 1084 1780 1084 q 1855 1047 1855 1084 m 1842 1050 q 1821 1072 1842 1072 q 1760 1035 1794 1072 q 1725 966 1725 997 q 1744 944 1725 944 q 1807 982 1773 944 q 1842 1050 1842 1019 z "},"Ç":{"ha":1107,"x_min":243,"x_max":1300,"o":"m 1300 753 q 1239 661 1300 709 q 1295 510 1295 579 q 1284 493 1295 493 q 1276 515 1276 493 q 1229 653 1276 583 q 961 527 1131 580 q 661 473 792 473 q 629 475 643 473 q 521 183 521 323 q 580 32 521 87 q 742 -24 640 -24 q 1086 161 935 -24 q 1178 374 1178 273 q 1146 458 1178 427 q 1061 489 1114 489 q 879 400 977 489 q 782 233 782 311 q 786 227 782 227 q 791 229 789 227 q 825 245 810 245 q 860 208 860 245 q 811 158 860 158 q 766 212 766 158 q 865 405 766 309 q 1064 500 963 500 q 1194 357 1194 500 q 1053 87 1194 209 q 739 -35 911 -35 q 537 46 619 -35 q 456 245 456 127 q 536 482 456 361 q 243 714 243 536 q 352 891 243 820 q 624 962 461 962 q 1083 811 851 962 q 1165 819 1123 819 q 1300 753 1300 819 m 1289 753 q 1181 808 1289 808 q 1100 799 1147 808 q 1234 669 1181 743 q 1289 753 1289 717 m 1223 663 q 1083 796 1171 738 q 836 677 956 762 q 637 485 715 593 q 951 537 779 485 q 1223 663 1123 589 m 1064 808 q 625 928 858 928 q 374 860 481 928 q 267 701 267 792 q 542 492 267 539 q 1064 808 713 730 m 737 -98 q 679 -148 737 -148 q 605 -124 652 -148 q 558 -87 558 -100 q 562 -83 558 -83 q 573 -88 565 -83 q 648 -115 612 -115 q 682 -102 668 -115 q 696 -75 696 -90 q 669 -22 696 -54 l 680 -24 q 737 -98 737 -64 z "},"É":{"ha":1168,"x_min":215,"x_max":1546,"o":"m 1440 760 q 1357 714 1440 714 q 1044 775 1291 714 q 929 610 929 709 q 962 543 929 562 q 1035 547 1010 547 q 1105 530 1105 547 q 1068 519 1105 519 q 965 533 1021 519 q 790 475 890 522 q 536 160 536 353 q 675 -3 536 32 q 650 93 650 39 q 786 339 650 227 q 1084 452 922 452 q 1203 415 1159 452 q 1247 317 1247 378 q 1102 78 1247 184 q 775 -28 957 -28 q 707 -24 739 -28 q 900 -111 772 -111 q 1029 -87 979 -111 l 1038 -86 q 1042 -92 1042 -87 q 991 -112 1042 -101 q 900 -122 941 -122 q 684 -20 758 -122 q 521 59 580 3 q 463 187 463 114 q 544 371 463 286 q 761 501 625 457 q 949 541 843 528 q 873 642 873 572 q 983 790 873 730 q 724 828 826 828 q 381 728 523 828 q 240 485 240 627 q 277 376 240 421 q 367 330 315 330 q 403 342 403 330 q 390 346 403 348 q 354 379 354 346 q 370 412 354 398 q 408 425 386 425 q 452 383 452 425 q 427 336 452 355 q 367 317 402 317 q 259 373 304 317 q 215 510 215 430 q 319 730 215 630 q 668 850 444 850 q 1000 799 793 850 q 1218 844 1094 844 q 1375 820 1310 844 q 1440 760 1440 795 m 1426 761 q 1370 808 1426 787 q 1242 828 1314 828 q 1060 785 1142 828 q 1362 726 1240 726 q 1426 761 1426 726 m 1235 322 q 1196 403 1235 371 q 1099 435 1158 435 q 814 314 953 435 q 675 66 675 193 q 697 -8 675 30 q 770 -16 736 -16 q 1082 95 930 -16 q 1235 322 1235 206 m 1546 1126 q 1378 1031 1480 1074 q 1288 998 1299 998 q 1284 999 1285 998 q 1292 1005 1284 1001 q 1518 1168 1451 1080 l 1546 1126 z "},"Ñ":{"ha":1210,"x_min":121,"x_max":2100,"o":"m 2100 668 q 2087 611 2100 611 q 2082 615 2082 611 q 2085 639 2082 623 q 2087 664 2087 655 q 2021 818 2087 758 q 1851 878 1954 878 q 1440 612 1647 878 q 1187 214 1375 530 q 1076 51 1133 122 q 1000 -21 1019 -21 q 990 -11 990 -21 q 1021 17 990 2 q 1080 155 1080 45 q 1078 225 1080 176 q 1071 433 1071 346 q 1099 673 1071 579 q 1193 839 1127 767 q 1196 844 1194 841 q 1103 758 1175 847 q 1035 661 1065 711 q 878 382 1004 611 q 625 79 769 186 q 323 -28 480 -28 q 178 12 235 -28 q 121 113 121 51 q 141 172 121 148 q 192 196 161 196 q 236 153 236 196 q 222 114 236 130 q 187 98 208 98 q 154 135 154 98 q 149 149 154 149 q 138 111 138 149 q 191 20 138 56 q 326 -16 244 -16 q 618 103 484 -16 q 926 514 753 222 q 1153 827 1068 752 q 1227 878 1211 878 q 1231 875 1230 877 q 1222 863 1231 873 q 1168 740 1179 805 q 1153 464 1157 675 q 1089 94 1147 205 q 1088 92 1088 94 l 1089 90 q 1295 431 1101 90 q 1567 790 1436 680 q 1850 901 1698 901 q 2029 835 1959 901 q 2100 668 2100 769 m 1014 715 q 975 657 1014 701 q 863 591 917 591 q 800 619 825 591 q 774 686 774 646 q 802 779 774 725 q 836 875 836 847 q 804 930 836 909 q 718 951 771 951 q 434 829 567 951 q 301 570 301 707 q 345 453 301 498 q 457 408 389 408 q 581 443 518 408 q 682 533 644 478 q 686 536 685 536 q 692 530 692 536 q 648 478 692 517 q 454 397 559 397 q 335 445 381 397 q 289 568 289 492 q 425 839 289 715 q 722 962 561 962 q 826 929 789 962 q 864 838 864 896 q 821 705 864 794 q 806 656 806 674 q 861 604 806 604 q 936 636 895 604 q 1002 714 977 668 q 1008 721 1005 721 q 1014 715 1014 721 m 1662 1050 q 1625 1023 1662 1040 q 1568 1006 1587 1006 q 1508 1015 1546 1006 l 1495 1019 q 1411 1035 1430 1035 q 1373 1025 1396 1035 q 1364 1021 1367 1021 q 1360 1023 1360 1021 q 1397 1050 1360 1033 q 1455 1068 1435 1068 q 1537 1054 1478 1068 l 1569 1046 q 1613 1040 1598 1040 q 1653 1050 1635 1040 q 1659 1053 1658 1053 q 1662 1050 1662 1052 z "},"Ö":{"ha":1101,"x_min":339,"x_max":1263,"o":"m 1260 542 q 1202 331 1260 438 q 1040 136 1143 223 q 828 3 941 52 q 619 -46 714 -46 q 417 39 494 -46 q 339 260 339 123 q 416 514 339 385 q 625 737 494 644 q 836 847 719 805 q 1047 889 953 889 q 1197 844 1141 889 q 1253 722 1253 798 q 1242 648 1253 691 q 1260 542 1260 595 m 1242 721 q 1194 831 1242 789 q 1067 873 1145 873 q 751 770 911 873 q 501 514 599 670 q 399 195 399 353 q 458 31 399 94 q 611 -32 517 -32 q 993 163 801 -32 q 1206 572 1185 359 q 1123 476 1183 532 q 1043 421 1064 421 q 1038 427 1038 421 q 1048 436 1038 430 q 1207 597 1158 497 q 1158 732 1207 682 q 1023 782 1108 782 q 700 614 866 782 q 534 286 534 446 q 564 183 534 222 q 643 143 594 143 q 690 157 666 143 q 714 183 714 170 q 711 187 713 187 q 705 184 711 187 q 679 176 697 176 q 647 214 647 176 q 663 252 647 237 q 700 268 678 268 q 743 220 743 268 q 712 157 743 184 q 640 131 682 131 q 543 179 582 131 q 504 298 504 227 q 676 628 504 464 q 1022 793 849 793 q 1154 758 1096 793 q 1234 667 1213 723 q 1242 721 1242 694 m 1263 1061 q 1245 1016 1263 1036 q 1204 996 1227 996 q 1171 1027 1171 996 q 1191 1069 1171 1050 q 1234 1089 1211 1089 q 1263 1061 1263 1089 m 1148 1061 q 1130 1016 1148 1036 q 1088 996 1112 996 q 1055 1028 1055 996 q 1075 1070 1055 1051 q 1119 1089 1095 1089 q 1148 1061 1148 1089 z "},"Ü":{"ha":1251,"x_min":203,"x_max":1603,"o":"m 1469 1061 q 1451 1016 1469 1036 q 1409 996 1432 996 q 1376 1027 1376 996 q 1396 1069 1376 1050 q 1440 1089 1416 1089 q 1469 1061 1469 1089 m 1354 1061 q 1335 1016 1354 1036 q 1294 996 1317 996 q 1261 1028 1261 996 q 1281 1070 1261 1051 q 1324 1089 1301 1089 q 1354 1061 1354 1089 m 1603 839 q 1132 5 1132 193 q 1162 -70 1132 -41 q 1239 -100 1192 -100 q 1397 -14 1320 -100 q 1407 -7 1404 -7 q 1411 -12 1411 -7 q 1388 -40 1411 -20 q 1239 -111 1308 -111 q 1132 -61 1175 -111 q 1089 65 1089 -11 q 1223 408 1089 195 q 1202 379 1215 397 l 1169 335 q 933 66 1046 163 q 746 -31 821 -31 q 667 5 697 -31 q 637 98 637 40 q 670 221 637 160 q 818 432 703 281 q 970 650 938 589 q 1003 781 1003 711 q 955 883 1003 845 q 825 921 907 921 q 426 732 618 921 q 235 339 235 543 q 278 216 235 262 q 392 170 321 170 q 652 323 527 170 q 782 618 782 485 q 686 730 782 730 q 642 720 663 730 q 621 696 621 709 q 627 690 621 690 q 639 694 631 691 q 648 696 642 696 q 684 663 684 696 q 667 625 684 641 q 629 608 651 608 q 587 653 587 608 q 617 716 587 690 q 689 743 648 743 q 766 709 737 743 q 794 618 794 675 q 667 322 794 485 q 392 157 537 157 q 255 215 307 157 q 203 371 203 274 q 436 777 203 593 q 633 890 527 848 q 823 933 739 933 q 983 878 926 933 q 1040 724 1040 823 q 999 564 1040 640 q 793 271 958 488 q 699 135 721 176 q 676 57 676 94 q 697 2 676 24 q 749 -20 718 -20 q 1030 185 850 -20 q 1497 835 1210 390 q 1537 832 1533 832 q 1603 839 1563 832 z "},"á":{"ha":478,"x_min":71,"x_max":681,"o":"m 603 212 q 504 81 603 198 q 378 -16 424 -16 q 327 8 347 -16 q 307 66 307 31 q 329 146 307 103 q 225 18 261 51 q 155 -16 189 -16 q 95 15 119 -16 q 71 93 71 46 q 254 323 71 223 q 385 368 335 368 q 427 328 427 368 q 421 297 427 316 l 456 363 q 492 358 476 358 q 539 363 510 358 l 419 164 q 357 26 357 60 q 383 -5 357 -5 q 470 57 410 -5 q 591 210 530 119 q 599 216 595 216 q 603 212 603 216 m 416 325 q 386 358 416 358 q 222 236 323 358 q 121 39 121 114 q 160 -5 121 -5 q 322 150 207 -5 q 416 325 416 277 m 681 572 q 513 478 615 521 q 422 444 434 444 q 418 446 420 444 q 427 452 418 448 q 653 615 585 527 l 681 572 z "},"à":{"ha":478,"x_min":71,"x_max":603,"o":"m 603 212 q 504 81 603 198 q 378 -16 424 -16 q 327 8 347 -16 q 307 66 307 31 q 329 146 307 103 q 225 18 261 51 q 155 -16 189 -16 q 95 15 119 -16 q 71 93 71 46 q 254 323 71 223 q 385 368 335 368 q 427 328 427 368 q 421 297 427 316 l 456 363 q 492 358 476 358 q 539 363 510 358 l 419 164 q 357 26 357 60 q 383 -5 357 -5 q 470 57 410 -5 q 591 210 530 119 q 599 216 595 216 q 603 212 603 216 m 416 325 q 386 358 416 358 q 222 236 323 358 q 121 39 121 114 q 160 -5 121 -5 q 322 150 207 -5 q 416 325 416 277 m 465 433 q 461 431 465 431 q 417 481 444 431 q 375 587 389 531 l 433 628 q 422 562 422 595 q 460 441 422 492 q 465 433 465 437 z "},"â":{"ha":478,"x_min":71,"x_max":603,"o":"m 603 212 q 504 81 603 198 q 378 -16 424 -16 q 327 8 347 -16 q 307 66 307 31 q 329 146 307 103 q 225 18 261 51 q 155 -16 189 -16 q 95 15 119 -16 q 71 93 71 46 q 254 323 71 223 q 385 368 335 368 q 427 328 427 368 q 421 297 427 316 l 456 363 q 492 358 476 358 q 539 363 510 358 l 419 164 q 357 26 357 60 q 383 -5 357 -5 q 470 57 410 -5 q 591 210 530 119 q 599 216 595 216 q 603 212 603 216 m 416 325 q 386 358 416 358 q 222 236 323 358 q 121 39 121 114 q 160 -5 121 -5 q 322 150 207 -5 q 416 325 416 277 m 546 611 q 534 446 538 526 q 532 440 534 441 q 528 456 529 440 q 513 539 523 513 q 388 475 469 511 q 285 439 307 439 q 281 441 281 439 q 290 447 281 444 q 441 527 365 478 q 546 611 517 576 z "},"ä":{"ha":478,"x_min":71,"x_max":603,"o":"m 603 212 q 504 81 603 198 q 378 -16 424 -16 q 327 8 347 -16 q 307 66 307 31 q 329 146 307 103 q 225 18 261 51 q 155 -16 189 -16 q 95 15 119 -16 q 71 93 71 46 q 254 323 71 223 q 385 368 335 368 q 427 328 427 368 q 421 297 427 316 l 456 363 q 492 358 476 358 q 539 363 510 358 l 419 164 q 357 26 357 60 q 383 -5 357 -5 q 470 57 410 -5 q 591 210 530 119 q 599 216 595 216 q 603 212 603 216 m 416 325 q 386 358 416 358 q 222 236 323 358 q 121 39 121 114 q 160 -5 121 -5 q 322 150 207 -5 q 416 325 416 277 m 566 500 q 547 455 566 475 q 506 435 529 435 q 473 465 473 435 q 493 508 473 488 q 536 528 513 528 q 566 500 566 528 m 450 500 q 432 455 450 475 q 391 435 414 435 q 357 467 357 435 q 377 509 357 490 q 421 528 397 528 q 450 500 450 528 z "},"ã":{"ha":478,"x_min":71,"x_max":603,"o":"m 603 212 q 504 81 603 198 q 378 -16 424 -16 q 327 8 347 -16 q 307 66 307 31 q 329 146 307 103 q 225 18 261 51 q 155 -16 189 -16 q 95 15 119 -16 q 71 93 71 46 q 254 323 71 223 q 385 368 335 368 q 427 328 427 368 q 421 297 427 316 l 456 363 q 492 358 476 358 q 539 363 510 358 l 419 164 q 357 26 357 60 q 383 -5 357 -5 q 470 57 410 -5 q 591 210 530 119 q 599 216 595 216 q 603 212 603 216 m 416 325 q 386 358 416 358 q 222 236 323 358 q 121 39 121 114 q 160 -5 121 -5 q 322 150 207 -5 q 416 325 416 277 m 599 493 q 561 466 599 484 q 505 449 524 449 q 445 458 483 449 l 431 462 q 348 478 367 478 q 310 468 332 478 q 300 464 303 464 q 296 467 296 464 q 334 494 296 476 q 392 511 372 511 q 474 497 415 511 l 505 490 q 549 484 534 484 q 589 493 572 484 q 596 496 595 496 q 599 493 599 495 z "},"å":{"ha":478,"x_min":71,"x_max":603,"o":"m 603 212 q 504 81 603 198 q 378 -16 424 -16 q 327 8 347 -16 q 307 66 307 31 q 329 146 307 103 q 225 18 261 51 q 155 -16 189 -16 q 95 15 119 -16 q 71 93 71 46 q 254 323 71 223 q 385 368 335 368 q 427 328 427 368 q 421 297 427 316 l 456 363 q 492 358 476 358 q 539 363 510 358 l 419 164 q 357 26 357 60 q 383 -5 357 -5 q 470 57 410 -5 q 591 210 530 119 q 599 216 595 216 q 603 212 603 216 m 416 325 q 386 358 416 358 q 222 236 323 358 q 121 39 121 114 q 160 -5 121 -5 q 322 150 207 -5 q 416 325 416 277 m 565 547 q 531 469 565 507 q 458 432 496 432 q 419 471 419 432 q 454 548 419 511 q 529 585 490 585 q 565 547 565 585 m 551 550 q 530 572 551 572 q 469 535 503 572 q 435 467 435 497 q 454 444 435 444 q 517 482 482 444 q 551 550 551 519 z "},"ç":{"ha":336,"x_min":10,"x_max":463,"o":"m 463 212 q 367 98 463 203 q 189 -16 262 -16 q 108 21 142 -16 q 74 107 74 57 q 120 225 74 164 q 244 330 166 286 q 351 368 310 368 q 401 309 401 368 q 370 215 401 262 q 307 168 338 168 q 277 199 277 168 q 339 265 277 235 q 387 328 387 289 q 354 358 387 358 q 216 246 298 358 q 134 58 134 134 q 193 -5 134 -5 q 447 205 287 -5 q 460 216 456 216 q 463 212 463 216 m 189 -68 q 131 -118 189 -118 q 57 -94 104 -118 q 10 -57 10 -71 q 14 -53 10 -53 q 25 -58 17 -53 q 100 -85 64 -85 q 134 -73 120 -85 q 149 -45 149 -60 q 121 8 149 -24 l 132 5 q 189 -68 189 -34 z "},"é":{"ha":342,"x_min":74,"x_max":659,"o":"m 468 212 q 456 195 468 210 l 427 158 q 186 -16 286 -16 q 106 19 138 -16 q 74 104 74 53 q 244 319 74 227 q 390 368 334 368 q 432 354 414 368 q 449 318 449 339 q 385 235 449 269 q 172 171 321 201 q 126 54 126 101 q 189 -4 126 -4 q 452 205 296 -4 q 465 216 460 216 q 468 212 468 216 m 411 338 q 387 359 411 359 q 293 310 351 359 q 178 180 234 260 q 343 251 275 205 q 411 338 411 297 m 659 572 q 490 478 593 521 q 400 444 412 444 q 396 446 397 444 q 404 452 396 448 q 631 615 563 527 l 659 572 z "},"è":{"ha":342,"x_min":74,"x_max":468,"o":"m 468 212 q 456 195 468 210 l 427 158 q 186 -16 286 -16 q 106 19 138 -16 q 74 104 74 53 q 244 319 74 227 q 390 368 334 368 q 432 354 414 368 q 449 318 449 339 q 385 235 449 269 q 172 171 321 201 q 126 54 126 101 q 189 -4 126 -4 q 452 205 296 -4 q 465 216 460 216 q 468 212 468 216 m 411 338 q 387 359 411 359 q 293 310 351 359 q 178 180 234 260 q 343 251 275 205 q 411 338 411 297 m 447 433 q 443 431 446 431 q 398 481 426 431 q 357 587 371 531 l 415 628 q 404 562 404 595 q 441 441 404 492 q 447 433 446 437 z "},"ê":{"ha":342,"x_min":74,"x_max":532,"o":"m 468 212 q 456 195 468 210 l 427 158 q 186 -16 286 -16 q 106 19 138 -16 q 74 104 74 53 q 244 319 74 227 q 390 368 334 368 q 432 354 414 368 q 449 318 449 339 q 385 235 449 269 q 172 171 321 201 q 126 54 126 101 q 189 -4 126 -4 q 452 205 296 -4 q 465 216 460 216 q 468 212 468 216 m 411 338 q 387 359 411 359 q 293 310 351 359 q 178 180 234 260 q 343 251 275 205 q 411 338 411 297 m 532 611 q 520 446 524 526 q 517 440 520 441 q 513 456 515 440 q 498 539 509 513 q 374 475 455 511 q 271 439 292 439 q 267 441 267 439 q 276 447 267 444 q 427 527 351 478 q 532 611 503 576 z "},"ë":{"ha":342,"x_min":74,"x_max":535,"o":"m 468 212 q 456 195 468 210 l 427 158 q 186 -16 286 -16 q 106 19 138 -16 q 74 104 74 53 q 244 319 74 227 q 390 368 334 368 q 432 354 414 368 q 449 318 449 339 q 385 235 449 269 q 172 171 321 201 q 126 54 126 101 q 189 -4 126 -4 q 452 205 296 -4 q 465 216 460 216 q 468 212 468 216 m 411 338 q 387 359 411 359 q 293 310 351 359 q 178 180 234 260 q 343 251 275 205 q 411 338 411 297 m 535 500 q 517 455 535 475 q 475 435 498 435 q 442 465 442 435 q 462 508 442 488 q 506 528 482 528 q 535 500 535 528 m 420 500 q 401 455 420 475 q 360 435 383 435 q 327 467 327 435 q 347 509 327 490 q 391 528 367 528 q 420 500 420 528 z "},"í":{"ha":233,"x_min":53,"x_max":525,"o":"m 358 212 q 351 201 357 210 l 322 161 q 127 -16 195 -16 q 74 7 96 -16 q 53 64 53 30 q 100 183 53 103 l 205 363 q 239 358 227 358 q 290 363 257 358 l 136 110 q 103 25 103 55 q 135 -5 103 -5 q 347 210 195 -5 q 354 216 351 216 q 358 212 358 216 m 525 572 q 357 478 459 521 q 267 444 278 444 q 262 446 264 444 q 271 452 262 448 q 497 615 429 527 l 525 572 z "},"ì":{"ha":233,"x_min":53,"x_max":358,"o":"m 358 212 q 351 201 357 210 l 322 161 q 127 -16 195 -16 q 74 7 96 -16 q 53 64 53 30 q 100 183 53 103 l 205 363 q 239 358 227 358 q 290 363 257 358 l 136 110 q 103 25 103 55 q 135 -5 103 -5 q 347 210 195 -5 q 354 216 351 216 q 358 212 358 216 m 313 433 q 309 431 312 431 q 264 481 292 431 q 222 587 237 531 l 281 628 q 269 562 269 595 q 307 441 269 492 q 313 433 312 437 z "},"î":{"ha":233,"x_min":53,"x_max":397,"o":"m 358 212 q 351 201 357 210 l 322 161 q 127 -16 195 -16 q 74 7 96 -16 q 53 64 53 30 q 100 183 53 103 l 205 363 q 239 358 227 358 q 290 363 257 358 l 136 110 q 103 25 103 55 q 135 -5 103 -5 q 347 210 195 -5 q 354 216 351 216 q 358 212 358 216 m 397 611 q 386 446 390 526 q 383 440 386 441 q 379 456 380 440 q 364 539 374 513 q 239 475 321 511 q 136 439 158 439 q 132 441 132 439 q 142 447 133 444 q 292 527 216 478 q 397 611 368 576 z "},"ï":{"ha":233,"x_min":53,"x_max":401,"o":"m 358 212 q 351 201 357 210 l 322 161 q 127 -16 195 -16 q 74 7 96 -16 q 53 64 53 30 q 100 183 53 103 l 205 363 q 239 358 227 358 q 290 363 257 358 l 136 110 q 103 25 103 55 q 135 -5 103 -5 q 347 210 195 -5 q 354 216 351 216 q 358 212 358 216 m 401 500 q 383 455 401 475 q 342 435 365 435 q 309 465 309 435 q 329 508 309 488 q 372 528 349 528 q 401 500 401 528 m 286 500 q 268 455 286 475 q 227 435 250 435 q 193 467 193 435 q 213 509 193 490 q 257 528 233 528 q 286 500 286 528 z "},"ñ":{"ha":543,"x_min":86,"x_max":669,"o":"m 669 212 q 571 81 669 198 q 444 -16 490 -16 q 393 8 414 -16 q 372 66 372 32 q 385 123 372 97 q 450 227 397 149 q 505 330 505 308 q 476 358 505 358 q 171 -9 377 358 q 131 -7 138 -7 q 86 -9 107 -7 l 192 158 q 282 338 282 302 q 265 358 282 358 q 129 212 231 358 q 119 203 123 203 q 115 207 116 203 q 118 212 116 210 l 131 229 q 271 368 235 368 q 310 347 294 368 q 326 297 326 326 q 275 176 326 254 q 398 328 355 287 q 478 368 441 368 q 528 344 508 368 q 549 283 549 319 q 486 144 549 238 q 422 22 422 49 q 450 -5 422 -5 q 659 210 511 -5 q 665 216 662 216 q 669 212 669 216 m 641 493 q 603 466 641 484 q 547 449 566 449 q 487 458 525 449 l 473 462 q 390 478 409 478 q 352 468 374 478 q 342 464 345 464 q 338 467 338 464 q 376 494 338 476 q 434 511 414 511 q 516 497 457 511 l 547 490 q 591 484 576 484 q 631 493 614 484 q 638 496 637 496 q 641 493 641 495 z "},"ó":{"ha":403,"x_min":74,"x_max":642,"o":"m 528 214 q 488 163 528 203 q 378 103 428 103 q 340 111 357 103 q 172 -16 251 -16 q 103 18 132 -16 q 74 98 74 52 q 211 300 74 203 q 370 368 307 368 q 428 306 428 368 q 346 118 428 228 q 376 110 359 110 q 448 138 407 110 q 514 207 488 167 q 525 216 522 216 q 528 214 528 216 m 418 304 q 368 359 418 359 q 218 241 307 359 q 129 43 129 123 q 174 -4 129 -4 q 334 117 247 -4 q 314 161 314 138 q 340 230 314 195 q 392 265 367 265 q 407 252 403 265 q 418 304 418 275 m 642 572 q 473 478 576 521 q 383 444 395 444 q 379 446 380 444 q 387 452 379 448 q 614 615 546 527 l 642 572 z "},"ò":{"ha":403,"x_min":74,"x_max":528,"o":"m 528 214 q 488 163 528 203 q 378 103 428 103 q 340 111 357 103 q 172 -16 251 -16 q 103 18 132 -16 q 74 98 74 52 q 211 300 74 203 q 370 368 307 368 q 428 306 428 368 q 346 118 428 228 q 376 110 359 110 q 448 138 407 110 q 514 207 488 167 q 525 216 522 216 q 528 214 528 216 m 418 304 q 368 359 418 359 q 218 241 307 359 q 129 43 129 123 q 174 -4 129 -4 q 334 117 247 -4 q 314 161 314 138 q 340 230 314 195 q 392 265 367 265 q 407 252 403 265 q 418 304 418 275 m 461 433 q 457 431 460 431 q 413 481 440 431 q 371 587 385 531 l 429 628 q 418 562 418 595 q 456 441 418 492 q 461 433 460 437 z "},"ô":{"ha":403,"x_min":74,"x_max":530,"o":"m 528 214 q 488 163 528 203 q 378 103 428 103 q 340 111 357 103 q 172 -16 251 -16 q 103 18 132 -16 q 74 98 74 52 q 211 300 74 203 q 370 368 307 368 q 428 306 428 368 q 346 118 428 228 q 376 110 359 110 q 448 138 407 110 q 514 207 488 167 q 525 216 522 216 q 528 214 528 216 m 418 304 q 368 359 418 359 q 218 241 307 359 q 129 43 129 123 q 174 -4 129 -4 q 334 117 247 -4 q 314 161 314 138 q 340 230 314 195 q 392 265 367 265 q 407 252 403 265 q 418 304 418 275 m 530 611 q 519 446 523 526 q 516 440 519 441 q 512 456 513 440 q 497 539 507 513 q 372 475 454 511 q 269 439 291 439 q 265 441 265 439 q 275 447 266 444 q 425 527 349 478 q 530 611 501 576 z "},"ö":{"ha":403,"x_min":74,"x_max":528,"o":"m 528 214 q 488 163 528 203 q 378 103 428 103 q 340 111 357 103 q 172 -16 251 -16 q 103 18 132 -16 q 74 98 74 52 q 211 300 74 203 q 370 368 307 368 q 428 306 428 368 q 346 118 428 228 q 376 110 359 110 q 448 138 407 110 q 514 207 488 167 q 525 216 522 216 q 528 214 528 216 m 418 304 q 368 359 418 359 q 218 241 307 359 q 129 43 129 123 q 174 -4 129 -4 q 334 117 247 -4 q 314 161 314 138 q 340 230 314 195 q 392 265 367 265 q 407 252 403 265 q 418 304 418 275 m 525 500 q 507 455 525 475 q 465 435 488 435 q 432 465 432 435 q 452 508 432 488 q 496 528 472 528 q 525 500 525 528 m 410 500 q 391 455 410 475 q 350 435 373 435 q 317 467 317 435 q 337 509 317 490 q 380 528 357 528 q 410 500 410 528 z "},"õ":{"ha":403,"x_min":74,"x_max":561,"o":"m 528 214 q 488 163 528 203 q 378 103 428 103 q 340 111 357 103 q 172 -16 251 -16 q 103 18 132 -16 q 74 98 74 52 q 211 300 74 203 q 370 368 307 368 q 428 306 428 368 q 346 118 428 228 q 376 110 359 110 q 448 138 407 110 q 514 207 488 167 q 525 216 522 216 q 528 214 528 216 m 418 304 q 368 359 418 359 q 218 241 307 359 q 129 43 129 123 q 174 -4 129 -4 q 334 117 247 -4 q 314 161 314 138 q 340 230 314 195 q 392 265 367 265 q 407 252 403 265 q 418 304 418 275 m 561 493 q 523 466 561 484 q 467 449 486 449 q 407 458 445 449 l 393 462 q 310 478 329 478 q 272 468 294 478 q 262 464 265 464 q 258 467 258 464 q 296 494 258 476 q 354 511 334 511 q 436 497 377 511 l 467 490 q 511 484 496 484 q 551 493 534 484 q 558 496 557 496 q 561 493 561 495 z "},"ú":{"ha":435,"x_min":53,"x_max":626,"o":"m 561 212 q 463 81 561 197 q 334 -16 381 -16 q 283 8 304 -16 q 262 66 262 33 q 289 140 262 93 l 275 122 q 184 15 213 42 q 123 -16 152 -16 q 73 8 94 -16 q 53 65 53 31 q 83 155 53 104 l 207 363 q 243 358 230 358 q 289 363 256 358 l 127 97 q 103 25 103 56 q 129 -5 103 -5 q 349 250 197 -5 l 415 363 q 450 358 436 358 q 498 363 467 358 l 390 186 q 313 24 313 60 q 340 -5 313 -5 q 517 165 395 -5 l 538 195 l 550 210 q 557 216 553 216 q 561 212 561 216 m 626 572 q 458 478 560 521 q 368 444 379 444 q 363 446 365 444 q 372 452 363 448 q 598 615 530 527 l 626 572 z "},"ù":{"ha":435,"x_min":53,"x_max":561,"o":"m 561 212 q 463 81 561 197 q 334 -16 381 -16 q 283 8 304 -16 q 262 66 262 33 q 289 140 262 93 l 275 122 q 184 15 213 42 q 123 -16 152 -16 q 73 8 94 -16 q 53 65 53 31 q 83 155 53 104 l 207 363 q 243 358 230 358 q 289 363 256 358 l 127 97 q 103 25 103 56 q 129 -5 103 -5 q 349 250 197 -5 l 415 363 q 450 358 436 358 q 498 363 467 358 l 390 186 q 313 24 313 60 q 340 -5 313 -5 q 517 165 395 -5 l 538 195 l 550 210 q 557 216 553 216 q 561 212 561 216 m 399 433 q 395 431 398 431 q 350 481 378 431 q 309 587 323 531 l 367 628 q 355 562 355 595 q 393 441 355 492 q 399 433 398 437 z "},"û":{"ha":435,"x_min":53,"x_max":561,"o":"m 561 212 q 463 81 561 197 q 334 -16 381 -16 q 283 8 304 -16 q 262 66 262 33 q 289 140 262 93 l 275 122 q 184 15 213 42 q 123 -16 152 -16 q 73 8 94 -16 q 53 65 53 31 q 83 155 53 104 l 207 363 q 243 358 230 358 q 289 363 256 358 l 127 97 q 103 25 103 56 q 129 -5 103 -5 q 349 250 197 -5 l 415 363 q 450 358 436 358 q 498 363 467 358 l 390 186 q 313 24 313 60 q 340 -5 313 -5 q 517 165 395 -5 l 538 195 l 550 210 q 557 216 553 216 q 561 212 561 216 m 508 611 q 496 446 500 526 q 494 440 496 441 q 490 456 491 440 q 475 539 485 513 q 350 475 431 511 q 247 439 269 439 q 243 441 243 439 q 252 447 243 444 q 403 527 327 478 q 508 611 479 576 z "},"ü":{"ha":435,"x_min":53,"x_max":561,"o":"m 561 212 q 463 81 561 197 q 334 -16 381 -16 q 283 8 304 -16 q 262 66 262 33 q 289 140 262 93 l 275 122 q 184 15 213 42 q 123 -16 152 -16 q 73 8 94 -16 q 53 65 53 31 q 83 155 53 104 l 207 363 q 243 358 230 358 q 289 363 256 358 l 127 97 q 103 25 103 56 q 129 -5 103 -5 q 349 250 197 -5 l 415 363 q 450 358 436 358 q 498 363 467 358 l 390 186 q 313 24 313 60 q 340 -5 313 -5 q 517 165 395 -5 l 538 195 l 550 210 q 557 216 553 216 q 561 212 561 216 m 511 500 q 492 455 511 475 q 451 435 474 435 q 418 465 418 435 q 438 508 418 488 q 481 528 458 528 q 511 500 511 528 m 395 500 q 377 455 395 475 q 336 435 359 435 q 302 467 302 435 q 322 509 302 490 q 366 528 342 528 q 395 500 395 528 z "},"†":{"ha":664,"x_min":342,"x_max":840,"o":"m 840 541 q 823 505 840 519 q 782 490 806 490 q 710 509 762 490 q 616 526 668 523 q 602 440 610 506 q 579 328 592 363 q 518 204 568 298 q 367 -170 432 44 q 351 -184 362 -184 q 342 -176 342 -184 q 364 -126 342 -172 q 478 222 441 32 q 506 337 493 302 q 564 450 519 372 q 602 526 594 503 q 515 513 561 525 q 424 493 443 493 q 378 522 378 493 q 435 567 378 567 q 519 549 455 567 q 604 538 559 538 q 665 787 627 608 q 745 921 694 921 q 775 882 775 921 q 763 833 775 859 q 684 679 753 811 q 619 538 643 603 q 764 564 672 539 q 800 568 779 568 q 840 541 840 568 z "},"°":{"ha":664,"x_min":558,"x_max":803,"o":"m 803 743 q 767 659 803 694 q 681 624 730 624 q 594 659 631 624 q 558 743 558 694 q 594 828 558 793 q 682 863 630 863 q 767 827 732 863 q 803 743 803 792 m 781 743 q 751 814 781 785 q 679 843 722 843 q 610 813 639 843 q 581 743 581 784 q 610 672 581 701 q 681 643 639 643 q 751 673 721 643 q 781 743 781 703 z "},"¢":{"ha":664,"x_min":294,"x_max":742,"o":"m 742 682 q 737 669 742 676 l 646 519 q 704 457 704 509 q 662 373 704 410 q 566 336 619 336 q 513 385 513 336 q 522 407 513 407 q 525 403 525 406 l 524 399 l 522 386 q 557 350 522 350 q 634 395 593 350 q 676 479 676 441 q 640 511 676 511 q 488 402 577 511 q 399 216 399 294 q 456 158 399 158 q 635 294 545 158 q 642 302 639 302 q 647 297 647 302 q 622 257 647 290 q 575 204 597 224 q 453 149 516 149 q 431 151 441 149 l 311 -56 q 301 -64 305 -64 q 294 -57 294 -64 q 301 -43 294 -52 l 419 154 q 345 262 345 185 q 436 429 345 347 q 632 521 528 511 l 722 675 q 734 688 730 688 q 742 682 742 688 z "},"£":{"ha":664,"x_min":79,"x_max":811,"o":"m 811 614 q 595 370 811 511 q 541 268 569 315 l 677 268 l 667 256 l 533 256 q 334 52 425 92 q 549 0 481 0 q 647 37 606 0 q 653 40 650 40 q 656 37 654 39 q 615 -3 656 25 q 522 -32 574 -32 q 282 22 417 -32 q 174 0 225 0 q 82 41 79 0 q 187 83 84 83 q 323 56 246 83 q 465 256 358 83 l 326 256 l 338 268 l 472 268 q 657 539 591 468 q 791 631 743 631 q 811 614 811 631 m 803 614 q 791 625 803 625 q 701 554 763 625 q 602 385 682 532 q 739 499 682 439 q 803 614 803 568 m 273 28 q 143 64 195 64 q 89 41 89 64 q 176 8 89 8 q 273 28 222 8 z "},"§":{"ha":664,"x_min":161,"x_max":935,"o":"m 935 822 q 929 817 935 817 q 907 829 924 817 q 787 872 849 872 q 666 825 715 872 q 616 710 616 779 q 661 501 616 671 q 688 301 688 401 q 591 25 688 140 q 358 -89 495 -89 q 232 -61 302 -89 q 161 -9 161 -33 q 168 -3 161 -3 q 208 -28 173 -3 q 339 -71 269 -71 q 468 -16 412 -71 q 525 107 525 38 q 510 207 525 148 q 457 507 457 411 q 544 782 457 673 q 762 892 631 892 q 872 866 809 892 q 935 822 935 841 m 707 868 q 515 575 515 802 q 549 326 515 490 q 571 158 571 217 q 443 -54 571 30 q 629 248 629 17 q 601 453 629 317 q 572 656 572 588 q 707 868 572 803 z "},"•":{"ha":929,"x_min":503,"x_max":903,"o":"m 903 489 q 844 347 903 406 q 703 289 786 289 q 561 347 619 289 q 503 489 503 406 q 561 631 503 573 q 705 689 620 689 q 845 630 787 689 q 903 489 903 571 z "},"¶":{"ha":1149,"x_min":158,"x_max":1671,"o":"m 1671 710 q 1664 637 1671 671 q 1650 603 1657 603 q 1646 608 1646 604 q 1652 654 1646 621 q 1658 707 1658 688 q 1607 842 1658 790 q 1471 893 1555 893 q 1208 781 1336 893 q 1084 634 1137 718 q 932 342 1032 551 q 639 40 833 136 q 390 -28 501 -28 q 221 26 284 -28 q 158 172 158 81 q 181 273 158 212 q 220 335 205 335 q 224 329 224 333 q 218 318 224 327 q 171 172 171 242 q 230 35 171 86 q 387 -17 288 -17 q 615 59 514 -17 q 829 317 717 136 q 1039 626 957 522 q 1218 808 1121 730 q 1071 844 1140 844 q 853 755 942 844 q 764 534 764 665 q 831 406 764 406 q 861 415 848 406 q 863 416 861 416 q 865 414 865 416 q 838 397 865 406 q 785 389 811 389 q 629 449 695 389 q 564 591 564 509 q 694 787 564 707 q 1011 867 824 867 q 1229 817 1129 867 q 1472 905 1355 905 q 1615 851 1560 905 q 1671 710 1671 796 z "},"ß":{"ha":404,"x_min":-421,"x_max":587,"o":"m 587 696 q 444 478 587 610 q 366 353 366 405 q 407 257 366 313 q 460 140 460 187 q 402 33 460 79 q 268 -14 345 -14 q 165 82 165 -14 q 199 181 165 134 q 269 228 232 228 q 304 195 304 228 q 243 140 304 161 q 179 64 179 119 q 199 18 179 37 q 248 0 218 0 q 349 65 300 0 q 397 201 397 130 q 367 307 397 239 q 346 382 346 353 q 366 445 346 418 q 456 534 385 472 q 579 700 579 644 q 558 721 579 721 q 450 644 517 721 q 244 310 368 551 q 45 -42 119 66 q -129 -233 -30 -151 q -374 -339 -256 -339 q -421 -328 -421 -339 q -414 -321 -421 -321 q -382 -326 -413 -321 q -357 -328 -374 -328 q -146 -216 -252 -328 q -60 -108 -94 -163 q 107 195 -24 -50 q 199 358 157 287 l 123 358 l 129 368 l 203 368 q 403 632 306 539 q 557 729 505 729 q 587 696 587 729 z "},"®":{"ha":1067,"x_min":278,"x_max":1225,"o":"m 1225 476 q 1072 115 1225 268 q 711 -39 918 -39 q 403 85 528 -39 q 278 392 278 210 q 433 754 278 601 q 799 907 587 907 q 1101 782 978 907 q 1225 476 1225 656 m 1207 473 q 1086 771 1207 652 q 785 890 966 890 q 443 741 590 890 q 296 395 296 592 q 416 98 296 218 q 713 -22 536 -22 q 1059 126 911 -22 q 1207 473 1207 274 m 1080 724 q 1061 718 1080 720 q 970 682 1026 714 q 1042 566 1042 637 q 901 449 1042 469 q 960 359 960 417 q 946 282 960 339 q 930 201 930 219 q 981 149 930 149 q 1042 180 1017 149 q 1048 186 1047 186 q 1051 182 1051 186 q 1023 156 1049 170 q 978 142 996 142 q 913 176 941 142 q 886 256 886 210 q 905 345 886 284 q 920 410 920 388 q 895 446 920 433 q 850 443 861 443 q 818 452 818 443 q 842 458 818 458 q 895 450 869 458 q 994 583 994 481 q 951 668 994 637 q 787 431 844 587 q 643 203 727 262 q 511 157 578 157 q 424 186 460 157 q 387 256 387 215 q 403 300 387 281 q 441 318 419 318 q 476 281 476 318 q 441 241 476 241 q 410 269 410 241 q 415 292 410 277 q 416 296 416 293 q 414 298 416 298 q 401 284 408 298 q 395 256 395 269 q 429 192 395 219 q 510 165 463 165 q 615 224 567 165 q 718 424 644 258 q 943 675 785 573 q 803 721 884 721 q 585 641 685 721 q 485 468 485 562 q 576 389 485 389 q 637 400 608 389 q 650 404 648 404 q 654 401 654 404 q 627 389 654 395 q 574 382 599 382 q 496 408 526 382 q 467 478 467 435 q 563 656 467 580 q 787 732 659 732 q 961 688 878 732 q 1071 728 1042 728 q 1080 724 1080 728 z "},"©":{"ha":1067,"x_min":278,"x_max":1225,"o":"m 1225 476 q 1072 115 1225 268 q 711 -39 918 -39 q 403 85 528 -39 q 278 392 278 210 q 433 754 278 601 q 799 907 587 907 q 1101 782 978 907 q 1225 476 1225 656 m 1207 473 q 1086 771 1207 652 q 785 890 966 890 q 443 741 590 890 q 296 395 296 592 q 416 98 296 218 q 713 -22 536 -22 q 1059 126 911 -22 q 1207 473 1207 274 m 1034 608 q 976 485 1034 540 q 847 431 919 431 q 794 445 816 431 q 772 481 772 460 q 777 488 772 488 q 779 484 779 487 q 822 449 784 449 q 947 510 886 449 q 1008 633 1008 571 q 939 696 1008 696 q 692 582 837 696 q 566 441 612 519 q 519 293 519 364 q 659 167 519 167 q 925 354 796 167 q 943 374 939 374 q 947 370 947 374 q 873 269 947 348 q 657 154 766 154 q 522 209 578 154 q 465 340 465 263 q 523 500 465 420 q 676 633 581 580 q 922 708 811 708 q 1003 681 972 708 q 1034 608 1034 654 z "},"™":{"ha":1076,"x_min":261,"x_max":1626,"o":"m 1459 884 q 1450 875 1459 880 q 1310 694 1379 838 q 1211 529 1253 578 q 1101 453 1169 480 q 1139 450 1126 450 q 1229 476 1191 450 q 1315 570 1267 501 q 1322 575 1319 575 q 1326 571 1326 574 q 1286 518 1326 565 q 1143 441 1221 441 q 1082 447 1118 441 q 1036 440 1059 440 q 1014 449 1014 440 q 1040 460 1014 460 q 1083 456 1054 460 q 1204 589 1144 476 q 1317 777 1275 721 q 1418 869 1360 832 q 1455 888 1447 888 q 1459 884 1459 888 m 1626 791 q 1615 753 1626 753 q 1611 757 1611 753 q 1613 760 1611 758 q 1617 791 1617 770 q 1580 864 1617 834 q 1493 895 1544 895 q 1320 814 1408 895 q 1161 632 1263 763 q 960 450 1041 478 l 953 449 q 949 447 951 447 q 945 450 945 447 q 953 458 945 452 q 1048 631 1004 494 q 1165 873 1112 822 q 1032 682 1108 825 q 879 490 958 543 q 730 440 804 440 q 650 460 682 440 q 619 513 619 480 q 657 555 619 555 q 681 532 681 555 q 656 504 681 504 q 636 528 640 504 q 632 515 632 519 q 730 450 632 450 q 907 541 820 450 q 1061 764 953 588 q 1130 854 1091 813 q 1186 895 1169 895 q 1190 890 1190 895 q 1186 884 1190 888 q 1133 757 1158 845 q 1064 560 1096 620 q 977 465 1031 500 q 1064 533 1025 492 q 1189 690 1102 574 q 1347 862 1281 814 q 1489 909 1412 909 q 1588 877 1550 909 q 1626 791 1626 844 m 1086 869 q 1048 834 1086 848 q 954 821 1010 821 q 821 838 906 821 q 671 656 745 800 q 611 552 632 580 q 558 503 592 527 q 378 440 471 440 q 293 461 326 440 q 261 515 261 482 q 297 557 261 557 q 322 532 322 557 q 296 504 322 504 q 278 521 280 504 q 277 528 277 525 q 272 517 272 524 q 300 470 272 488 q 371 452 328 452 q 495 493 444 452 q 623 659 547 535 q 807 840 702 787 q 624 869 661 869 q 454 803 534 869 q 374 661 374 736 q 427 607 374 607 q 510 642 465 607 q 518 646 513 645 q 524 642 523 646 q 486 614 524 631 q 427 597 448 597 q 382 616 399 597 q 364 663 364 634 q 406 766 364 710 q 509 854 448 822 q 679 895 583 895 q 744 886 703 895 q 846 867 820 871 l 854 865 l 861 868 q 1008 900 947 900 q 1086 869 1086 900 m 1078 868 q 1011 890 1078 890 q 873 863 954 890 q 1013 844 962 844 q 1078 868 1078 844 z "},"´":{"ha":694,"x_min":525,"x_max":787,"o":"m 787 572 q 619 478 722 521 q 529 444 541 444 q 525 446 526 444 q 533 452 525 448 q 760 615 692 527 l 787 572 z "},"¨":{"ha":694,"x_min":486,"x_max":694,"o":"m 694 500 q 676 455 694 475 q 635 435 658 435 q 602 465 602 435 q 622 508 602 488 q 665 528 642 528 q 694 500 694 528 m 579 500 q 561 455 579 475 q 519 435 543 435 q 486 467 486 435 q 506 509 486 490 q 550 528 526 528 q 579 500 579 528 z "},"≠":{"ha":726,"x_min":188,"x_max":909,"o":"m 907 414 q 865 401 904 401 l 602 401 l 530 301 l 802 301 q 825 289 827 301 q 783 277 823 277 l 513 277 l 389 102 q 358 72 369 72 q 353 74 355 73 q 361 104 343 79 q 484 277 409 173 l 211 277 q 191 289 188 277 q 232 301 193 301 l 501 301 l 572 401 l 293 401 q 272 414 270 401 q 314 427 275 427 l 590 427 l 722 612 q 749 637 739 637 q 754 636 752 637 q 750 608 766 631 q 619 427 711 553 l 884 427 q 907 414 909 427 z "},"Æ":{"ha":1793,"x_min":121,"x_max":2065,"o":"m 1189 689 q 1164 653 1189 682 q 1034 574 1097 574 q 969 601 994 574 q 945 673 945 629 q 990 796 945 714 q 1011 861 1011 833 q 974 919 1011 895 q 882 943 936 943 q 593 824 726 943 q 460 566 460 705 q 505 450 460 494 q 619 406 549 406 q 775 461 697 406 q 885 596 852 517 q 890 603 886 603 q 896 596 896 603 q 872 545 896 581 q 823 485 849 509 q 616 395 730 395 q 493 443 541 395 q 446 567 446 490 q 583 833 446 711 q 885 956 721 956 q 996 920 956 956 q 1036 823 1036 885 q 1004 714 1036 774 q 974 636 974 656 q 1034 586 974 586 q 1174 686 1100 586 q 1183 694 1178 694 q 1189 689 1189 694 m 2065 760 q 1982 714 2065 714 q 1788 746 1921 714 q 1699 768 1774 749 q 1671 777 1678 774 q 1556 611 1556 710 q 1589 543 1556 562 q 1657 547 1632 547 q 1732 530 1732 547 q 1700 519 1732 519 q 1592 534 1641 519 q 1444 489 1527 526 q 1303 407 1361 452 l 1421 407 l 1414 396 l 1289 396 q 1161 163 1161 288 q 1301 -3 1161 33 q 1276 92 1276 37 q 1412 339 1276 227 q 1712 452 1548 452 q 1830 415 1786 452 q 1874 318 1874 378 q 1729 78 1874 184 q 1401 -28 1584 -28 q 1333 -24 1364 -28 q 1528 -111 1393 -111 q 1655 -87 1603 -111 l 1664 -86 q 1668 -92 1668 -87 q 1618 -112 1668 -101 q 1527 -122 1569 -122 q 1310 -20 1381 -122 q 1149 58 1209 0 q 1089 192 1089 115 q 1196 396 1089 297 l 1035 396 q 676 75 830 173 q 380 -24 522 -24 q 196 26 271 -24 q 121 149 121 77 q 143 212 121 186 q 199 239 166 239 q 243 196 243 239 q 228 159 243 174 q 192 143 213 143 q 160 174 160 143 q 161 186 160 183 q 163 195 163 190 q 157 201 163 201 q 143 184 150 201 q 136 150 136 168 q 205 36 136 82 q 374 -11 274 -11 q 732 161 545 -11 q 961 396 800 224 q 829 395 882 396 l 839 408 q 972 407 903 408 q 1297 724 1171 634 q 1544 814 1423 814 q 1632 802 1575 814 q 1843 844 1727 844 q 2000 820 1935 844 q 2065 760 2065 795 m 2051 761 q 1996 808 2051 787 q 1867 828 1940 828 q 1686 785 1770 828 q 1986 726 1869 726 q 2051 761 2051 726 m 1617 794 q 1546 803 1567 803 q 1352 728 1447 803 q 1046 407 1258 654 l 1210 407 q 1575 542 1340 511 q 1500 642 1500 572 q 1617 794 1500 732 m 1861 323 q 1822 405 1861 373 q 1724 436 1784 436 q 1440 315 1578 436 q 1301 65 1301 193 q 1324 -8 1301 28 q 1393 -16 1358 -16 q 1708 95 1556 -16 q 1861 323 1861 206 z "},"Ø":{"ha":1101,"x_min":339,"x_max":1260,"o":"m 1260 542 q 1202 331 1260 438 q 1040 136 1143 223 q 828 3 941 52 q 619 -46 714 -46 q 519 -31 571 -46 l 443 -140 l 421 -140 l 503 -24 q 339 260 339 58 q 416 515 339 386 q 625 737 494 644 q 837 847 720 806 q 1047 889 953 889 q 1132 878 1091 889 l 1225 1008 l 1247 1008 l 1152 871 q 1253 724 1253 823 q 1242 648 1253 693 q 1260 542 1260 595 m 1242 721 q 1145 861 1242 818 l 1090 785 q 1179 740 1139 773 q 1234 667 1219 707 q 1242 721 1242 694 m 1064 778 q 1025 782 1035 782 q 708 616 872 782 q 545 296 545 451 q 621 146 545 187 l 1064 778 m 1207 597 q 1083 774 1209 739 l 637 138 q 697 127 673 127 q 773 145 738 127 q 808 182 808 162 q 804 187 808 187 q 800 184 804 186 q 775 176 789 176 q 743 214 743 176 q 796 268 743 268 q 838 221 838 268 q 797 148 838 178 q 700 117 756 117 q 631 127 669 117 l 529 -18 q 611 -32 573 -32 q 993 163 801 -32 q 1206 572 1185 359 q 1123 476 1183 532 q 1043 421 1064 421 q 1038 427 1038 421 q 1048 436 1038 430 q 1207 597 1158 497 m 1126 868 q 1064 875 1088 875 q 751 770 910 875 q 501 514 599 670 q 399 195 399 351 q 513 -9 399 56 l 614 135 q 514 317 514 191 q 685 632 514 472 q 1022 793 857 793 q 1071 789 1036 793 l 1126 868 z "},"∞":{"ha":990,"x_min":250,"x_max":1133,"o":"m 1116 315 q 1004 154 1084 223 q 839 82 922 83 q 726 140 768 81 q 689 267 688 193 q 395 82 533 83 q 288 125 327 81 q 250 233 250 167 q 264 311 250 271 q 379 489 303 425 q 546 553 454 553 q 688 358 671 553 q 1004 553 854 553 q 1099 514 1065 553 q 1133 412 1133 476 q 1116 315 1133 367 m 1108 322 q 1122 397 1122 361 q 1088 486 1122 452 q 996 519 1055 519 q 852 446 935 519 q 696 275 795 395 q 844 136 713 136 q 1005 190 927 136 q 1108 322 1082 244 m 679 353 q 533 503 665 503 q 273 315 337 503 q 262 250 262 281 q 298 157 262 193 q 382 122 332 122 q 509 172 445 122 q 679 353 573 222 z "},"±":{"ha":726,"x_min":128,"x_max":884,"o":"m 882 358 q 840 346 880 346 l 575 346 l 461 102 q 439 73 448 73 q 435 74 437 73 q 436 107 422 79 l 549 346 l 268 346 q 248 358 245 346 q 289 371 250 371 l 559 371 l 672 612 q 699 643 688 647 q 699 610 712 638 q 586 371 661 530 l 859 371 q 882 358 884 371 m 765 12 q 724 0 763 0 l 151 0 q 131 12 128 0 q 172 25 133 25 l 742 25 q 765 12 768 25 z "},"≤":{"ha":726,"x_min":134,"x_max":956,"o":"m 956 616 l 945 587 l 281 340 l 778 87 l 757 71 l 249 329 l 260 358 l 956 616 m 760 25 l 736 0 l 134 0 l 157 25 l 760 25 z "},"≥":{"ha":726,"x_min":134,"x_max":864,"o":"m 864 361 l 852 332 l 157 74 l 168 103 l 832 350 l 335 603 l 355 619 l 864 361 m 760 25 l 736 0 l 134 0 l 157 25 l 760 25 z "},"¥":{"ha":664,"x_min":283,"x_max":1000,"o":"m 1000 718 q 970 708 1000 709 q 627 400 836 703 l 806 400 l 798 387 l 618 387 q 567 311 597 356 l 781 311 l 772 298 l 558 298 q 376 -28 493 195 q 330 -20 349 -20 q 283 -28 309 -20 l 468 298 l 309 298 l 315 311 l 475 311 q 518 387 492 343 l 334 387 l 340 400 l 525 400 q 635 654 635 602 q 547 711 635 711 q 390 657 460 711 q 321 534 321 602 q 392 475 321 475 q 460 496 423 475 q 519 547 498 517 q 525 551 522 551 q 528 547 528 551 q 503 518 528 543 q 389 467 450 467 q 325 488 349 467 q 300 545 300 510 q 376 665 300 610 q 543 720 452 720 q 661 619 661 720 q 587 372 661 532 l 579 354 q 989 725 827 725 q 1000 718 1000 725 z "},"µ":{"ha":484,"x_min":-196,"x_max":608,"o":"m 608 212 q 602 201 608 210 l 572 161 q 382 -16 444 -16 q 331 8 352 -16 q 310 66 310 33 q 336 140 310 94 q 176 -16 239 -16 q 132 36 132 -16 q 134 58 132 50 l -109 -375 q -155 -370 -149 -370 q -196 -378 -174 -370 l 253 363 q 290 358 276 358 q 336 363 300 358 l 175 97 q 154 32 154 63 q 183 -5 154 -5 q 396 250 248 -5 l 461 363 q 496 358 484 358 q 546 363 513 358 l 436 186 q 359 24 359 63 q 387 -5 359 -5 q 597 210 448 -5 q 604 216 601 216 q 608 212 608 216 z "},"μ":{"ha":484,"x_min":-196,"x_max":608,"o":"m 608 212 q 602 201 608 210 l 572 161 q 382 -16 444 -16 q 331 8 352 -16 q 310 66 310 33 q 336 140 310 94 q 176 -16 239 -16 q 132 36 132 -16 q 134 58 132 50 l -109 -375 q -155 -370 -149 -370 q -196 -378 -174 -370 l 253 363 q 290 358 276 358 q 336 363 300 358 l 175 97 q 154 32 154 63 q 183 -5 154 -5 q 396 250 248 -5 l 461 363 q 496 358 484 358 q 546 363 513 358 l 436 186 q 359 24 359 63 q 387 -5 359 -5 q 597 210 448 -5 q 604 216 601 216 q 608 212 608 216 z "},"∂":{"ha":403,"x_min":106,"x_max":555,"o":"m 555 418 q 410 93 555 235 q 210 -16 298 -16 q 135 17 165 -16 q 106 98 106 50 q 241 301 106 206 q 400 368 337 368 q 461 306 461 368 q 457 272 461 297 q 503 490 503 392 q 488 597 503 551 q 441 673 473 642 q 375 710 410 704 q 366 715 366 711 q 371 718 367 718 q 505 615 442 718 q 555 418 555 534 m 450 307 q 399 359 450 359 q 250 242 338 359 q 161 45 161 125 q 208 -4 161 -4 q 361 110 273 -4 q 450 307 450 224 z "},"∑":{"ha":664,"x_min":140,"x_max":975,"o":"m 975 846 q 940 781 975 821 q 762 713 882 713 q 603 743 703 713 q 520 771 587 748 q 467 785 482 785 q 449 782 452 785 q 486 727 444 777 q 579 612 565 631 q 703 418 703 454 q 701 411 703 414 q 378 163 684 357 q 175 -28 231 68 q 351 45 233 45 q 511 14 412 45 q 640 -17 611 -17 q 688 -5 665 -17 l 693 3 q 785 109 764 109 q 794 100 794 109 q 766 52 794 85 q 700 -5 735 18 q 553 -60 618 -60 q 390 -25 513 -60 q 275 -5 321 -5 q 161 -72 161 -5 q 163 -85 161 -78 l 163 -89 q 151 -100 163 -100 q 140 -89 140 -100 q 179 -3 140 -57 q 428 235 264 115 q 581 350 551 325 q 632 410 619 382 q 634 421 634 414 q 543 602 634 460 q 420 808 420 792 q 425 821 420 814 q 474 833 433 833 q 559 823 513 833 q 714 785 578 820 q 840 762 800 762 q 953 829 953 762 q 951 842 953 835 l 951 846 q 962 857 951 857 q 975 846 975 857 z "},"∏":{"ha":964,"x_min":39,"x_max":1364,"o":"m 1364 771 q 1339 721 1364 749 q 1158 667 1291 667 q 1041 544 1089 625 q 953 355 1013 496 q 720 0 837 82 q 509 -72 616 -72 q 456 -57 452 -72 q 472 -54 457 -51 q 509 -61 497 -60 q 708 47 616 -66 q 890 375 770 123 q 1146 667 998 602 q 772 684 992 674 q 646 554 701 640 q 549 355 604 489 q 315 0 434 83 q 104 -72 212 -72 q 45 -53 39 -72 q 49 -50 45 -50 q 68 -55 50 -50 q 103 -61 85 -60 q 304 47 213 -65 q 486 375 366 123 q 610 564 536 479 q 761 684 688 653 q 652 685 732 685 q 478 676 525 685 q 387 616 387 661 l 387 603 q 380 596 387 596 q 371 603 371 596 q 396 653 371 624 q 533 724 447 711 q 620 728 566 728 q 914 713 669 728 q 1263 703 1185 695 q 1348 757 1348 711 l 1348 771 q 1354 779 1348 779 q 1364 771 1364 779 z "},"π":{"ha":501,"x_min":-8,"x_max":699,"o":"m 699 411 q 677 370 699 393 q 557 326 644 331 q 530 290 542 313 q 389 62 448 121 q 227 -17 310 -17 q 187 -1 187 -17 q 192 4 187 4 q 200 3 197 4 q 236 -7 216 -7 q 345 60 291 -7 q 391 136 365 85 q 439 229 434 220 q 534 326 474 292 q 466 330 521 326 q 382 335 406 334 q 347 289 361 318 q 210 64 267 120 q 31 -17 129 -17 q -8 -1 -8 -17 q -4 4 -8 4 q 15 -1 1 4 q 40 -7 28 -7 q 163 60 106 -7 q 212 139 185 86 q 261 235 259 231 q 368 335 300 305 q 224 330 264 338 q 147 279 147 317 l 147 268 q 142 264 146 264 q 134 268 135 264 q 154 310 134 285 q 265 367 199 363 q 441 359 301 369 q 616 355 571 351 q 685 400 685 362 l 685 411 q 690 416 685 416 q 699 411 699 416 z "},"∫":{"ha":486,"x_min":-271,"x_max":956,"o":"m 956 711 q 950 700 956 700 q 940 705 942 700 q 861 751 917 749 q 676 681 754 756 q 549 519 606 612 q 404 250 507 451 q 56 -240 225 -100 q -182 -340 -70 -345 q -271 -285 -262 -337 q -265 -273 -271 -273 q -256 -279 -258 -273 q -176 -325 -232 -323 q 8 -254 -77 -330 q 111 -132 64 -205 q 281 168 142 -81 l 392 368 q 629 667 495 555 q 867 766 753 771 q 956 711 947 764 z "},"ª":{"ha":478,"x_min":418,"x_max":794,"o":"m 794 779 q 726 688 794 768 q 633 619 669 619 q 583 677 583 619 q 600 732 583 703 q 478 619 517 619 q 435 641 452 619 q 418 696 418 663 q 547 857 418 786 q 637 888 603 888 q 667 860 667 888 q 664 839 667 848 l 688 885 q 713 880 702 880 q 746 885 725 880 l 663 746 q 621 653 621 676 q 637 631 621 631 q 783 778 682 631 q 789 783 785 781 q 794 779 793 783 m 657 859 q 639 876 657 876 q 525 795 595 876 q 454 663 454 714 q 481 631 454 631 q 590 736 511 631 q 657 859 657 825 z "},"º":{"ha":478,"x_min":443,"x_max":696,"o":"m 696 844 q 646 714 696 785 q 517 619 579 619 q 465 642 486 619 q 443 700 443 665 q 539 847 443 779 q 654 888 595 888 q 696 844 696 888 m 685 843 q 653 879 685 879 q 549 798 610 879 q 488 661 488 718 q 518 631 488 631 q 635 718 575 631 q 685 843 685 791 z "},"Ω":{"ha":943,"x_min":159,"x_max":1036,"o":"m 1036 536 q 888 195 1036 362 q 766 91 836 136 q 682 43 761 87 q 856 45 779 37 q 975 125 975 56 q 982 140 975 140 q 990 127 990 140 q 961 64 990 98 q 825 -2 905 -2 q 803 -1 814 -2 q 595 0 674 7 q 822 199 716 53 q 972 611 972 405 q 865 722 972 722 q 595 574 741 722 q 450 373 504 482 q 393 155 393 258 q 395 129 393 142 q 417 58 397 96 q 469 0 440 14 q 307 -1 403 5 q 288 -2 297 -2 q 171 64 197 -2 q 172 125 159 93 q 187 138 178 140 q 189 125 195 136 q 178 90 178 104 q 277 39 178 50 q 418 37 322 34 q 369 96 393 55 q 335 205 337 149 q 547 591 326 405 q 864 732 713 732 q 987 677 937 732 q 1036 536 1036 623 z "},"Ω":{"ha":943,"x_min":159,"x_max":1036,"o":"m 1036 536 q 888 195 1036 362 q 766 91 836 136 q 682 43 761 87 q 856 45 779 37 q 975 125 975 56 q 982 140 975 140 q 990 127 990 140 q 961 64 990 98 q 825 -2 905 -2 q 803 -1 814 -2 q 595 0 674 7 q 822 199 716 53 q 972 611 972 405 q 865 722 972 722 q 595 574 741 722 q 450 373 504 482 q 393 155 393 258 q 395 129 393 142 q 417 58 397 96 q 469 0 440 14 q 307 -1 403 5 q 288 -2 297 -2 q 171 64 197 -2 q 172 125 159 93 q 187 138 178 140 q 189 125 195 136 q 178 90 178 104 q 277 39 178 50 q 418 37 322 34 q 369 96 393 55 q 335 205 337 149 q 547 591 326 405 q 864 732 713 732 q 987 677 937 732 q 1036 536 1036 623 z "},"æ":{"ha":611,"x_min":72,"x_max":737,"o":"m 737 214 q 663 119 737 203 q 453 -16 543 -16 q 342 71 368 -16 q 140 -16 208 -16 q 92 3 111 -16 q 72 47 72 21 q 354 178 72 156 q 403 300 403 245 q 335 358 403 358 q 132 216 231 358 q 118 203 122 203 q 115 207 115 203 q 184 290 115 218 q 339 368 260 368 q 412 344 382 368 q 450 281 443 320 q 650 368 571 368 q 715 310 715 368 q 437 172 715 210 q 390 53 390 102 q 457 -5 390 -5 q 721 204 568 -5 q 734 216 730 216 q 737 214 737 216 m 684 335 q 653 357 684 357 q 441 180 568 357 q 609 247 535 199 q 684 335 684 294 m 350 170 q 179 112 242 153 q 117 20 117 72 q 146 -5 117 -5 q 238 43 181 -5 q 350 170 296 92 z "},"ø":{"ha":403,"x_min":74,"x_max":528,"o":"m 528 214 q 488 161 528 202 q 378 103 431 103 q 340 111 357 103 q 175 -16 252 -16 q 154 -14 163 -16 l 98 -98 l 82 -98 l 140 -9 q 74 98 74 22 q 211 301 74 203 q 367 368 304 368 q 382 367 375 368 l 433 447 l 449 447 l 395 364 q 428 306 428 345 q 346 118 428 228 q 376 110 359 110 q 513 205 447 110 q 525 216 520 216 q 528 214 528 216 m 418 304 q 390 355 418 340 l 161 -3 q 178 -4 168 -4 q 334 117 248 -4 q 314 161 314 138 q 340 230 314 195 q 392 265 367 265 q 407 252 403 265 q 418 304 418 275 m 376 358 q 366 359 372 359 q 218 241 307 359 q 129 43 129 122 q 149 3 129 22 l 376 358 z "},"¿":{"ha":606,"x_min":109,"x_max":753,"o":"m 753 764 q 724 709 753 736 q 667 681 694 681 q 639 708 639 681 q 667 766 639 739 q 724 794 694 794 q 753 764 753 794 m 707 289 q 588 86 707 178 q 323 -7 469 -6 q 439 -90 358 -90 q 492 -81 465 -90 q 498 -78 497 -78 q 503 -82 503 -79 q 480 -94 503 -87 q 439 -100 458 -100 q 314 -7 352 -100 q 166 50 223 -1 q 109 175 109 101 q 237 364 109 282 q 465 463 283 393 q 653 610 653 534 q 615 644 653 644 q 500 564 556 644 q 494 559 498 559 q 492 562 492 560 q 530 611 492 574 q 618 654 576 654 q 663 611 663 654 q 618 534 663 576 q 464 440 594 513 q 178 126 178 281 q 313 1 178 12 q 306 52 306 26 q 402 280 306 172 q 604 389 498 389 q 678 360 649 389 q 707 289 707 332 m 686 306 q 604 379 686 379 q 411 270 507 379 q 314 50 314 160 q 321 0 314 26 q 576 113 458 0 q 686 306 686 217 z "},"¡":{"ha":399,"x_min":121,"x_max":628,"o":"m 628 754 q 599 699 628 726 q 541 671 570 671 q 514 699 514 671 q 542 757 514 729 q 599 785 570 785 q 628 754 628 785 m 517 625 q 509 610 517 622 q 285 151 445 517 q 218 26 245 61 q 161 -8 191 -8 q 121 32 121 -8 q 191 162 121 61 q 277 278 234 220 q 501 623 444 509 q 511 631 506 631 q 517 625 517 631 z "},"¬":{"ha":835,"x_min":293,"x_max":907,"o":"m 907 371 l 726 0 l 700 0 l 868 346 l 293 346 l 306 371 l 907 371 z "},"√":{"ha":703,"x_min":214,"x_max":822,"o":"m 822 529 l 379 -47 l 290 189 l 221 136 l 214 163 l 323 245 l 404 28 l 807 554 l 822 529 z "},"ƒ":{"ha":664,"x_min":-171,"x_max":945,"o":"m 945 642 q 939 631 945 631 q 929 636 931 631 q 864 685 906 683 q 782 669 815 687 q 714 611 753 654 q 555 349 663 555 l 701 349 l 690 336 l 549 336 q 504 250 529 298 q 155 -240 326 -100 q -82 -340 30 -345 q -171 -285 -163 -337 q -165 -273 -171 -273 q -155 -279 -157 -273 q -77 -325 -132 -323 q 109 -254 18 -329 q 233 -96 163 -209 q 380 168 279 -22 q 474 336 430 260 l 350 336 l 361 349 l 481 349 l 493 368 q 669 600 583 520 q 869 697 779 701 q 945 642 937 694 z "},"≈":{"ha":726,"x_min":212,"x_max":924,"o":"m 924 461 q 761 370 841 370 q 570 418 711 370 q 443 444 493 444 q 297 374 362 444 l 283 386 q 446 469 361 469 q 611 431 499 469 l 629 425 q 760 395 717 395 q 907 471 836 395 l 924 461 m 852 329 q 690 237 770 237 q 498 286 640 237 q 372 313 422 313 q 227 240 291 313 l 212 254 q 375 338 290 338 q 541 298 429 338 l 559 292 q 689 262 646 262 q 836 339 766 262 l 852 329 z "},"⋲":{"ha":726,"x_min":212,"x_max":924,"o":"m 924 461 q 761 370 841 370 q 570 418 711 370 q 443 444 493 444 q 297 374 362 444 l 283 386 q 446 469 361 469 q 611 431 499 469 l 629 425 q 760 395 717 395 q 907 471 836 395 l 924 461 m 852 329 q 690 237 770 237 q 498 286 640 237 q 372 313 422 313 q 227 240 291 313 l 212 254 q 375 338 290 338 q 541 298 429 338 l 559 292 q 689 262 646 262 q 836 339 766 262 l 852 329 z "},"Δ":{"ha":694,"x_min":-1,"x_max":749,"o":"m 749 0 q 428 41 591 41 q -1 0 205 41 q 401 355 162 88 q 701 751 609 589 q 692 543 692 668 q 749 0 692 195 m 729 18 q 676 275 701 88 q 653 568 653 451 q 654 607 653 591 q 294 208 475 378 q 62 25 149 71 q 425 66 218 68 q 729 18 588 65 z "},"∆":{"ha":694,"x_min":-1,"x_max":749,"o":"m 749 0 q 428 41 591 41 q -1 0 205 41 q 401 355 162 88 q 701 751 609 589 q 692 543 692 668 q 749 0 692 195 m 729 18 q 676 275 701 88 q 653 568 653 451 q 654 607 653 591 q 294 208 475 378 q 62 25 149 71 q 425 66 218 68 q 729 18 588 65 z "},"«":{"ha":497,"x_min":140,"x_max":575,"o":"m 575 297 q 503 236 575 291 q 364 153 433 183 l 463 72 q 460 69 462 70 q 416 92 456 69 q 292 161 370 117 q 568 296 404 180 q 574 298 570 298 l 575 297 m 424 297 q 351 236 424 291 q 212 153 282 183 l 311 72 q 309 69 311 70 q 265 92 305 69 q 140 161 218 117 q 416 296 252 180 q 422 298 419 298 l 424 297 z "},"»":{"ha":497,"x_min":77,"x_max":519,"o":"m 519 178 q 243 65 399 155 q 229 58 231 58 l 228 60 q 315 122 228 71 q 443 186 401 174 q 340 272 380 241 q 338 277 338 275 q 392 248 340 277 q 519 178 444 219 m 368 178 q 92 65 248 155 q 78 58 80 58 l 77 60 q 163 122 77 71 q 292 186 250 174 q 189 272 229 241 q 186 277 186 275 q 241 248 189 277 q 368 178 293 219 z "},"…":{"ha":928,"x_min":155,"x_max":888,"o":"m 888 79 q 860 22 888 50 q 803 -7 832 -7 q 774 22 774 -7 q 803 79 774 51 q 861 107 831 107 q 888 79 888 107 m 579 79 q 551 21 579 49 q 494 -7 524 -7 q 465 22 465 -7 q 494 79 465 52 q 553 107 523 107 q 579 79 579 107 m 269 79 q 242 21 269 49 q 184 -7 214 -7 q 155 24 155 -7 q 184 79 155 52 q 243 107 214 107 q 269 79 269 107 z "}," ":{"ha":245,"x_min":0,"x_max":0,"o":""},"À":{"ha":1261,"x_min":121,"x_max":1938,"o":"m 1211 689 q 1186 653 1211 682 q 1055 574 1117 574 q 991 601 1016 574 q 966 673 966 629 q 1011 796 966 711 q 1032 861 1032 836 q 995 919 1032 895 q 903 943 957 943 q 615 824 747 943 q 482 566 482 705 q 527 450 482 495 q 642 406 571 406 q 796 461 718 406 q 905 596 873 517 q 911 603 907 603 q 917 596 917 603 q 893 546 917 582 q 844 485 869 509 q 639 395 753 395 q 515 442 562 395 q 468 568 468 490 q 606 833 468 711 q 905 956 744 956 q 1017 920 977 956 q 1057 823 1057 885 q 1025 714 1057 777 q 996 636 996 656 q 1055 586 996 586 q 1196 686 1123 586 q 1206 694 1202 694 q 1211 689 1211 694 m 1938 812 q 1923 800 1938 800 q 1878 808 1917 800 q 1757 823 1805 823 q 1564 694 1648 790 q 1373 385 1480 599 q 953 -4 1209 56 q 1046 -12 1006 -12 q 1255 68 1171 -12 q 1392 232 1337 145 q 1401 241 1398 241 q 1406 239 1405 241 q 1328 134 1406 229 q 1196 11 1255 45 q 1050 -22 1136 -22 q 929 -8 1000 -22 q 829 -22 886 -22 q 790 -8 790 -22 q 843 8 790 8 q 929 1 880 8 q 1088 84 1034 26 q 1296 396 1142 142 l 1035 396 q 778 147 869 221 q 378 -25 566 -25 q 196 25 271 -25 q 121 147 121 75 q 143 211 121 184 q 199 237 166 237 q 243 195 243 237 q 228 156 243 172 q 192 140 212 140 q 160 171 160 140 l 161 184 q 163 192 163 187 q 157 199 163 199 q 143 182 150 199 q 136 147 136 165 q 206 35 136 81 q 378 -11 276 -11 q 699 132 524 -11 q 787 216 739 164 q 942 375 884 318 l 962 396 l 831 396 l 839 408 q 972 407 904 408 q 1358 730 1171 628 q 1753 833 1545 832 q 1843 843 1801 843 q 1938 812 1938 843 m 1723 821 q 1394 719 1546 812 q 1046 407 1243 626 l 1303 407 q 1512 678 1390 558 q 1723 821 1633 798 m 1732 981 q 1728 978 1731 978 q 1684 1028 1711 978 q 1642 1135 1656 1078 l 1700 1175 q 1689 1109 1689 1142 q 1727 989 1689 1039 q 1732 981 1731 984 z "},"Ã":{"ha":1261,"x_min":121,"x_max":1938,"o":"m 1211 689 q 1186 653 1211 682 q 1055 574 1117 574 q 991 601 1016 574 q 966 673 966 629 q 1011 796 966 711 q 1032 861 1032 836 q 995 919 1032 895 q 903 943 957 943 q 615 824 747 943 q 482 566 482 705 q 527 450 482 495 q 642 406 571 406 q 796 461 718 406 q 905 596 873 517 q 911 603 907 603 q 917 596 917 603 q 893 546 917 582 q 844 485 869 509 q 639 395 753 395 q 515 442 562 395 q 468 568 468 490 q 606 833 468 711 q 905 956 744 956 q 1017 920 977 956 q 1057 823 1057 885 q 1025 714 1057 777 q 996 636 996 656 q 1055 586 996 586 q 1196 686 1123 586 q 1206 694 1202 694 q 1211 689 1211 694 m 1938 812 q 1923 800 1938 800 q 1878 808 1917 800 q 1757 823 1805 823 q 1564 694 1648 790 q 1373 385 1480 599 q 953 -4 1209 56 q 1046 -12 1006 -12 q 1255 68 1171 -12 q 1392 232 1337 145 q 1401 241 1398 241 q 1406 239 1405 241 q 1328 134 1406 229 q 1196 11 1255 45 q 1050 -22 1136 -22 q 929 -8 1000 -22 q 829 -22 886 -22 q 790 -8 790 -22 q 843 8 790 8 q 929 1 880 8 q 1088 84 1034 26 q 1296 396 1142 142 l 1035 396 q 778 147 869 221 q 378 -25 566 -25 q 196 25 271 -25 q 121 147 121 75 q 143 211 121 184 q 199 237 166 237 q 243 195 243 237 q 228 156 243 172 q 192 140 212 140 q 160 171 160 140 l 161 184 q 163 192 163 187 q 157 199 163 199 q 143 182 150 199 q 136 147 136 165 q 206 35 136 81 q 378 -11 276 -11 q 699 132 524 -11 q 787 216 739 164 q 942 375 884 318 l 962 396 l 831 396 l 839 408 q 972 407 904 408 q 1358 730 1171 628 q 1753 833 1545 832 q 1843 843 1801 843 q 1938 812 1938 843 m 1723 821 q 1394 719 1546 812 q 1046 407 1243 626 l 1303 407 q 1512 678 1390 558 q 1723 821 1633 798 m 1892 1053 q 1854 1026 1892 1044 q 1798 1009 1817 1009 q 1738 1019 1776 1009 l 1725 1022 q 1641 1038 1660 1038 q 1603 1028 1626 1038 q 1594 1024 1596 1024 q 1590 1027 1590 1024 q 1627 1054 1590 1036 q 1685 1072 1665 1072 q 1767 1057 1708 1072 l 1799 1050 q 1843 1044 1828 1044 q 1883 1053 1865 1044 q 1889 1056 1888 1056 q 1892 1053 1892 1055 z "},"Õ":{"ha":1101,"x_min":339,"x_max":1323,"o":"m 1260 542 q 1202 331 1260 438 q 1040 136 1143 223 q 828 3 941 52 q 619 -46 714 -46 q 417 39 494 -46 q 339 260 339 123 q 416 514 339 385 q 625 737 494 644 q 836 847 719 805 q 1047 889 953 889 q 1197 844 1141 889 q 1253 722 1253 798 q 1242 648 1253 691 q 1260 542 1260 595 m 1242 721 q 1194 831 1242 789 q 1067 873 1145 873 q 751 770 911 873 q 501 514 599 670 q 399 195 399 353 q 458 31 399 94 q 611 -32 517 -32 q 993 163 801 -32 q 1206 572 1185 359 q 1123 476 1183 532 q 1043 421 1064 421 q 1038 427 1038 421 q 1048 436 1038 430 q 1207 597 1158 497 q 1158 732 1207 682 q 1023 782 1108 782 q 700 614 866 782 q 534 286 534 446 q 564 183 534 222 q 643 143 594 143 q 690 157 666 143 q 714 183 714 170 q 711 187 713 187 q 705 184 711 187 q 679 176 697 176 q 647 214 647 176 q 663 252 647 237 q 700 268 678 268 q 743 220 743 268 q 712 157 743 184 q 640 131 682 131 q 543 179 582 131 q 504 298 504 227 q 676 628 504 464 q 1022 793 849 793 q 1154 758 1096 793 q 1234 667 1213 723 q 1242 721 1242 694 m 1323 1053 q 1285 1026 1323 1044 q 1229 1009 1248 1009 q 1169 1019 1207 1009 l 1156 1022 q 1072 1038 1091 1038 q 1034 1028 1057 1038 q 1025 1024 1027 1024 q 1021 1027 1021 1024 q 1058 1054 1021 1036 q 1116 1072 1096 1072 q 1198 1057 1139 1072 l 1230 1050 q 1274 1044 1259 1044 q 1314 1053 1296 1044 q 1320 1056 1319 1056 q 1323 1053 1323 1055 z "},"Œ":{"ha":1622,"x_min":340,"x_max":1830,"o":"m 1830 760 q 1747 714 1830 714 q 1436 775 1681 714 q 1321 611 1321 711 q 1354 542 1321 562 q 1426 547 1400 547 q 1497 530 1497 547 q 1458 519 1497 519 q 1357 533 1417 519 q 1229 496 1299 525 q 945 83 1190 261 q 1035 7 977 29 q 1200 -16 1093 -16 q 1164 110 1164 42 q 1270 330 1164 237 q 1537 441 1395 441 q 1657 404 1613 441 q 1702 302 1702 366 q 1558 80 1702 180 q 1225 -26 1414 -19 q 1410 -106 1291 -106 q 1569 -66 1500 -106 q 1578 -62 1573 -63 q 1584 -68 1584 -62 q 1523 -99 1584 -81 q 1415 -117 1462 -117 q 1208 -29 1294 -117 q 911 60 1004 -31 q 616 -45 745 -45 q 418 44 496 -45 q 340 272 340 134 q 406 515 340 391 q 585 737 471 640 q 806 875 685 824 q 1031 926 928 926 q 1152 910 1097 926 q 1312 842 1205 894 q 1400 803 1337 829 q 1609 844 1498 844 q 1765 820 1700 844 q 1830 760 1830 795 m 1817 761 q 1761 808 1817 787 q 1632 828 1705 828 q 1451 785 1533 828 q 1753 726 1632 726 q 1817 761 1817 726 m 1686 311 q 1649 394 1686 362 q 1550 425 1611 425 q 1312 326 1430 425 q 1193 79 1193 226 q 1218 -14 1193 28 q 1533 93 1379 -14 q 1686 311 1686 199 m 1200 485 q 926 164 926 357 q 936 104 926 134 q 1102 281 1029 176 q 1200 485 1175 387 m 1386 796 q 1307 829 1353 807 q 1044 909 1141 909 q 741 803 893 909 q 503 541 595 701 q 406 208 406 374 q 464 35 406 102 q 616 -32 523 -32 q 897 75 748 -32 q 854 191 854 132 q 951 387 854 297 q 1208 517 1048 476 q 1218 606 1218 567 q 1158 757 1218 699 q 1002 815 1098 815 q 704 656 852 815 q 526 285 526 464 q 561 185 526 222 q 652 147 595 147 q 704 160 678 147 q 730 186 730 174 q 726 192 730 192 q 722 189 726 191 q 697 182 708 182 q 665 218 665 182 q 718 272 665 272 q 760 225 760 272 q 728 161 760 186 q 648 135 696 135 q 546 181 585 135 q 507 301 507 227 q 670 654 507 480 q 1002 828 833 828 q 1173 761 1109 828 q 1236 581 1236 693 q 1232 522 1236 570 q 1340 541 1280 533 q 1265 640 1265 572 q 1386 796 1265 734 z "},"œ":{"ha":578,"x_min":74,"x_max":703,"o":"m 703 214 q 646 140 703 210 q 418 -16 517 -16 q 309 71 330 -16 q 168 -16 234 -16 q 100 16 126 -16 q 74 96 74 47 q 221 306 74 213 q 382 368 320 368 q 431 314 431 368 q 428 289 431 301 q 614 368 542 368 q 664 321 664 368 q 403 172 664 232 q 357 54 357 99 q 422 -5 357 -5 q 602 103 502 -5 q 693 211 659 165 q 699 216 697 216 q 703 214 703 216 m 635 338 q 614 358 635 358 q 410 182 537 358 q 569 253 504 208 q 635 338 635 298 m 421 318 q 382 358 421 358 q 223 239 321 358 q 125 46 125 121 q 170 -5 125 -5 q 304 94 236 -5 q 407 273 304 189 q 421 318 421 301 z "},"–":{"ha":618,"x_min":186,"x_max":616,"o":"m 616 189 q 608 183 615 185 l 582 172 q 469 146 519 146 q 359 163 443 146 q 290 171 318 171 q 195 146 231 171 q 189 143 192 143 q 186 146 186 144 q 257 183 186 159 q 368 207 329 207 q 457 189 397 207 q 534 174 507 174 q 606 189 568 174 q 614 192 612 192 q 616 189 616 191 z "},"—":{"ha":829,"x_min":182,"x_max":829,"o":"m 829 189 q 787 170 829 186 q 650 138 705 138 q 525 154 604 138 q 343 180 399 180 q 195 146 253 180 q 186 143 190 143 q 182 146 182 144 q 272 189 182 161 q 414 216 363 216 q 568 191 456 216 q 704 170 657 170 q 812 189 748 170 q 825 192 821 191 q 829 189 829 192 z "},"“":{"ha":418,"x_min":354,"x_max":631,"o":"m 631 701 q 625 696 631 698 q 551 635 551 668 q 558 631 551 631 q 589 602 589 631 q 561 545 589 575 q 510 515 534 515 q 482 545 482 515 q 537 644 482 583 q 627 705 592 705 q 631 701 631 705 m 503 701 q 490 693 503 698 q 445 665 465 683 q 424 635 424 647 q 431 631 424 631 q 461 602 461 631 q 434 545 461 575 q 382 515 406 515 q 354 545 354 515 q 409 644 354 583 q 498 705 464 705 q 503 701 503 705 z "},"”":{"ha":418,"x_min":346,"x_max":628,"o":"m 628 676 q 553 553 628 612 q 482 515 505 515 q 478 519 478 515 q 492 528 478 523 q 536 555 515 536 q 557 586 557 574 q 550 590 557 590 q 521 618 521 590 q 548 676 521 646 q 600 705 575 705 q 628 676 628 705 m 494 676 q 444 576 494 630 q 394 536 425 556 q 350 515 363 515 q 346 519 346 515 q 351 525 346 523 q 425 586 425 553 q 418 590 425 590 q 387 619 387 590 q 415 675 387 646 q 467 705 443 705 q 494 676 494 705 z "},"‘":{"ha":290,"x_min":354,"x_max":503,"o":"m 503 701 q 490 693 503 698 q 445 665 465 683 q 424 635 424 647 q 431 631 424 631 q 461 602 461 631 q 434 545 461 575 q 382 515 406 515 q 354 545 354 515 q 409 644 354 583 q 498 705 464 705 q 503 701 503 705 z "},"’":{"ha":290,"x_min":349,"x_max":497,"o":"m 497 676 q 447 576 497 630 q 397 536 428 556 q 353 515 366 515 q 349 519 349 515 q 354 525 349 523 q 428 586 428 553 q 421 590 428 590 q 390 619 390 590 q 418 675 390 646 q 469 705 446 705 q 497 676 497 705 z "},"÷":{"ha":726,"x_min":245,"x_max":884,"o":"m 681 515 q 656 465 681 489 q 606 440 631 440 q 579 467 579 440 q 605 516 579 492 q 657 541 631 541 q 681 515 681 541 m 882 358 q 840 346 880 346 l 268 346 q 248 358 245 346 q 289 371 250 371 l 859 371 q 882 358 884 371 m 549 236 q 524 184 549 209 q 472 160 499 160 q 447 187 447 160 q 473 236 447 212 q 525 260 499 260 q 549 236 549 260 z "},"◊":{"ha":694,"x_min":292,"x_max":781,"o":"m 781 347 q 536 138 676 288 q 358 -85 415 9 q 359 -50 359 -68 q 342 153 359 45 q 292 347 323 278 q 538 557 399 408 q 714 779 656 684 q 713 742 713 762 q 729 541 713 646 q 781 347 748 416 m 768 351 q 713 513 744 395 q 681 681 682 630 q 469 458 600 565 q 302 343 377 384 q 360 181 330 298 q 390 16 389 69 q 596 230 477 129 q 768 351 698 317 z "},"ÿ":{"ha":428,"x_min":-233,"x_max":553,"o":"m 553 212 q 478 119 553 202 q 262 -45 395 28 l 229 -104 q 24 -367 131 -281 q -168 -456 -87 -456 q -215 -438 -196 -456 q -233 -395 -233 -420 q 81 -113 -233 -258 q 158 -77 106 -100 l 168 -71 l 288 142 q 185 15 217 45 q 121 -16 153 -16 q 72 8 93 -16 q 52 64 52 32 q 100 184 52 102 l 204 361 q 240 358 220 358 q 289 363 258 358 l 155 146 q 98 25 98 54 q 126 -5 98 -5 q 351 254 199 -5 l 414 361 q 452 358 429 358 q 497 363 470 358 q 269 -29 413 229 q 409 63 352 14 q 536 204 466 113 q 549 216 546 216 q 553 212 553 216 m 161 -82 q 85 -121 151 -88 q -224 -396 -224 -274 q -167 -447 -224 -447 q -24 -369 -95 -447 q 153 -96 47 -291 q 161 -82 153 -96 m 506 500 q 488 455 506 475 q 446 435 469 435 q 413 465 413 435 q 433 508 413 488 q 477 528 453 528 q 506 500 506 528 m 391 500 q 372 455 391 475 q 331 435 354 435 q 298 467 298 435 q 318 509 298 490 q 361 528 338 528 q 391 500 391 528 z "},"Ÿ":{"ha":1293,"x_min":204,"x_max":1678,"o":"m 1553 1061 q 1535 1016 1553 1036 q 1493 996 1516 996 q 1460 1027 1460 996 q 1480 1069 1460 1050 q 1524 1089 1500 1089 q 1553 1061 1553 1089 m 1438 1061 q 1419 1016 1438 1036 q 1378 996 1401 996 q 1345 1028 1345 996 q 1365 1070 1345 1051 q 1409 1089 1385 1089 q 1438 1061 1438 1089 m 1678 754 q 1672 749 1677 752 q 1456 525 1555 666 q 1242 135 1360 387 q 966 -212 1140 -82 q 607 -342 791 -342 q 456 -299 515 -342 q 397 -191 397 -257 q 422 -122 397 -151 q 481 -94 446 -94 q 525 -136 525 -94 q 510 -175 525 -159 q 473 -192 494 -192 q 437 -158 437 -192 q 440 -143 437 -150 q 441 -135 441 -140 q 439 -131 441 -131 q 420 -150 429 -131 q 411 -191 411 -170 q 465 -291 411 -251 q 603 -330 519 -330 q 818 -269 715 -330 q 984 -125 920 -208 q 1177 191 1047 -44 q 1283 370 1221 271 q 1060 121 1133 189 q 836 -7 923 -7 q 751 32 784 -7 q 718 134 718 71 q 755 264 718 197 q 908 479 791 330 q 1059 790 1059 670 q 867 949 1059 949 q 439 754 653 949 q 291 564 351 674 q 232 370 232 454 q 279 240 232 288 q 406 192 326 192 q 675 325 547 192 q 829 621 829 485 q 802 698 829 669 q 730 728 775 728 q 522 605 631 728 q 412 372 412 483 q 481 301 412 301 l 484 301 q 490 297 490 301 q 473 292 490 292 q 412 323 436 292 q 389 404 389 354 q 500 630 389 520 q 729 739 612 739 q 811 707 781 739 q 842 621 842 675 q 717 351 842 499 q 407 179 571 179 q 260 241 315 179 q 204 404 204 302 q 416 777 204 606 q 644 910 522 861 q 867 960 766 960 q 1036 900 974 960 q 1097 734 1097 840 q 1059 572 1097 651 q 909 349 1021 493 q 787 179 813 223 q 761 92 761 134 q 842 7 761 7 q 1022 99 917 7 q 1299 410 1127 192 q 1655 754 1476 634 l 1664 760 q 1671 762 1670 762 q 1678 754 1678 762 z "},"⁄":{"ha":94,"x_min":-132,"x_max":610,"o":"m 610 777 q 578 709 610 737 q 515 678 551 686 q 420 570 483 642 q -57 -56 119 211 q -97 -47 -75 -47 q -132 -50 -117 -47 q 156 281 -12 94 q 416 572 385 536 q 511 685 451 615 q 553 738 532 711 q 603 783 591 783 q 610 777 610 783 z "},"∕":{"ha":94,"x_min":-132,"x_max":610,"o":"m 610 777 q 578 709 610 737 q 515 678 551 686 q 420 570 483 642 q -57 -56 119 211 q -97 -47 -75 -47 q -132 -50 -117 -47 q 156 281 -12 94 q 416 572 385 536 q 511 685 451 615 q 553 738 532 711 q 603 783 591 783 q 610 777 610 783 z "},"€":{"ha":664,"x_min":203,"x_max":908,"o":"m 908 543 q 839 393 908 457 q 682 328 769 328 q 624 342 650 328 q 592 389 592 359 q 597 397 592 397 q 600 392 600 397 q 652 351 606 351 q 804 424 730 351 q 878 574 878 497 q 793 649 878 649 q 593 581 705 649 q 410 431 492 520 l 655 431 l 644 418 l 399 418 q 331 322 356 369 l 567 322 l 556 310 l 325 310 q 286 159 286 230 q 454 9 286 9 q 777 235 621 9 q 799 259 793 259 q 804 254 803 259 q 714 133 804 229 q 452 -7 583 -7 q 279 60 340 -7 q 224 215 224 120 q 239 310 224 262 l 203 310 l 214 322 l 243 322 q 290 412 260 371 l 295 418 l 203 418 l 214 431 l 304 431 q 518 597 385 530 q 774 664 652 664 q 869 633 832 664 q 908 543 908 600 z "},"‹":{"ha":346,"x_min":140,"x_max":424,"o":"m 424 297 q 342 229 411 279 q 212 153 264 173 q 311 72 245 127 q 309 69 311 70 q 230 111 304 69 q 140 161 155 152 q 416 296 252 180 q 422 298 419 298 l 424 297 z "},"›":{"ha":346,"x_min":77,"x_max":368,"o":"m 368 178 q 92 65 248 155 q 78 58 80 58 l 77 60 q 163 122 77 71 q 292 186 250 174 q 189 272 229 241 q 186 277 186 275 q 241 248 189 277 q 368 178 293 219 z "},"":{"ha":432,"x_min":-422,"x_max":586,"o":"m 558 489 q 538 443 558 464 q 494 422 518 422 q 464 453 464 422 q 485 496 464 475 q 529 517 506 517 q 558 489 558 517 m 586 699 q 500 547 586 638 q 277 368 415 456 l 350 368 q 433 297 433 368 q 416 236 433 264 l 343 110 q 310 25 310 52 q 338 -5 310 -5 q 546 210 397 -5 q 554 216 549 216 q 557 212 557 216 q 550 201 557 208 q 521 161 549 199 q 332 -16 392 -16 q 280 7 300 -16 q 260 64 260 30 q 307 183 260 106 l 365 278 q 386 334 386 315 q 355 358 386 358 l 269 358 l 214 250 q 39 -50 113 54 q -129 -232 -35 -153 q -372 -340 -260 -340 q -422 -326 -422 -340 q -415 -321 -422 -321 q -407 -322 -410 -321 q -361 -328 -385 -328 q -176 -245 -269 -328 q -76 -127 -119 -195 q 90 168 -41 -73 l 195 358 l 122 358 l 127 368 l 201 368 q 393 623 288 515 q 555 730 498 730 q 586 699 586 730 m 578 700 q 555 722 578 722 q 415 604 504 722 q 282 382 371 545 q 486 558 393 459 q 578 700 578 657 z "},"":{"ha":428,"x_min":-422,"x_max":688,"o":"m 688 693 q 355 135 402 218 q 307 26 307 52 q 334 -5 307 -5 q 543 210 391 -5 q 551 216 547 216 q 554 212 554 216 q 547 201 554 208 l 518 161 q 330 -16 391 -16 q 281 6 300 -16 q 262 62 262 28 q 280 137 262 101 q 400 343 297 173 l 461 444 q 541 581 488 488 q 277 368 473 492 l 393 368 l 387 358 l 269 358 l 214 250 q 39 -50 113 54 q -129 -232 -35 -153 q -372 -340 -260 -340 q -422 -326 -422 -340 q -415 -321 -422 -321 q -407 -322 -410 -321 q -361 -328 -385 -328 q -176 -245 -269 -328 q -76 -127 -119 -195 q 90 168 -41 -73 l 195 358 l 122 358 l 127 368 l 201 368 q 394 625 290 519 q 559 730 499 730 q 603 697 603 730 l 603 690 q 642 686 628 686 q 688 693 665 686 m 595 697 q 561 722 595 722 q 415 604 503 722 q 282 382 363 534 q 496 558 397 458 q 595 697 595 658 z "},"‡":{"ha":664,"x_min":268,"x_max":854,"o":"m 854 536 q 837 504 854 517 q 793 490 819 490 q 720 509 772 490 q 625 525 682 521 q 595 414 612 487 q 572 335 581 356 q 534 264 557 311 q 511 211 528 250 q 597 224 558 213 q 688 243 669 243 q 739 216 739 243 q 721 186 739 199 q 677 174 703 174 q 593 191 658 174 q 507 200 555 200 q 476 83 496 164 q 447 -60 467 35 q 372 -186 420 -186 q 336 -147 336 -186 q 349 -89 336 -117 q 428 60 361 -60 q 493 200 478 151 q 347 176 437 199 q 310 172 330 172 q 268 199 268 172 q 286 231 268 218 q 330 244 304 244 q 403 228 351 244 q 496 211 444 215 q 509 278 502 234 q 529 369 518 342 q 585 471 539 395 q 610 525 599 494 q 526 511 566 522 q 432 493 457 493 q 385 521 385 493 q 444 562 385 562 q 529 546 466 562 q 614 536 566 536 q 676 790 624 570 q 711 894 694 867 q 754 921 727 921 q 785 885 785 921 q 773 834 785 859 q 693 681 762 810 q 629 534 643 587 q 775 558 681 536 q 811 562 793 562 q 854 536 854 562 z "},"·":{"ha":321,"x_min":204,"x_max":325,"o":"m 325 183 q 298 122 325 150 q 237 94 271 94 q 204 126 204 94 q 233 186 204 157 q 292 215 261 215 q 325 183 325 215 z "},"∙":{"ha":321,"x_min":204,"x_max":325,"o":"m 325 183 q 298 122 325 150 q 237 94 271 94 q 204 126 204 94 q 233 186 204 157 q 292 215 261 215 q 325 183 325 215 z "},"‚":{"ha":290,"x_min":53,"x_max":201,"o":"m 201 82 q 151 -18 201 36 q 101 -59 132 -39 q 57 -79 69 -79 q 53 -75 53 -79 q 58 -69 53 -71 q 110 -40 87 -59 q 132 -8 132 -22 q 125 -4 132 -4 q 94 25 94 -4 q 122 81 94 52 q 174 111 149 111 q 201 82 201 111 z "},"„":{"ha":418,"x_min":50,"x_max":332,"o":"m 332 82 q 257 -41 332 18 q 186 -79 210 -79 q 182 -75 182 -79 q 187 -69 182 -71 q 261 -8 261 -42 q 258 -4 261 -5 l 252 -4 q 225 24 225 -4 q 252 81 225 52 q 304 111 279 111 q 332 82 332 111 m 199 82 q 149 -18 199 36 q 98 -59 130 -39 q 54 -79 66 -79 q 50 -75 50 -79 q 56 -69 50 -71 q 106 -40 84 -59 q 129 -8 129 -22 q 122 -4 129 -4 q 92 25 92 -4 q 119 81 92 52 q 171 111 146 111 q 199 82 199 111 z "},"‰":{"ha":1015,"x_min":326,"x_max":1125,"o":"m 1125 326 q 1058 181 1125 258 q 932 104 991 104 q 881 125 901 104 q 861 178 861 145 q 935 311 861 240 q 1074 382 1009 382 q 1125 326 1125 382 m 1107 336 q 1078 372 1107 372 q 967 289 1032 372 q 903 149 903 206 q 932 114 903 114 q 1043 194 980 114 q 1107 336 1107 275 m 832 699 q 825 686 832 694 q 425 66 686 537 q 374 74 399 74 q 335 71 371 74 q 765 629 544 361 l 785 653 q 643 553 739 606 q 543 463 583 519 q 397 355 469 355 q 346 376 366 355 q 326 431 326 397 q 400 563 326 492 q 539 633 474 633 q 590 578 590 633 q 561 496 590 543 q 684 597 606 553 q 818 696 768 646 q 828 703 825 703 q 832 699 831 701 m 572 587 q 543 624 572 624 q 433 541 497 624 q 368 399 368 457 q 397 366 368 366 q 509 446 446 366 q 572 587 572 526 m 852 326 q 785 182 852 259 q 660 104 718 104 q 609 125 629 104 q 589 178 589 145 q 662 311 589 240 q 802 382 736 382 q 852 326 852 382 m 835 336 q 806 372 835 372 q 695 289 760 372 q 631 149 631 206 q 660 114 631 114 q 771 194 708 114 q 835 336 835 275 z "},"Â":{"ha":1261,"x_min":121,"x_max":1938,"o":"m 1211 689 q 1186 653 1211 682 q 1055 574 1117 574 q 991 601 1016 574 q 966 673 966 629 q 1011 796 966 711 q 1032 861 1032 836 q 995 919 1032 895 q 903 943 957 943 q 615 824 747 943 q 482 566 482 705 q 527 450 482 495 q 642 406 571 406 q 796 461 718 406 q 905 596 873 517 q 911 603 907 603 q 917 596 917 603 q 893 546 917 582 q 844 485 869 509 q 639 395 753 395 q 515 442 562 395 q 468 568 468 490 q 606 833 468 711 q 905 956 744 956 q 1017 920 977 956 q 1057 823 1057 885 q 1025 714 1057 777 q 996 636 996 656 q 1055 586 996 586 q 1196 686 1123 586 q 1206 694 1202 694 q 1211 689 1211 694 m 1938 812 q 1923 800 1938 800 q 1878 808 1917 800 q 1757 823 1805 823 q 1564 694 1648 790 q 1373 385 1480 599 q 953 -4 1209 56 q 1046 -12 1006 -12 q 1255 68 1171 -12 q 1392 232 1337 145 q 1401 241 1398 241 q 1406 239 1405 241 q 1328 134 1406 229 q 1196 11 1255 45 q 1050 -22 1136 -22 q 929 -8 1000 -22 q 829 -22 886 -22 q 790 -8 790 -22 q 843 8 790 8 q 929 1 880 8 q 1088 84 1034 26 q 1296 396 1142 142 l 1035 396 q 778 147 869 221 q 378 -25 566 -25 q 196 25 271 -25 q 121 147 121 75 q 143 211 121 184 q 199 237 166 237 q 243 195 243 237 q 228 156 243 172 q 192 140 212 140 q 160 171 160 140 l 161 184 q 163 192 163 187 q 157 199 163 199 q 143 182 150 199 q 136 147 136 165 q 206 35 136 81 q 378 -11 276 -11 q 699 132 524 -11 q 787 216 739 164 q 942 375 884 318 l 962 396 l 831 396 l 839 408 q 972 407 904 408 q 1358 730 1171 628 q 1753 833 1545 832 q 1843 843 1801 843 q 1938 812 1938 843 m 1723 821 q 1394 719 1546 812 q 1046 407 1243 626 l 1303 407 q 1512 678 1390 558 q 1723 821 1633 798 m 1824 1175 q 1812 1009 1816 1089 q 1809 1004 1812 1004 q 1805 1019 1807 1004 q 1790 1103 1801 1077 q 1666 1038 1747 1074 q 1563 1002 1584 1002 q 1558 1005 1558 1002 q 1568 1010 1559 1007 q 1718 1090 1643 1042 q 1824 1175 1794 1139 z "},"Ê":{"ha":1168,"x_min":215,"x_max":1447,"o":"m 1447 1177 q 1436 1012 1440 1092 q 1433 1006 1436 1007 q 1429 1022 1430 1006 q 1414 1105 1424 1080 q 1289 1041 1371 1077 q 1186 1005 1208 1005 q 1182 1008 1182 1005 q 1192 1013 1183 1010 q 1342 1093 1266 1044 q 1447 1177 1418 1142 m 1440 760 q 1357 714 1440 714 q 1044 775 1291 714 q 929 610 929 709 q 962 543 929 562 q 1035 547 1010 547 q 1105 530 1105 547 q 1068 519 1105 519 q 965 533 1021 519 q 790 475 890 522 q 536 160 536 353 q 675 -3 536 32 q 650 93 650 39 q 786 339 650 227 q 1084 452 922 452 q 1203 415 1159 452 q 1247 317 1247 378 q 1102 78 1247 184 q 775 -28 957 -28 q 707 -24 739 -28 q 900 -111 772 -111 q 1029 -87 979 -111 l 1038 -86 q 1042 -92 1042 -87 q 991 -112 1042 -101 q 900 -122 941 -122 q 684 -20 758 -122 q 521 59 580 3 q 463 187 463 114 q 544 371 463 286 q 761 501 625 457 q 949 541 843 528 q 873 642 873 572 q 983 790 873 730 q 724 828 826 828 q 381 728 523 828 q 240 485 240 627 q 277 376 240 421 q 367 330 315 330 q 403 342 403 330 q 390 346 403 348 q 354 379 354 346 q 370 412 354 398 q 408 425 386 425 q 452 383 452 425 q 427 336 452 355 q 367 317 402 317 q 259 373 304 317 q 215 510 215 430 q 319 730 215 630 q 668 850 444 850 q 1000 799 793 850 q 1218 844 1094 844 q 1375 820 1310 844 q 1440 760 1440 795 m 1426 761 q 1370 808 1426 787 q 1242 828 1314 828 q 1060 785 1142 828 q 1362 726 1240 726 q 1426 761 1426 726 m 1235 322 q 1196 403 1235 371 q 1099 435 1158 435 q 814 314 953 435 q 675 66 675 193 q 697 -8 675 30 q 770 -16 736 -16 q 1082 95 930 -16 q 1235 322 1235 206 z "},"Á":{"ha":1261,"x_min":121,"x_max":1963,"o":"m 1211 689 q 1186 653 1211 682 q 1055 574 1117 574 q 991 601 1016 574 q 966 673 966 629 q 1011 796 966 711 q 1032 861 1032 836 q 995 919 1032 895 q 903 943 957 943 q 615 824 747 943 q 482 566 482 705 q 527 450 482 495 q 642 406 571 406 q 796 461 718 406 q 905 596 873 517 q 911 603 907 603 q 917 596 917 603 q 893 546 917 582 q 844 485 869 509 q 639 395 753 395 q 515 442 562 395 q 468 568 468 490 q 606 833 468 711 q 905 956 744 956 q 1017 920 977 956 q 1057 823 1057 885 q 1025 714 1057 777 q 996 636 996 656 q 1055 586 996 586 q 1196 686 1123 586 q 1206 694 1202 694 q 1211 689 1211 694 m 1938 812 q 1923 800 1938 800 q 1878 808 1917 800 q 1757 823 1805 823 q 1564 694 1648 790 q 1373 385 1480 599 q 953 -4 1209 56 q 1046 -12 1006 -12 q 1255 68 1171 -12 q 1392 232 1337 145 q 1401 241 1398 241 q 1406 239 1405 241 q 1328 134 1406 229 q 1196 11 1255 45 q 1050 -22 1136 -22 q 929 -8 1000 -22 q 829 -22 886 -22 q 790 -8 790 -22 q 843 8 790 8 q 929 1 880 8 q 1088 84 1034 26 q 1296 396 1142 142 l 1035 396 q 778 147 869 221 q 378 -25 566 -25 q 196 25 271 -25 q 121 147 121 75 q 143 211 121 184 q 199 237 166 237 q 243 195 243 237 q 228 156 243 172 q 192 140 212 140 q 160 171 160 140 l 161 184 q 163 192 163 187 q 157 199 163 199 q 143 182 150 199 q 136 147 136 165 q 206 35 136 81 q 378 -11 276 -11 q 699 132 524 -11 q 787 216 739 164 q 942 375 884 318 l 962 396 l 831 396 l 839 408 q 972 407 904 408 q 1358 730 1171 628 q 1753 833 1545 832 q 1843 843 1801 843 q 1938 812 1938 843 m 1723 821 q 1394 719 1546 812 q 1046 407 1243 626 l 1303 407 q 1512 678 1390 558 q 1723 821 1633 798 m 1963 1129 q 1795 1035 1898 1078 q 1705 1001 1716 1001 q 1701 1002 1702 1001 q 1709 1008 1701 1004 q 1935 1172 1868 1084 l 1963 1129 z "},"Ë":{"ha":1168,"x_min":215,"x_max":1440,"o":"m 1395 1060 q 1377 1015 1395 1035 q 1335 995 1358 995 q 1302 1025 1302 995 q 1322 1068 1302 1048 q 1366 1088 1342 1088 q 1395 1060 1395 1088 m 1280 1060 q 1261 1015 1280 1035 q 1220 995 1243 995 q 1187 1027 1187 995 q 1207 1069 1187 1050 q 1251 1088 1227 1088 q 1280 1060 1280 1088 m 1440 760 q 1357 714 1440 714 q 1044 775 1291 714 q 929 610 929 709 q 962 543 929 562 q 1035 547 1010 547 q 1105 530 1105 547 q 1068 519 1105 519 q 965 533 1021 519 q 790 475 890 522 q 536 160 536 353 q 675 -3 536 32 q 650 93 650 39 q 786 339 650 227 q 1084 452 922 452 q 1203 415 1159 452 q 1247 317 1247 378 q 1102 78 1247 184 q 775 -28 957 -28 q 707 -24 739 -28 q 900 -111 772 -111 q 1029 -87 979 -111 l 1038 -86 q 1042 -92 1042 -87 q 991 -112 1042 -101 q 900 -122 941 -122 q 684 -20 758 -122 q 521 59 580 3 q 463 187 463 114 q 544 371 463 286 q 761 501 625 457 q 949 541 843 528 q 873 642 873 572 q 983 790 873 730 q 724 828 826 828 q 381 728 523 828 q 240 485 240 627 q 277 376 240 421 q 367 330 315 330 q 403 342 403 330 q 390 346 403 348 q 354 379 354 346 q 370 412 354 398 q 408 425 386 425 q 452 383 452 425 q 427 336 452 355 q 367 317 402 317 q 259 373 304 317 q 215 510 215 430 q 319 730 215 630 q 668 850 444 850 q 1000 799 793 850 q 1218 844 1094 844 q 1375 820 1310 844 q 1440 760 1440 795 m 1426 761 q 1370 808 1426 787 q 1242 828 1314 828 q 1060 785 1142 828 q 1362 726 1240 726 q 1426 761 1426 726 m 1235 322 q 1196 403 1235 371 q 1099 435 1158 435 q 814 314 953 435 q 675 66 675 193 q 697 -8 675 30 q 770 -16 736 -16 q 1082 95 930 -16 q 1235 322 1235 206 z "},"È":{"ha":1168,"x_min":215,"x_max":1440,"o":"m 1440 760 q 1357 714 1440 714 q 1044 775 1291 714 q 929 610 929 709 q 962 543 929 562 q 1035 547 1010 547 q 1105 530 1105 547 q 1068 519 1105 519 q 965 533 1021 519 q 790 475 890 522 q 536 160 536 353 q 675 -3 536 32 q 650 93 650 39 q 786 339 650 227 q 1084 452 922 452 q 1203 415 1159 452 q 1247 317 1247 378 q 1102 78 1247 184 q 775 -28 957 -28 q 707 -24 739 -28 q 900 -111 772 -111 q 1029 -87 979 -111 l 1038 -86 q 1042 -92 1042 -87 q 991 -112 1042 -101 q 900 -122 941 -122 q 684 -20 758 -122 q 521 59 580 3 q 463 187 463 114 q 544 371 463 286 q 761 501 625 457 q 949 541 843 528 q 873 642 873 572 q 983 790 873 730 q 724 828 826 828 q 381 728 523 828 q 240 485 240 627 q 277 376 240 421 q 367 330 315 330 q 403 342 403 330 q 390 346 403 348 q 354 379 354 346 q 370 412 354 398 q 408 425 386 425 q 452 383 452 425 q 427 336 452 355 q 367 317 402 317 q 259 373 304 317 q 215 510 215 430 q 319 730 215 630 q 668 850 444 850 q 1000 799 793 850 q 1218 844 1094 844 q 1375 820 1310 844 q 1440 760 1440 795 m 1426 761 q 1370 808 1426 787 q 1242 828 1314 828 q 1060 785 1142 828 q 1362 726 1240 726 q 1426 761 1426 726 m 1235 322 q 1196 403 1235 371 q 1099 435 1158 435 q 814 314 953 435 q 675 66 675 193 q 697 -8 675 30 q 770 -16 736 -16 q 1082 95 930 -16 q 1235 322 1235 206 m 1289 984 q 1284 981 1288 981 q 1240 1031 1267 981 q 1198 1138 1213 1082 l 1257 1179 q 1245 1113 1245 1145 q 1283 992 1245 1042 q 1289 984 1288 987 z "},"Í":{"ha":886,"x_min":96,"x_max":1512,"o":"m 1413 897 q 1357 861 1413 886 q 1229 817 1301 836 q 895 386 1060 696 l 884 366 q 903 364 892 364 q 1055 415 985 364 q 1140 538 1125 466 q 1147 549 1143 549 q 1152 543 1152 549 q 1107 449 1152 502 q 900 353 1027 353 q 876 354 888 353 l 857 317 q 770 176 808 222 q 673 89 734 132 q 325 -32 503 -32 q 160 10 225 -32 q 96 118 96 52 q 116 178 96 153 q 164 203 136 203 q 208 157 208 203 q 194 119 208 134 q 158 103 179 103 q 126 134 126 103 l 126 147 q 122 154 126 153 q 110 119 110 154 q 167 21 110 61 q 309 -18 224 -18 q 676 186 513 -18 q 806 372 724 246 q 690 534 690 422 q 843 736 690 670 q 1086 798 920 770 l 1161 810 l 1225 823 q 1320 877 1261 850 q 1401 904 1379 904 q 1413 897 1413 904 m 1208 811 q 1162 800 1193 808 q 1089 782 1137 793 q 826 666 924 743 q 728 501 728 590 q 811 380 728 416 q 1208 811 991 667 m 1512 1133 q 1344 1038 1447 1081 q 1254 1004 1265 1004 q 1250 1006 1251 1004 q 1258 1012 1250 1008 q 1485 1175 1417 1087 l 1512 1133 z "},"Î":{"ha":886,"x_min":96,"x_max":1413,"o":"m 1413 897 q 1357 861 1413 886 q 1229 817 1301 836 q 895 386 1060 696 l 884 366 q 903 364 892 364 q 1055 415 985 364 q 1140 538 1125 466 q 1147 549 1143 549 q 1152 543 1152 549 q 1107 449 1152 502 q 900 353 1027 353 q 876 354 888 353 l 857 317 q 770 176 808 222 q 673 89 734 132 q 325 -32 503 -32 q 160 10 225 -32 q 96 118 96 52 q 116 178 96 153 q 164 203 136 203 q 208 157 208 203 q 194 119 208 134 q 158 103 179 103 q 126 134 126 103 l 126 147 q 122 154 126 153 q 110 119 110 154 q 167 21 110 61 q 309 -18 224 -18 q 676 186 513 -18 q 806 372 724 246 q 690 534 690 422 q 843 736 690 670 q 1086 798 920 770 l 1161 810 l 1225 823 q 1320 877 1261 850 q 1401 904 1379 904 q 1413 897 1413 904 m 1208 811 q 1162 800 1193 808 q 1089 782 1137 793 q 826 666 924 743 q 728 501 728 590 q 811 380 728 416 q 1208 811 991 667 m 1307 1175 q 1295 1009 1299 1089 q 1293 1004 1295 1004 q 1289 1019 1290 1004 q 1274 1103 1284 1077 q 1149 1038 1230 1074 q 1046 1002 1067 1002 q 1042 1005 1042 1002 q 1051 1010 1042 1007 q 1202 1090 1126 1042 q 1307 1175 1278 1139 z "},"Ï":{"ha":886,"x_min":96,"x_max":1413,"o":"m 1413 897 q 1357 861 1413 886 q 1229 817 1301 836 q 895 386 1060 696 l 884 366 q 903 364 892 364 q 1055 415 985 364 q 1140 538 1125 466 q 1147 549 1143 549 q 1152 543 1152 549 q 1107 449 1152 502 q 900 353 1027 353 q 876 354 888 353 l 857 317 q 770 176 808 222 q 673 89 734 132 q 325 -32 503 -32 q 160 10 225 -32 q 96 118 96 52 q 116 178 96 153 q 164 203 136 203 q 208 157 208 203 q 194 119 208 134 q 158 103 179 103 q 126 134 126 103 l 126 147 q 122 154 126 153 q 110 119 110 154 q 167 21 110 61 q 309 -18 224 -18 q 676 186 513 -18 q 806 372 724 246 q 690 534 690 422 q 843 736 690 670 q 1086 798 920 770 l 1161 810 l 1225 823 q 1320 877 1261 850 q 1401 904 1379 904 q 1413 897 1413 904 m 1208 811 q 1162 800 1193 808 q 1089 782 1137 793 q 826 666 924 743 q 728 501 728 590 q 811 380 728 416 q 1208 811 991 667 m 1333 1057 q 1314 1012 1333 1032 q 1273 992 1296 992 q 1240 1023 1240 992 q 1260 1065 1240 1046 q 1303 1085 1280 1085 q 1333 1057 1333 1085 m 1217 1057 q 1199 1012 1217 1032 q 1158 992 1181 992 q 1124 1024 1124 992 q 1144 1066 1124 1047 q 1188 1085 1164 1085 q 1217 1057 1217 1085 z "},"Ì":{"ha":886,"x_min":96,"x_max":1413,"o":"m 1413 897 q 1357 861 1413 886 q 1229 817 1301 836 q 895 386 1060 696 l 884 366 q 903 364 892 364 q 1055 415 985 364 q 1140 538 1125 466 q 1147 549 1143 549 q 1152 543 1152 549 q 1107 449 1152 502 q 900 353 1027 353 q 876 354 888 353 l 857 317 q 770 176 808 222 q 673 89 734 132 q 325 -32 503 -32 q 160 10 225 -32 q 96 118 96 52 q 116 178 96 153 q 164 203 136 203 q 208 157 208 203 q 194 119 208 134 q 158 103 179 103 q 126 134 126 103 l 126 147 q 122 154 126 153 q 110 119 110 154 q 167 21 110 61 q 309 -18 224 -18 q 676 186 513 -18 q 806 372 724 246 q 690 534 690 422 q 843 736 690 670 q 1086 798 920 770 l 1161 810 l 1225 823 q 1320 877 1261 850 q 1401 904 1379 904 q 1413 897 1413 904 m 1208 811 q 1162 800 1193 808 q 1089 782 1137 793 q 826 666 924 743 q 728 501 728 590 q 811 380 728 416 q 1208 811 991 667 m 1226 981 q 1222 979 1225 979 q 1178 1029 1205 979 q 1136 1135 1150 1079 l 1194 1176 q 1183 1110 1183 1143 q 1221 989 1183 1040 q 1226 981 1225 985 z "},"Ó":{"ha":1101,"x_min":339,"x_max":1325,"o":"m 1325 1129 q 1157 1035 1259 1078 q 1067 1001 1078 1001 q 1063 1002 1064 1001 q 1071 1008 1063 1004 q 1297 1172 1230 1084 l 1325 1129 m 1260 542 q 1202 331 1260 438 q 1040 136 1143 223 q 828 3 941 52 q 619 -46 714 -46 q 417 39 494 -46 q 339 260 339 123 q 416 514 339 385 q 625 737 494 644 q 836 847 719 805 q 1047 889 953 889 q 1197 844 1141 889 q 1253 722 1253 798 q 1242 648 1253 691 q 1260 542 1260 595 m 1242 721 q 1194 831 1242 789 q 1067 873 1145 873 q 751 770 911 873 q 501 514 599 670 q 399 195 399 353 q 458 31 399 94 q 611 -32 517 -32 q 993 163 801 -32 q 1206 572 1185 359 q 1123 476 1183 532 q 1043 421 1064 421 q 1038 427 1038 421 q 1048 436 1038 430 q 1207 597 1158 497 q 1158 732 1207 682 q 1023 782 1108 782 q 700 614 866 782 q 534 286 534 446 q 564 183 534 222 q 643 143 594 143 q 690 157 666 143 q 714 183 714 170 q 711 187 713 187 q 705 184 711 187 q 679 176 697 176 q 647 214 647 176 q 663 252 647 237 q 700 268 678 268 q 743 220 743 268 q 712 157 743 184 q 640 131 682 131 q 543 179 582 131 q 504 298 504 227 q 676 628 504 464 q 1022 793 849 793 q 1154 758 1096 793 q 1234 667 1213 723 q 1242 721 1242 694 z "},"Ô":{"ha":1101,"x_min":339,"x_max":1260,"o":"m 1260 542 q 1202 331 1260 438 q 1040 136 1143 223 q 828 3 941 52 q 619 -46 714 -46 q 417 39 494 -46 q 339 260 339 123 q 416 514 339 385 q 625 737 494 644 q 836 847 719 805 q 1047 889 953 889 q 1197 844 1141 889 q 1253 722 1253 798 q 1242 648 1253 691 q 1260 542 1260 595 m 1242 721 q 1194 831 1242 789 q 1067 873 1145 873 q 751 770 911 873 q 501 514 599 670 q 399 195 399 353 q 458 31 399 94 q 611 -32 517 -32 q 993 163 801 -32 q 1206 572 1185 359 q 1123 476 1183 532 q 1043 421 1064 421 q 1038 427 1038 421 q 1048 436 1038 430 q 1207 597 1158 497 q 1158 732 1207 682 q 1023 782 1108 782 q 700 614 866 782 q 534 286 534 446 q 564 183 534 222 q 643 143 594 143 q 690 157 666 143 q 714 183 714 170 q 711 187 713 187 q 705 184 711 187 q 679 176 697 176 q 647 214 647 176 q 663 252 647 237 q 700 268 678 268 q 743 220 743 268 q 712 157 743 184 q 640 131 682 131 q 543 179 582 131 q 504 298 504 227 q 676 628 504 464 q 1022 793 849 793 q 1154 758 1096 793 q 1234 667 1213 723 q 1242 721 1242 694 m 1248 1175 q 1236 1009 1240 1089 q 1234 1004 1236 1004 q 1230 1019 1231 1004 q 1215 1103 1225 1077 q 1090 1038 1171 1074 q 987 1002 1008 1002 q 983 1005 983 1002 q 992 1010 983 1007 q 1143 1090 1067 1042 q 1248 1175 1219 1139 z "},"Ò":{"ha":1101,"x_min":339,"x_max":1260,"o":"m 1260 542 q 1202 331 1260 438 q 1040 136 1143 223 q 828 3 941 52 q 619 -46 714 -46 q 417 39 494 -46 q 339 260 339 123 q 416 514 339 385 q 625 737 494 644 q 836 847 719 805 q 1047 889 953 889 q 1197 844 1141 889 q 1253 722 1253 798 q 1242 648 1253 691 q 1260 542 1260 595 m 1242 721 q 1194 831 1242 789 q 1067 873 1145 873 q 751 770 911 873 q 501 514 599 670 q 399 195 399 353 q 458 31 399 94 q 611 -32 517 -32 q 993 163 801 -32 q 1206 572 1185 359 q 1123 476 1183 532 q 1043 421 1064 421 q 1038 427 1038 421 q 1048 436 1038 430 q 1207 597 1158 497 q 1158 732 1207 682 q 1023 782 1108 782 q 700 614 866 782 q 534 286 534 446 q 564 183 534 222 q 643 143 594 143 q 690 157 666 143 q 714 183 714 170 q 711 187 713 187 q 705 184 711 187 q 679 176 697 176 q 647 214 647 176 q 663 252 647 237 q 700 268 678 268 q 743 220 743 268 q 712 157 743 184 q 640 131 682 131 q 543 179 582 131 q 504 298 504 227 q 676 628 504 464 q 1022 793 849 793 q 1154 758 1096 793 q 1234 667 1213 723 q 1242 721 1242 694 m 1183 981 q 1179 978 1182 978 q 1134 1028 1162 978 q 1093 1135 1107 1078 l 1151 1175 q 1139 1109 1139 1142 q 1177 989 1139 1039 q 1183 981 1182 984 z "},"Ú":{"ha":1251,"x_min":203,"x_max":1603,"o":"m 1603 839 q 1132 5 1132 193 q 1162 -70 1132 -41 q 1239 -100 1192 -100 q 1397 -14 1320 -100 q 1407 -7 1404 -7 q 1411 -12 1411 -7 q 1388 -40 1411 -20 q 1239 -111 1308 -111 q 1132 -61 1175 -111 q 1089 65 1089 -11 q 1223 408 1089 195 q 1202 379 1215 397 l 1169 335 q 933 66 1046 163 q 746 -31 821 -31 q 667 5 697 -31 q 637 98 637 40 q 670 221 637 160 q 818 432 703 281 q 970 650 938 589 q 1003 781 1003 711 q 955 883 1003 845 q 825 921 907 921 q 426 732 618 921 q 235 339 235 543 q 278 216 235 262 q 392 170 321 170 q 652 323 527 170 q 782 618 782 485 q 686 730 782 730 q 642 720 663 730 q 621 696 621 709 q 627 690 621 690 q 639 694 631 691 q 648 696 642 696 q 684 663 684 696 q 667 625 684 641 q 629 608 651 608 q 587 653 587 608 q 617 716 587 690 q 689 743 648 743 q 766 709 737 743 q 794 618 794 675 q 667 322 794 485 q 392 157 537 157 q 255 215 307 157 q 203 371 203 274 q 436 777 203 593 q 633 890 527 848 q 823 933 739 933 q 983 878 926 933 q 1040 724 1040 823 q 999 564 1040 640 q 793 271 958 488 q 699 135 721 176 q 676 57 676 94 q 697 2 676 24 q 749 -20 718 -20 q 1030 185 850 -20 q 1497 835 1210 390 q 1537 832 1533 832 q 1603 839 1563 832 m 1593 1130 q 1425 1036 1527 1078 q 1335 1002 1346 1002 q 1331 1003 1332 1002 q 1339 1009 1331 1005 q 1565 1173 1497 1084 l 1593 1130 z "},"Û":{"ha":1251,"x_min":203,"x_max":1603,"o":"m 1603 839 q 1132 5 1132 193 q 1162 -70 1132 -41 q 1239 -100 1192 -100 q 1397 -14 1320 -100 q 1407 -7 1404 -7 q 1411 -12 1411 -7 q 1388 -40 1411 -20 q 1239 -111 1308 -111 q 1132 -61 1175 -111 q 1089 65 1089 -11 q 1223 408 1089 195 q 1202 379 1215 397 l 1169 335 q 933 66 1046 163 q 746 -31 821 -31 q 667 5 697 -31 q 637 98 637 40 q 670 221 637 160 q 818 432 703 281 q 970 650 938 589 q 1003 781 1003 711 q 955 883 1003 845 q 825 921 907 921 q 426 732 618 921 q 235 339 235 543 q 278 216 235 262 q 392 170 321 170 q 652 323 527 170 q 782 618 782 485 q 686 730 782 730 q 642 720 663 730 q 621 696 621 709 q 627 690 621 690 q 639 694 631 691 q 648 696 642 696 q 684 663 684 696 q 667 625 684 641 q 629 608 651 608 q 587 653 587 608 q 617 716 587 690 q 689 743 648 743 q 766 709 737 743 q 794 618 794 675 q 667 322 794 485 q 392 157 537 157 q 255 215 307 157 q 203 371 203 274 q 436 777 203 593 q 633 890 527 848 q 823 933 739 933 q 983 878 926 933 q 1040 724 1040 823 q 999 564 1040 640 q 793 271 958 488 q 699 135 721 176 q 676 57 676 94 q 697 2 676 24 q 749 -20 718 -20 q 1030 185 850 -20 q 1497 835 1210 390 q 1537 832 1533 832 q 1603 839 1563 832 m 1484 1171 q 1472 1006 1476 1086 q 1470 1000 1472 1001 q 1466 1016 1467 1000 q 1451 1099 1461 1074 q 1326 1035 1407 1071 q 1223 999 1244 999 q 1219 1002 1219 999 q 1228 1007 1219 1004 q 1379 1087 1303 1038 q 1484 1171 1455 1136 z "},"Ù":{"ha":1251,"x_min":203,"x_max":1603,"o":"m 1603 839 q 1132 5 1132 193 q 1162 -70 1132 -41 q 1239 -100 1192 -100 q 1397 -14 1320 -100 q 1407 -7 1404 -7 q 1411 -12 1411 -7 q 1388 -40 1411 -20 q 1239 -111 1308 -111 q 1132 -61 1175 -111 q 1089 65 1089 -11 q 1223 408 1089 195 q 1202 379 1215 397 l 1169 335 q 933 66 1046 163 q 746 -31 821 -31 q 667 5 697 -31 q 637 98 637 40 q 670 221 637 160 q 818 432 703 281 q 970 650 938 589 q 1003 781 1003 711 q 955 883 1003 845 q 825 921 907 921 q 426 732 618 921 q 235 339 235 543 q 278 216 235 262 q 392 170 321 170 q 652 323 527 170 q 782 618 782 485 q 686 730 782 730 q 642 720 663 730 q 621 696 621 709 q 627 690 621 690 q 639 694 631 691 q 648 696 642 696 q 684 663 684 696 q 667 625 684 641 q 629 608 651 608 q 587 653 587 608 q 617 716 587 690 q 689 743 648 743 q 766 709 737 743 q 794 618 794 675 q 667 322 794 485 q 392 157 537 157 q 255 215 307 157 q 203 371 203 274 q 436 777 203 593 q 633 890 527 848 q 823 933 739 933 q 983 878 926 933 q 1040 724 1040 823 q 999 564 1040 640 q 793 271 958 488 q 699 135 721 176 q 676 57 676 94 q 697 2 676 24 q 749 -20 718 -20 q 1030 185 850 -20 q 1497 835 1210 390 q 1537 832 1533 832 q 1603 839 1563 832 m 1360 987 q 1356 984 1359 984 q 1311 1034 1339 984 q 1270 1141 1284 1084 l 1328 1181 q 1316 1116 1316 1148 q 1354 995 1316 1045 q 1360 987 1359 990 z "},"ı":{"ha":233,"x_min":53,"x_max":358,"o":"m 358 212 q 351 201 357 210 l 322 161 q 127 -16 195 -16 q 74 7 96 -16 q 53 64 53 30 q 100 183 53 103 l 205 363 q 239 358 227 358 q 290 363 257 358 l 136 110 q 103 25 103 55 q 135 -5 103 -5 q 347 210 195 -5 q 354 216 351 216 q 358 212 358 216 z "},"ˆ":{"ha":694,"x_min":395,"x_max":660,"o":"m 660 611 q 648 446 652 526 q 646 440 648 441 q 642 456 643 440 q 627 539 637 513 q 502 475 583 511 q 399 439 420 439 q 395 441 395 439 q 404 447 395 444 q 555 527 479 478 q 660 611 631 576 z "},"˜":{"ha":694,"x_min":431,"x_max":733,"o":"m 733 493 q 695 466 733 484 q 639 449 658 449 q 579 458 617 449 l 566 462 q 482 478 501 478 q 444 468 467 478 q 435 464 437 464 q 431 467 431 464 q 468 494 431 476 q 526 511 506 511 q 608 497 549 511 l 640 490 q 684 484 669 484 q 724 493 706 484 q 730 496 729 496 q 733 493 733 495 z "},"¯":{"ha":694,"x_min":396,"x_max":707,"o":"m 707 484 l 703 471 l 396 471 l 400 484 l 707 484 z "},"ˉ":{"ha":694,"x_min":396,"x_max":707,"o":"m 707 484 l 703 471 l 396 471 l 400 484 l 707 484 z "},"˘":{"ha":694,"x_min":457,"x_max":725,"o":"m 725 533 q 690 486 725 520 q 571 436 639 436 q 489 465 522 436 q 457 538 457 494 q 465 564 457 564 q 471 553 468 564 q 508 498 477 519 q 582 476 539 476 q 708 525 657 476 q 722 536 718 536 q 725 533 725 536 z "},"˙":{"ha":694,"x_min":546,"x_max":642,"o":"m 642 500 q 622 454 642 474 q 579 433 603 433 q 546 465 546 433 q 567 509 546 489 q 611 529 587 529 q 642 500 642 529 z "},"˚":{"ha":500,"x_min":437,"x_max":583,"o":"m 583 547 q 549 469 583 507 q 476 432 515 432 q 437 471 437 432 q 473 548 437 511 q 547 585 508 585 q 583 547 583 585 m 570 550 q 549 572 570 572 q 487 535 522 572 q 453 467 453 497 q 472 444 453 444 q 535 482 500 444 q 570 550 570 519 z "},"¸":{"ha":694,"x_min":191,"x_max":370,"o":"m 370 -68 q 311 -118 370 -118 q 237 -94 284 -118 q 191 -57 191 -71 q 195 -53 191 -53 q 205 -58 197 -53 q 281 -85 244 -85 q 315 -73 300 -85 q 329 -45 329 -60 q 301 8 329 -24 l 313 5 q 370 -68 370 -34 z "},"˝":{"ha":694,"x_min":458,"x_max":799,"o":"m 799 607 q 663 485 749 548 q 582 435 593 435 q 581 436 581 435 q 587 443 581 437 q 696 545 644 486 q 766 639 749 603 l 799 607 m 676 607 q 541 485 627 547 q 460 435 471 435 q 458 436 459 435 q 465 443 458 437 q 574 545 522 487 q 643 639 627 604 l 676 607 z "},"˛":{"ha":694,"x_min":366,"x_max":564,"o":"m 564 -64 q 512 -106 564 -79 q 431 -134 460 -134 q 366 -77 366 -134 q 433 5 366 -37 l 440 8 q 411 -50 411 -26 q 427 -82 411 -68 q 464 -96 443 -96 q 547 -66 507 -96 q 559 -60 557 -60 q 564 -64 564 -60 z "},"ˇ":{"ha":694,"x_min":557,"x_max":823,"o":"m 823 607 q 803 597 823 606 q 557 437 637 526 q 571 595 567 535 q 574 608 572 608 q 576 603 574 608 q 591 510 581 543 q 718 575 637 540 q 821 610 798 610 q 823 607 823 609 z "},"ý":{"ha":428,"x_min":-233,"x_max":621,"o":"m 553 212 q 478 119 553 202 q 262 -45 395 28 l 229 -104 q 24 -367 131 -281 q -168 -456 -87 -456 q -215 -438 -196 -456 q -233 -395 -233 -420 q 81 -113 -233 -258 q 158 -77 106 -100 l 168 -71 l 288 142 q 185 15 217 45 q 121 -16 153 -16 q 72 8 93 -16 q 52 64 52 32 q 100 184 52 102 l 204 361 q 240 358 220 358 q 289 363 258 358 l 155 146 q 98 25 98 54 q 126 -5 98 -5 q 351 254 199 -5 l 414 361 q 452 358 429 358 q 497 363 470 358 q 269 -29 413 229 q 409 63 352 14 q 536 204 466 113 q 549 216 546 216 q 553 212 553 216 m 161 -82 q 85 -121 151 -88 q -224 -396 -224 -274 q -167 -447 -224 -447 q -24 -369 -95 -447 q 153 -96 47 -291 q 161 -82 153 -96 m 621 572 q 453 478 555 521 q 363 444 374 444 q 359 446 361 444 q 367 452 359 448 q 593 615 526 527 l 621 572 z "},"×":{"ha":726,"x_min":247,"x_max":836,"o":"m 823 600 q 815 574 836 592 l 568 351 l 675 121 q 686 90 686 98 q 677 78 686 81 q 652 106 665 73 q 547 332 621 176 l 285 96 q 256 78 264 78 q 247 89 247 78 q 262 113 247 98 q 536 357 330 172 q 444 554 507 422 q 435 583 435 575 q 443 595 435 591 q 461 583 454 598 q 557 376 494 511 l 790 585 q 823 600 814 606 z "},"¤":{"ha":705,"x_min":180,"x_max":935,"o":"m 935 650 l 774 532 q 793 456 793 500 q 779 380 793 419 q 665 231 746 288 l 746 104 l 726 90 l 647 216 q 485 164 564 164 q 353 216 401 164 l 192 98 l 180 115 l 339 232 q 318 313 318 264 q 330 382 318 349 q 449 534 363 472 l 367 660 l 383 672 l 465 546 q 632 600 547 600 q 761 549 715 600 l 921 665 l 935 650 m 753 382 q 768 456 768 422 q 731 546 768 513 q 628 579 694 579 q 466 521 545 579 q 357 382 387 463 q 345 316 345 348 q 383 222 345 258 q 488 186 422 186 q 647 242 572 186 q 753 382 722 298 z "}}}
